<svg width="236" height="146" viewBox="0 0 236 146" fill="none" xmlns="http://www.w3.org/2000/svg">
<g clip-path="url(#clip0_1_15965)">
<path d="M233.199 82.4C233.199 83.2 233.199 83.9 233.199 84.7C233.199 86.1 233.099 87.5 233.099 88.9C231.899 118.2 222.699 145.6 222.699 145.6H168.599H163.999H155.499H141.899H130.299H106.899H101.799H89.9995H73.2995H56.5995H4.69948C-5.70052 125.9 3.59948 118.8 10.4995 108.7C14.1995 103.3 17.1995 97.1 16.0995 87.6C15.6995 84.3 14.7995 80.6 13.2995 76.5C12.5995 74.6 12.3995 72.7 12.0995 70.8C11.9995 70 11.7995 69.1 11.6995 68.3C11.6995 68.1 11.5995 67.9 11.5995 67.6C6.19948 25 28.4995 4.79999 63.2995 1.39999C90.5995 -1.30001 101.899 6.79999 109.099 13.2C132.799 34.3 134.599 14.4 185.399 18.8C212.899 21.2 225.599 37.8 230.499 58.2C230.799 59.6 231.099 61 231.399 62.4C231.499 63.2 231.699 63.9 231.799 64.7C231.999 66.1 232.199 67.5 232.399 68.9C232.499 69.7 232.599 70.5 232.599 71.3C232.699 72.7 232.799 74.1 232.899 75.5C232.899 76.3 232.999 77.2 232.999 78C233.199 79.6 233.199 81 233.199 82.4Z" fill="#EBF3FA"/>
<path d="M47.2023 69.7999V139H32.9023V94.6999C33.1023 93.5999 33.2023 92.4999 33.1023 91.1999C33.1023 90.1999 33.0023 89.0999 32.9023 87.9999V69.7999H47.2023Z" fill="#C4D9ED"/>
<path d="M44.0031 69.8V139H29.7031V101.7C30.2031 101.1 30.6031 100.5 31.0031 99.8C31.7031 98.6 32.3031 97.3 32.6031 95.8C32.7031 95.4 32.8031 95 32.8031 94.6C33.0031 93.5 33.1031 92.4 33.0031 91.1C33.0031 90.1 32.9031 89 32.8031 87.9C32.8031 87.7 32.7031 87.4 32.7031 87.1C32.5031 85.7 32.2031 84.1 31.7031 82.4C31.6031 81.9 31.4031 81.4 31.3031 80.9C31.1031 80 30.9031 79.2 30.7031 78.4C30.4031 76.8 30.3031 75.2 30.3031 73.7C30.3031 72.3 30.4031 71 30.7031 69.7H44.0031V69.8Z" fill="#D5E7F7"/>
<path d="M30.9039 69.7999C30.6039 71.0999 30.5039 72.3999 30.5039 73.7999H33.0039H44.0039V69.7999H30.9039Z" fill="#C4D9ED"/>
<path d="M44.0023 78.5V82.5H31.9023C31.8023 82 31.6023 81.5 31.5023 81C31.3023 80.1 31.1023 79.3 30.9023 78.5H44.0023Z" fill="#C4D9ED"/>
<path d="M44.0023 87.1V91.1H33.2023C33.2023 90.1 33.1023 89 33.0023 87.9C33.0023 87.7 32.9023 87.4 32.9023 87.1H44.0023Z" fill="#C4D9ED"/>
<path d="M44.0016 95.7999V99.7999H31.1016C31.8016 98.5999 32.4016 97.2999 32.7016 95.7999H44.0016Z" fill="#C4D9ED"/>
<path d="M43.9031 104.5H29.7031V108.5H43.9031V104.5Z" fill="#C4D9ED"/>
<path d="M43.9031 113.2H29.7031V117.2H43.9031V113.2Z" fill="#C4D9ED"/>
<path d="M43.9031 121.9H29.7031V125.9H43.9031V121.9Z" fill="#C4D9ED"/>
<path d="M43.9031 130.5H29.7031V134.5H43.9031V130.5Z" fill="#C4D9ED"/>
<path d="M24.3992 106.8V139H10.1992V121C10.3992 120.8 10.4992 120.5 10.6992 120.3C11.4992 119.1 12.3992 118 13.3992 116.9C14.5992 115.5 15.8992 114.2 17.2992 112.9C17.5992 112.6 17.8992 112.3 18.1992 112C18.2992 111.9 18.2992 111.9 18.3992 111.8C18.5992 111.6 18.7992 111.5 18.8992 111.3C19.6992 110.6 20.3992 110 21.1992 109.4C21.5992 109.1 21.8992 108.8 22.2992 108.5C22.9992 107.9 23.6992 107.4 24.3992 106.8Z" fill="#C4D9ED"/>
<path d="M21.2 109.4V139H7V126.6C7 126.5 7.1 126.5 7.1 126.4C7.4 125.7 7.8 124.9 8.2 124.2C8.8 123.1 9.5 122 10.2 120.9C10.4 120.7 10.5 120.4 10.7 120.2C11.5 119 12.4 117.9 13.4 116.8C14.6 115.4 15.9 114.1 17.3 112.8C17.6 112.5 17.9 112.2 18.2 111.9C18.3 111.8 18.3 111.8 18.4 111.7C18.6 111.5 18.8 111.4 18.9 111.2C19.7 110.6 20.5 110 21.2 109.4Z" fill="#D5E7F7"/>
<path d="M21.1992 109.4V112.8H17.1992C17.4992 112.5 17.7992 112.2 18.0992 111.9C18.1992 111.8 18.1992 111.8 18.2992 111.7C18.4992 111.5 18.6992 111.4 18.7992 111.2C19.6992 110.6 20.4992 110 21.1992 109.4Z" fill="#C4D9ED"/>
<path d="M21.1992 116.8V120.2H10.6992C11.4992 119 12.3992 117.9 13.3992 116.8H21.1992Z" fill="#C4D9ED"/>
<path d="M21.2 124.3V127.7H7V126.7C7 126.6 7.1 126.6 7.1 126.5C7.4 125.8 7.8 125 8.2 124.3H21.2Z" fill="#C4D9ED"/>
<path d="M21.2 131.7H7V135.1H21.2V131.7Z" fill="#C4D9ED"/>
<path d="M54.9023 136.9H48.9023V145.6H54.9023V136.9Z" fill="#DCEAF9"/>
<path d="M136.602 102.4V97H135.002V87.8H126.302V97H118.102V81.9H109.102V91.7H107.002V80.1H98.0016V101.9H86.6016V114.7H82.4016V117.9H72.6016V112.3H66.9016V97.3H60.0016V125.1H53.1016V149.2H60.0016H66.0016H66.9016H72.6016H75.7016H80.8016H82.4016H86.6016H90.6016H98.0016H100.302H104.802H107.002H109.102H113.802H117.002H118.102H126.302H134.902H135.002H136.602H143.602V102.4H136.602Z" fill="#D5E7F7"/>
<path d="M107 81.5H98V83.7H107V81.5Z" fill="#C4D9ED"/>
<path d="M107 85.7H98V87.9H107V85.7Z" fill="#C4D9ED"/>
<path d="M107 89.5H98V91.7H107V89.5Z" fill="#C4D9ED"/>
<path d="M118.102 89.5H109.102V91.7H118.102V89.5Z" fill="#C4D9ED"/>
<path d="M118.102 85.7H109.102V87.9H118.102V85.7Z" fill="#C4D9ED"/>
<path d="M118.102 82H109.102V84.2H118.102V82Z" fill="#C4D9ED"/>
<path d="M118.1 93.1H98V95.3H118.1V93.1Z" fill="#C4D9ED"/>
<path d="M118.1 96.7999H98V98.9999H118.1V96.7999Z" fill="#C4D9ED"/>
<path d="M67 97.2999H60V100.7H67V97.2999Z" fill="#C4D9ED"/>
<path d="M67 102.4H60V105.8H67V102.4Z" fill="#C4D9ED"/>
<path d="M67 107.5H60V110.9H67V107.5Z" fill="#C4D9ED"/>
<path d="M67 112.9H60V116.3H67V112.9Z" fill="#C4D9ED"/>
<path d="M67 118.1H60V121.5H67V118.1Z" fill="#C4D9ED"/>
<path d="M67 123.3H60V126.7H67V123.3Z" fill="#C4D9ED"/>
<path d="M67 128.7H60V132.1H67V128.7Z" fill="#C4D9ED"/>
<path d="M118.1 100.3H98V101.7H118.1V100.3Z" fill="#C4D9ED"/>
<path d="M69.5023 97.2999H66.9023V112.3H69.5023V97.2999Z" fill="#C4D9ED"/>
<path d="M77.8016 112.3H72.6016V117.8H77.8016V112.3Z" fill="#C4D9ED"/>
<path d="M119.902 82H118.102V97H119.902V82Z" fill="#C4D9ED"/>
<path d="M108.1 80.1H107V91.8H108.1V80.1Z" fill="#C4D9ED"/>
<g opacity="0.8">
<g opacity="0.8">
<g opacity="0.8">
<g opacity="0.8">
<path opacity="0.8" d="M90 104.1H88.5V106.3H90V104.1Z" fill="#C4D9ED"/>
<path opacity="0.8" d="M92.8008 104.1H91.3008V106.3H92.8008V104.1Z" fill="#C4D9ED"/>
<path opacity="0.8" d="M95.6016 104.1H94.1016V106.3H95.6016V104.1Z" fill="#C4D9ED"/>
<path opacity="0.8" d="M98.3008 104.1H96.8008V106.3H98.3008V104.1Z" fill="#C4D9ED"/>
<path opacity="0.8" d="M101 104.1H99.5V106.3H101V104.1Z" fill="#C4D9ED"/>
</g>
<g opacity="0.8">
<path opacity="0.8" d="M103.699 104.1H102.199V106.3H103.699V104.1Z" fill="#C4D9ED"/>
<path opacity="0.8" d="M106.598 104.1H105.098V106.3H106.598V104.1Z" fill="#C4D9ED"/>
<path opacity="0.8" d="M109.398 104.1H107.898V106.3H109.398V104.1Z" fill="#C4D9ED"/>
<path opacity="0.8" d="M112 104.1H110.5V106.3H112V104.1Z" fill="#C4D9ED"/>
<path opacity="0.8" d="M114.699 104.1H113.199V106.3H114.699V104.1Z" fill="#C4D9ED"/>
</g>
</g>
<g opacity="0.8">
<g opacity="0.8">
<path opacity="0.8" d="M117.5 104.1H116V106.3H117.5V104.1Z" fill="#C4D9ED"/>
<path opacity="0.8" d="M120.398 104.1H118.898V106.3H120.398V104.1Z" fill="#C4D9ED"/>
<path opacity="0.8" d="M123.199 104.1H121.699V106.3H123.199V104.1Z" fill="#C4D9ED"/>
<path opacity="0.8" d="M125.801 104.1H124.301V106.3H125.801V104.1Z" fill="#C4D9ED"/>
<path opacity="0.8" d="M128.5 104.1H127V106.3H128.5V104.1Z" fill="#C4D9ED"/>
</g>
<g opacity="0.8">
<path opacity="0.8" d="M131.301 104.1H129.801V106.3H131.301V104.1Z" fill="#C4D9ED"/>
<path opacity="0.8" d="M134.102 104.1H132.602V106.3H134.102V104.1Z" fill="#C4D9ED"/>
<path opacity="0.8" d="M136.902 104.1H135.402V106.3H136.902V104.1Z" fill="#C4D9ED"/>
<path opacity="0.8" d="M139.602 104.1H138.102V106.3H139.602V104.1Z" fill="#C4D9ED"/>
<path opacity="0.8" d="M142.301 104.1H140.801V106.3H142.301V104.1Z" fill="#C4D9ED"/>
</g>
</g>
</g>
<g opacity="0.8">
<g opacity="0.8">
<g opacity="0.8">
<path opacity="0.8" d="M90 107.9H88.5V110.1H90V107.9Z" fill="#C4D9ED"/>
<path opacity="0.8" d="M92.8008 107.9H91.3008V110.1H92.8008V107.9Z" fill="#C4D9ED"/>
<path opacity="0.8" d="M95.6016 107.9H94.1016V110.1H95.6016V107.9Z" fill="#C4D9ED"/>
<path opacity="0.8" d="M98.3008 107.9H96.8008V110.1H98.3008V107.9Z" fill="#C4D9ED"/>
<path opacity="0.8" d="M101 107.9H99.5V110.1H101V107.9Z" fill="#C4D9ED"/>
</g>
<g opacity="0.8">
<path opacity="0.8" d="M103.699 107.9H102.199V110.1H103.699V107.9Z" fill="#C4D9ED"/>
<path opacity="0.8" d="M106.598 107.9H105.098V110.1H106.598V107.9Z" fill="#C4D9ED"/>
<path opacity="0.8" d="M109.398 107.9H107.898V110.1H109.398V107.9Z" fill="#C4D9ED"/>
<path opacity="0.8" d="M112 107.9H110.5V110.1H112V107.9Z" fill="#C4D9ED"/>
<path opacity="0.8" d="M114.699 107.9H113.199V110.1H114.699V107.9Z" fill="#C4D9ED"/>
</g>
</g>
<g opacity="0.8">
<g opacity="0.8">
<path opacity="0.8" d="M117.5 107.9H116V110.1H117.5V107.9Z" fill="#C4D9ED"/>
<path opacity="0.8" d="M120.398 107.9H118.898V110.1H120.398V107.9Z" fill="#C4D9ED"/>
<path opacity="0.8" d="M123.199 107.9H121.699V110.1H123.199V107.9Z" fill="#C4D9ED"/>
<path opacity="0.8" d="M125.801 107.9H124.301V110.1H125.801V107.9Z" fill="#C4D9ED"/>
<path opacity="0.8" d="M128.5 107.9H127V110.1H128.5V107.9Z" fill="#C4D9ED"/>
</g>
<g opacity="0.8">
<path opacity="0.8" d="M131.301 107.9H129.801V110.1H131.301V107.9Z" fill="#C4D9ED"/>
<path opacity="0.8" d="M134.102 107.9H132.602V110.1H134.102V107.9Z" fill="#C4D9ED"/>
<path opacity="0.8" d="M136.902 107.9H135.402V110.1H136.902V107.9Z" fill="#C4D9ED"/>
<path opacity="0.8" d="M139.602 107.9H138.102V110.1H139.602V107.9Z" fill="#C4D9ED"/>
<path opacity="0.8" d="M142.301 107.9H140.801V110.1H142.301V107.9Z" fill="#C4D9ED"/>
</g>
</g>
</g>
<g opacity="0.8">
<g opacity="0.8">
<g opacity="0.8">
<path opacity="0.8" d="M90 111.7H88.5V113.9H90V111.7Z" fill="#C4D9ED"/>
<path opacity="0.8" d="M92.8008 111.7H91.3008V113.9H92.8008V111.7Z" fill="#C4D9ED"/>
<path opacity="0.8" d="M95.6016 111.7H94.1016V113.9H95.6016V111.7Z" fill="#C4D9ED"/>
<path opacity="0.8" d="M98.3008 111.7H96.8008V113.9H98.3008V111.7Z" fill="#C4D9ED"/>
<path opacity="0.8" d="M101 111.7H99.5V113.9H101V111.7Z" fill="#C4D9ED"/>
</g>
<g opacity="0.8">
<path opacity="0.8" d="M103.699 111.7H102.199V113.9H103.699V111.7Z" fill="#C4D9ED"/>
<path opacity="0.8" d="M106.598 111.7H105.098V113.9H106.598V111.7Z" fill="#C4D9ED"/>
<path opacity="0.8" d="M109.398 111.7H107.898V113.9H109.398V111.7Z" fill="#C4D9ED"/>
<path opacity="0.8" d="M112 111.7H110.5V113.9H112V111.7Z" fill="#C4D9ED"/>
<path opacity="0.8" d="M114.699 111.7H113.199V113.9H114.699V111.7Z" fill="#C4D9ED"/>
</g>
</g>
<g opacity="0.8">
<g opacity="0.8">
<path opacity="0.8" d="M117.5 111.7H116V113.9H117.5V111.7Z" fill="#C4D9ED"/>
<path opacity="0.8" d="M120.398 111.7H118.898V113.9H120.398V111.7Z" fill="#C4D9ED"/>
<path opacity="0.8" d="M123.199 111.7H121.699V113.9H123.199V111.7Z" fill="#C4D9ED"/>
<path opacity="0.8" d="M125.801 111.7H124.301V113.9H125.801V111.7Z" fill="#C4D9ED"/>
<path opacity="0.8" d="M128.5 111.7H127V113.9H128.5V111.7Z" fill="#C4D9ED"/>
</g>
<g opacity="0.8">
<path opacity="0.8" d="M131.301 111.7H129.801V113.9H131.301V111.7Z" fill="#C4D9ED"/>
<path opacity="0.8" d="M134.102 111.7H132.602V113.9H134.102V111.7Z" fill="#C4D9ED"/>
<path opacity="0.8" d="M136.902 111.7H135.402V113.9H136.902V111.7Z" fill="#C4D9ED"/>
<path opacity="0.8" d="M139.602 111.7H138.102V113.9H139.602V111.7Z" fill="#C4D9ED"/>
<path opacity="0.8" d="M142.301 111.7H140.801V113.9H142.301V111.7Z" fill="#C4D9ED"/>
</g>
</g>
</g>
<g opacity="0.8">
<g opacity="0.8">
<g opacity="0.8">
<g opacity="0.8">
<path opacity="0.8" d="M90 115.6H88.5V117.8H90V115.6Z" fill="#C4D9ED"/>
<path opacity="0.8" d="M92.8008 115.6H91.3008V117.8H92.8008V115.6Z" fill="#C4D9ED"/>
<path opacity="0.8" d="M95.6016 115.6H94.1016V117.8H95.6016V115.6Z" fill="#C4D9ED"/>
<path opacity="0.8" d="M98.3008 115.6H96.8008V117.8H98.3008V115.6Z" fill="#C4D9ED"/>
<path opacity="0.8" d="M101 115.6H99.5V117.8H101V115.6Z" fill="#C4D9ED"/>
</g>
<g opacity="0.8">
<path opacity="0.8" d="M103.699 115.6H102.199V117.8H103.699V115.6Z" fill="#C4D9ED"/>
<path opacity="0.8" d="M106.598 115.6H105.098V117.8H106.598V115.6Z" fill="#C4D9ED"/>
<path opacity="0.8" d="M109.398 115.6H107.898V117.8H109.398V115.6Z" fill="#C4D9ED"/>
<path opacity="0.8" d="M112 115.6H110.5V117.8H112V115.6Z" fill="#C4D9ED"/>
<path opacity="0.8" d="M114.699 115.6H113.199V117.8H114.699V115.6Z" fill="#C4D9ED"/>
</g>
</g>
<g opacity="0.8">
<g opacity="0.8">
<path opacity="0.8" d="M117.5 115.6H116V117.8H117.5V115.6Z" fill="#C4D9ED"/>
<path opacity="0.8" d="M120.398 115.6H118.898V117.8H120.398V115.6Z" fill="#C4D9ED"/>
<path opacity="0.8" d="M123.199 115.6H121.699V117.8H123.199V115.6Z" fill="#C4D9ED"/>
<path opacity="0.8" d="M125.801 115.6H124.301V117.8H125.801V115.6Z" fill="#C4D9ED"/>
<path opacity="0.8" d="M128.5 115.6H127V117.8H128.5V115.6Z" fill="#C4D9ED"/>
</g>
<g opacity="0.8">
<path opacity="0.8" d="M131.301 115.6H129.801V117.8H131.301V115.6Z" fill="#C4D9ED"/>
<path opacity="0.8" d="M134.102 115.6H132.602V117.8H134.102V115.6Z" fill="#C4D9ED"/>
<path opacity="0.8" d="M136.902 115.6H135.402V117.8H136.902V115.6Z" fill="#C4D9ED"/>
<path opacity="0.8" d="M139.602 115.6H138.102V117.8H139.602V115.6Z" fill="#C4D9ED"/>
<path opacity="0.8" d="M142.301 115.6H140.801V117.8H142.301V115.6Z" fill="#C4D9ED"/>
</g>
</g>
</g>
<g opacity="0.8">
<g opacity="0.8">
<g opacity="0.8">
<path opacity="0.8" d="M90 119.4H88.5V121.6H90V119.4Z" fill="#C4D9ED"/>
<path opacity="0.8" d="M92.8008 119.4H91.3008V121.6H92.8008V119.4Z" fill="#C4D9ED"/>
<path opacity="0.8" d="M95.6016 119.4H94.1016V121.6H95.6016V119.4Z" fill="#C4D9ED"/>
<path opacity="0.8" d="M98.3008 119.4H96.8008V121.6H98.3008V119.4Z" fill="#C4D9ED"/>
<path opacity="0.8" d="M101 119.4H99.5V121.6H101V119.4Z" fill="#C4D9ED"/>
</g>
<g opacity="0.8">
<path opacity="0.8" d="M103.699 119.4H102.199V121.6H103.699V119.4Z" fill="#C4D9ED"/>
<path opacity="0.8" d="M106.598 119.4H105.098V121.6H106.598V119.4Z" fill="#C4D9ED"/>
<path opacity="0.8" d="M109.398 119.4H107.898V121.6H109.398V119.4Z" fill="#C4D9ED"/>
<path opacity="0.8" d="M112 119.4H110.5V121.6H112V119.4Z" fill="#C4D9ED"/>
<path opacity="0.8" d="M114.699 119.4H113.199V121.6H114.699V119.4Z" fill="#C4D9ED"/>
</g>
</g>
<g opacity="0.8">
<g opacity="0.8">
<path opacity="0.8" d="M117.5 119.4H116V121.6H117.5V119.4Z" fill="#C4D9ED"/>
<path opacity="0.8" d="M120.398 119.4H118.898V121.6H120.398V119.4Z" fill="#C4D9ED"/>
<path opacity="0.8" d="M123.199 119.4H121.699V121.6H123.199V119.4Z" fill="#C4D9ED"/>
<path opacity="0.8" d="M125.801 119.4H124.301V121.6H125.801V119.4Z" fill="#C4D9ED"/>
<path opacity="0.8" d="M128.5 119.4H127V121.6H128.5V119.4Z" fill="#C4D9ED"/>
</g>
<g opacity="0.8">
<path opacity="0.8" d="M131.301 119.4H129.801V121.6H131.301V119.4Z" fill="#C4D9ED"/>
<path opacity="0.8" d="M134.102 119.4H132.602V121.6H134.102V119.4Z" fill="#C4D9ED"/>
<path opacity="0.8" d="M136.902 119.4H135.402V121.6H136.902V119.4Z" fill="#C4D9ED"/>
<path opacity="0.8" d="M139.602 119.4H138.102V121.6H139.602V119.4Z" fill="#C4D9ED"/>
<path opacity="0.8" d="M142.301 119.4H140.801V121.6H142.301V119.4Z" fill="#C4D9ED"/>
</g>
</g>
</g>
<g opacity="0.8">
<g opacity="0.8">
<g opacity="0.8">
<path opacity="0.8" d="M90 123.2H88.5V125.4H90V123.2Z" fill="#C4D9ED"/>
<path opacity="0.8" d="M92.8008 123.2H91.3008V125.4H92.8008V123.2Z" fill="#C4D9ED"/>
<path opacity="0.8" d="M95.6016 123.2H94.1016V125.4H95.6016V123.2Z" fill="#C4D9ED"/>
<path opacity="0.8" d="M98.3008 123.2H96.8008V125.4H98.3008V123.2Z" fill="#C4D9ED"/>
<path opacity="0.8" d="M101 123.2H99.5V125.4H101V123.2Z" fill="#C4D9ED"/>
</g>
<g opacity="0.8">
<path opacity="0.8" d="M103.699 123.2H102.199V125.4H103.699V123.2Z" fill="#C4D9ED"/>
<path opacity="0.8" d="M106.598 123.2H105.098V125.4H106.598V123.2Z" fill="#C4D9ED"/>
<path opacity="0.8" d="M109.398 123.2H107.898V125.4H109.398V123.2Z" fill="#C4D9ED"/>
<path opacity="0.8" d="M112 123.2H110.5V125.4H112V123.2Z" fill="#C4D9ED"/>
<path opacity="0.8" d="M114.699 123.2H113.199V125.4H114.699V123.2Z" fill="#C4D9ED"/>
</g>
</g>
<g opacity="0.8">
<g opacity="0.8">
<path opacity="0.8" d="M117.5 123.2H116V125.4H117.5V123.2Z" fill="#C4D9ED"/>
<path opacity="0.8" d="M120.398 123.2H118.898V125.4H120.398V123.2Z" fill="#C4D9ED"/>
<path opacity="0.8" d="M123.199 123.2H121.699V125.4H123.199V123.2Z" fill="#C4D9ED"/>
<path opacity="0.8" d="M125.801 123.2H124.301V125.4H125.801V123.2Z" fill="#C4D9ED"/>
<path opacity="0.8" d="M128.5 123.2H127V125.4H128.5V123.2Z" fill="#C4D9ED"/>
</g>
<g opacity="0.8">
<path opacity="0.8" d="M131.301 123.2H129.801V125.4H131.301V123.2Z" fill="#C4D9ED"/>
<path opacity="0.8" d="M134.102 123.2H132.602V125.4H134.102V123.2Z" fill="#C4D9ED"/>
<path opacity="0.8" d="M136.902 123.2H135.402V125.4H136.902V123.2Z" fill="#C4D9ED"/>
<path opacity="0.8" d="M139.602 123.2H138.102V125.4H139.602V123.2Z" fill="#C4D9ED"/>
<path opacity="0.8" d="M142.301 123.2H140.801V125.4H142.301V123.2Z" fill="#C4D9ED"/>
</g>
</g>
</g>
</g>
</g>
<path d="M113.201 129.9H77.8008V149H113.201V129.9Z" fill="#C4D9ED"/>
<path d="M86.3023 139.5H50.9023V149.1H86.3023V139.5Z" fill="#C4D9ED"/>
<path d="M151.4 132.9H116V149H151.4V132.9Z" fill="#C4D9ED"/>
<path d="M86.7016 132.2H80.1016V135.7H86.7016V132.2Z" fill="#D5E7F7"/>
<path d="M95.2016 132.2H88.6016V135.7H95.2016V132.2Z" fill="#D5E7F7"/>
<path d="M103.502 132.2H96.9023V135.7H103.502V132.2Z" fill="#D5E7F7"/>
<path d="M111.702 132.2H105.102V135.7H111.702V132.2Z" fill="#D5E7F7"/>
<path d="M116.201 129.9H112.801V149.2H116.201V129.9Z" fill="#ADC9E0"/>
<path d="M158.4 126.2H155V149.2H158.4V126.2Z" fill="#ADC9E0"/>
<path d="M155.2 132.9H151.5V148.9H155.2V132.9Z" fill="#ADC9E0"/>
<path d="M148.7 133.9C148.6 134.2 148.4 134.3 148.2 134.2C148 134.1 147.9 133.9 148 133.6C148.1 133.3 148.8 132.5 148.8 132.5C148.8 132.5 148.8 133.6 148.7 133.9Z" fill="#DCEAF9"/>
<path d="M146.899 127.6C146.799 127.9 146.599 128 146.399 127.9C146.199 127.8 146.099 127.6 146.199 127.3C146.299 127 146.999 126.2 146.999 126.2C146.999 126.2 146.999 127.4 146.899 127.6Z" fill="#DCEAF9"/>
<path d="M139.7 137C139.6 137.3 139.4 137.4 139.2 137.3C139 137.2 138.9 137 139 136.7C139.1 136.4 139.8 135.6 139.8 135.6C139.8 135.6 139.8 136.8 139.7 137Z" fill="#DCEAF9"/>
<path d="M145.602 147.3C145.602 147.3 144.902 148.7 146.202 148.8C147.502 148.9 148.202 148.4 148.502 147.8C148.502 147.8 146.902 148.5 147.202 147.7C147.402 146.9 148.102 145.6 148.102 145.6C148.102 145.6 146.802 148 146.102 147.9C145.802 147.9 145.602 147.3 145.602 147.3Z" fill="#EBF2F9"/>
<path d="M61.6023 95.7999H61.4023V97.2999H61.6023V95.7999Z" fill="#DCEAF9"/>
<path d="M68.2 95.7999H68V97.2999H68.2V95.7999Z" fill="#DCEAF9"/>
<path d="M155.102 126.1H135.602V148.8H155.102V126.1Z" fill="#D5E7F7"/>
<path d="M153.802 121.6H153.402V126.2H153.802V121.6Z" fill="#D5E7F7"/>
<path d="M159.902 132.5H135.602V148.9H159.902V132.5Z" fill="#D5E7F7"/>
<path d="M159.902 130.4H135.602V135.7H159.902V130.4Z" fill="#C4D9ED"/>
<path d="M138.501 137.3H137.301V139.1H138.501V137.3Z" fill="#C4D9ED"/>
<path d="M140.802 137.3H139.602V139.1H140.802V137.3Z" fill="#C4D9ED"/>
<path d="M143.102 137.3H141.902V139.1H143.102V137.3Z" fill="#C4D9ED"/>
<path d="M145.302 137.3H144.102V139.1H145.302V137.3Z" fill="#C4D9ED"/>
<path d="M147.501 137.3H146.301V139.1H147.501V137.3Z" fill="#C4D9ED"/>
<path d="M149.7 137.3H148.5V139.1H149.7V137.3Z" fill="#C4D9ED"/>
<path d="M152.001 137.3H150.801V139.1H152.001V137.3Z" fill="#C4D9ED"/>
<path d="M154.302 137.3H153.102V139.1H154.302V137.3Z" fill="#C4D9ED"/>
<path d="M156.501 137.3H155.301V139.1H156.501V137.3Z" fill="#C4D9ED"/>
<path d="M158.7 137.3H157.5V139.1H158.7V137.3Z" fill="#C4D9ED"/>
<path d="M138.501 140.4H137.301V142.2H138.501V140.4Z" fill="#C4D9ED"/>
<path d="M140.802 140.4H139.602V142.2H140.802V140.4Z" fill="#C4D9ED"/>
<path d="M143.102 140.4H141.902V142.2H143.102V140.4Z" fill="#C4D9ED"/>
<path d="M145.302 140.4H144.102V142.2H145.302V140.4Z" fill="#C4D9ED"/>
<path d="M147.501 140.4H146.301V142.2H147.501V140.4Z" fill="#C4D9ED"/>
<path d="M149.7 140.4H148.5V142.2H149.7V140.4Z" fill="#C4D9ED"/>
<path d="M152.001 140.4H150.801V142.2H152.001V140.4Z" fill="#C4D9ED"/>
<path d="M154.302 140.4H153.102V142.2H154.302V140.4Z" fill="#C4D9ED"/>
<path d="M156.501 140.4H155.301V142.2H156.501V140.4Z" fill="#C4D9ED"/>
<path d="M158.7 140.4H157.5V142.2H158.7V140.4Z" fill="#C4D9ED"/>
<path d="M138.501 143.5H137.301V145.3H138.501V143.5Z" fill="#C4D9ED"/>
<path d="M140.802 143.5H139.602V145.3H140.802V143.5Z" fill="#C4D9ED"/>
<path d="M143.102 143.5H141.902V145.3H143.102V143.5Z" fill="#C4D9ED"/>
<path d="M145.302 143.5H144.102V145.3H145.302V143.5Z" fill="#C4D9ED"/>
<path d="M147.501 143.5H146.301V145.3H147.501V143.5Z" fill="#C4D9ED"/>
<path d="M149.7 143.5H148.5V145.3H149.7V143.5Z" fill="#C4D9ED"/>
<path d="M152.001 143.5H150.801V145.3H152.001V143.5Z" fill="#C4D9ED"/>
<path d="M154.302 143.5H153.102V145.3H154.302V143.5Z" fill="#C4D9ED"/>
<path d="M156.501 143.5H155.301V145.3H156.501V143.5Z" fill="#C4D9ED"/>
<path d="M158.7 143.5H157.5V145.3H158.7V143.5Z" fill="#C4D9ED"/>
<path d="M138.5 131.9H137.5V133.7H138.5V131.9Z" fill="#ADC9E0"/>
<path d="M148.902 131.9H147.902V133.7H148.902V131.9Z" fill="#ADC9E0"/>
<path d="M157.203 131.9H156.203V133.7H157.203V131.9Z" fill="#ADC9E0"/>
<path d="M57.6008 132.5H33.3008V148.9H57.6008V132.5Z" fill="#D5E7F7"/>
<path d="M57.6008 130.4H33.3008V135.7H57.6008V130.4Z" fill="#C4D9ED"/>
<path d="M36.1023 137.3H34.9023V139.1H36.1023V137.3Z" fill="#C4D9ED"/>
<path d="M38.5008 137.3H37.3008V139.1H38.5008V137.3Z" fill="#C4D9ED"/>
<path d="M40.8016 137.3H39.6016V139.1H40.8016V137.3Z" fill="#C4D9ED"/>
<path d="M42.9031 137.3H41.7031V139.1H42.9031V137.3Z" fill="#C4D9ED"/>
<path d="M45.1023 137.3H43.9023V139.1H45.1023V137.3Z" fill="#C4D9ED"/>
<path d="M47.4031 137.3H46.2031V139.1H47.4031V137.3Z" fill="#C4D9ED"/>
<path d="M49.7039 137.3H48.5039V139.1H49.7039V137.3Z" fill="#C4D9ED"/>
<path d="M52.0047 137.3H50.8047V139.1H52.0047V137.3Z" fill="#C4D9ED"/>
<path d="M54.1023 137.3H52.9023V139.1H54.1023V137.3Z" fill="#C4D9ED"/>
<path d="M56.4031 137.3H55.2031V139.1H56.4031V137.3Z" fill="#C4D9ED"/>
<path d="M36.1023 140.4H34.9023V142.2H36.1023V140.4Z" fill="#C4D9ED"/>
<path d="M38.5008 140.4H37.3008V142.2H38.5008V140.4Z" fill="#C4D9ED"/>
<path d="M40.8016 140.4H39.6016V142.2H40.8016V140.4Z" fill="#C4D9ED"/>
<path d="M42.9031 140.4H41.7031V142.2H42.9031V140.4Z" fill="#C4D9ED"/>
<path d="M45.1023 140.4H43.9023V142.2H45.1023V140.4Z" fill="#C4D9ED"/>
<path d="M47.4031 140.4H46.2031V142.2H47.4031V140.4Z" fill="#C4D9ED"/>
<path d="M49.7039 140.4H48.5039V142.2H49.7039V140.4Z" fill="#C4D9ED"/>
<path d="M52.0047 140.4H50.8047V142.2H52.0047V140.4Z" fill="#C4D9ED"/>
<path d="M54.1023 140.4H52.9023V142.2H54.1023V140.4Z" fill="#C4D9ED"/>
<path d="M56.4031 140.4H55.2031V142.2H56.4031V140.4Z" fill="#C4D9ED"/>
<path d="M36.1023 143.5H34.9023V145.3H36.1023V143.5Z" fill="#C4D9ED"/>
<path d="M38.5008 143.5H37.3008V145.3H38.5008V143.5Z" fill="#C4D9ED"/>
<path d="M40.8016 143.5H39.6016V145.3H40.8016V143.5Z" fill="#C4D9ED"/>
<path d="M42.9031 143.5H41.7031V145.3H42.9031V143.5Z" fill="#C4D9ED"/>
<path d="M45.1023 143.5H43.9023V145.3H45.1023V143.5Z" fill="#C4D9ED"/>
<path d="M47.4031 143.5H46.2031V145.3H47.4031V143.5Z" fill="#C4D9ED"/>
<path d="M49.7039 143.5H48.5039V145.3H49.7039V143.5Z" fill="#C4D9ED"/>
<path d="M52.0047 143.5H50.8047V145.3H52.0047V143.5Z" fill="#C4D9ED"/>
<path d="M54.1023 143.5H52.9023V145.3H54.1023V143.5Z" fill="#C4D9ED"/>
<path d="M56.4031 143.5H55.2031V145.3H56.4031V143.5Z" fill="#C4D9ED"/>
<path d="M36.1016 131.9H35.1016V133.7H36.1016V131.9Z" fill="#ADC9E0"/>
<path d="M46.6016 131.9H45.6016V133.7H46.6016V131.9Z" fill="#ADC9E0"/>
<path d="M54.8008 131.9H53.8008V133.7H54.8008V131.9Z" fill="#ADC9E0"/>
<path d="M31.7023 132.5V148.9H10.4023L7.40234 145.7V132.5H31.7023Z" fill="#D5E7F7"/>
<path d="M31.7023 130.4H7.40234V135.7H31.7023V130.4Z" fill="#C4D9ED"/>
<path d="M10.3016 137.3H9.10156V139.1H10.3016V137.3Z" fill="#C4D9ED"/>
<path d="M12.6023 137.3H11.4023V139.1H12.6023V137.3Z" fill="#C4D9ED"/>
<path d="M14.9031 137.3H13.7031V139.1H14.9031V137.3Z" fill="#C4D9ED"/>
<path d="M17.1023 137.3H15.9023V139.1H17.1023V137.3Z" fill="#C4D9ED"/>
<path d="M19.3016 137.3H18.1016V139.1H19.3016V137.3Z" fill="#C4D9ED"/>
<path d="M21.5008 137.3H20.3008V139.1H21.5008V137.3Z" fill="#C4D9ED"/>
<path d="M23.8016 137.3H22.6016V139.1H23.8016V137.3Z" fill="#C4D9ED"/>
<path d="M26.1023 137.3H24.9023V139.1H26.1023V137.3Z" fill="#C4D9ED"/>
<path d="M28.3016 137.3H27.1016V139.1H28.3016V137.3Z" fill="#C4D9ED"/>
<path d="M30.5008 137.3H29.3008V139.1H30.5008V137.3Z" fill="#C4D9ED"/>
<path d="M10.3016 140.4H9.10156V142.2H10.3016V140.4Z" fill="#C4D9ED"/>
<path d="M12.6023 140.4H11.4023V142.2H12.6023V140.4Z" fill="#C4D9ED"/>
<path d="M14.9031 140.4H13.7031V142.2H14.9031V140.4Z" fill="#C4D9ED"/>
<path d="M17.1023 140.4H15.9023V142.2H17.1023V140.4Z" fill="#C4D9ED"/>
<path d="M19.3016 140.4H18.1016V142.2H19.3016V140.4Z" fill="#C4D9ED"/>
<path d="M21.5008 140.4H20.3008V142.2H21.5008V140.4Z" fill="#C4D9ED"/>
<path d="M23.8016 140.4H22.6016V142.2H23.8016V140.4Z" fill="#C4D9ED"/>
<path d="M26.1023 140.4H24.9023V142.2H26.1023V140.4Z" fill="#C4D9ED"/>
<path d="M28.3016 140.4H27.1016V142.2H28.3016V140.4Z" fill="#C4D9ED"/>
<path d="M30.5008 140.4H29.3008V142.2H30.5008V140.4Z" fill="#C4D9ED"/>
<path d="M10.3016 143.5H9.10156V145.3H10.3016V143.5Z" fill="#C4D9ED"/>
<path d="M12.6023 143.5H11.4023V145.3H12.6023V143.5Z" fill="#C4D9ED"/>
<path d="M14.9031 143.5H13.7031V145.3H14.9031V143.5Z" fill="#C4D9ED"/>
<path d="M17.1023 143.5H15.9023V145.3H17.1023V143.5Z" fill="#C4D9ED"/>
<path d="M19.3016 143.5H18.1016V145.3H19.3016V143.5Z" fill="#C4D9ED"/>
<path d="M21.5008 143.5H20.3008V145.3H21.5008V143.5Z" fill="#C4D9ED"/>
<path d="M23.8016 143.5H22.6016V145.3H23.8016V143.5Z" fill="#C4D9ED"/>
<path d="M26.1023 143.5H24.9023V145.3H26.1023V143.5Z" fill="#C4D9ED"/>
<path d="M28.3016 143.5H27.1016V145.3H28.3016V143.5Z" fill="#C4D9ED"/>
<path d="M30.5008 143.5H29.3008V145.3H30.5008V143.5Z" fill="#C4D9ED"/>
<path d="M10.3008 131.9H9.30078V133.7H10.3008V131.9Z" fill="#ADC9E0"/>
<path d="M20.7031 131.9H19.7031V133.7H20.7031V131.9Z" fill="#ADC9E0"/>
<path d="M29.0039 131.9H28.0039V133.7H29.0039V131.9Z" fill="#ADC9E0"/>
<path d="M5.80156 132.5V142.7C5.00156 140.8 4.60156 138.7 4.60156 136.6C4.60156 136.5 4.60156 136.4 4.60156 136.3C4.60156 136.1 4.60156 135.9 4.60156 135.7C4.60156 135.5 4.60156 135.4 4.60156 135.2C4.70156 134.6 4.70156 133.9 4.80156 133.3C4.80156 133.3 4.80156 133.3 4.80156 133.2C4.80156 133.1 4.80156 133 4.90156 132.9C4.90156 132.8 5.00156 132.6 5.00156 132.5H5.80156Z" fill="#D5E7F7"/>
<path d="M5.80313 130.4V135.7H4.70312C4.70312 135.5 4.70312 135.4 4.70312 135.2C4.80313 134.6 4.80313 133.9 4.90313 133.3C4.90313 133.3 4.90313 133.3 4.90313 133.2C4.90313 133.1 4.90313 133 5.00313 132.9C5.00313 132.8 5.10313 132.6 5.10313 132.5C5.20313 132 5.30313 131.6 5.40313 131.1C5.40313 131 5.50313 130.9 5.50313 130.8C5.50313 130.7 5.60313 130.5 5.60313 130.4H5.80313Z" fill="#C4D9ED"/>
<path opacity="0.4" d="M232.5 128.5C232.4 129.1 232.3 129.6 232.2 130.2C232.2 130.3 232.2 130.5 232.1 130.6V130.7C232 131 232 131.4 231.9 131.7C231.8 132.3 231.6 132.9 231.5 133.5C231.5 133.6 231.4 133.7 231.4 133.8C231 135.3 230.6 136.8 230.2 138.1C230.1 138.3 230.1 138.5 230 138.8C229.8 139.4 229.6 140 229.4 140.5C229.3 140.9 229.1 141.3 229 141.6C228.3 143.6 227.5 145.2 227 146.4C226.5 147.6 226 148.5 225.8 149H115.5V126C123.9 126.6 135 119.6 143.2 123.9C152.4 128.8 176.4 141.1 191.7 132.2C204.9 124.6 223.8 124.9 232.5 128.5Z" fill="#C4D9ED"/>
<path d="M214.003 148.7H206.203C205.803 148.3 206.503 147.5 207.203 147.5C207.503 147.5 207.903 147.5 208.403 147.6C208.503 146.2 209.103 139.7 211.403 140C214.003 140.3 211.403 142.8 210.703 144.3C210.203 145.4 209.603 147 209.303 147.8C209.503 147.8 209.703 147.9 210.003 147.9C210.303 146.8 211.603 143.3 213.303 143.5C215.203 143.7 214.403 145.2 213.103 146C212.103 146.6 210.903 147.5 210.303 147.9C210.803 148 211.303 148 211.803 148C213.103 148.1 213.803 148.5 214.003 148.7Z" fill="#A8D29F"/>
<path d="M20.1023 148.4C19.7023 147.8 18.6023 146.3 17.2023 146.5C15.6023 146.7 19.0023 147.8 20.0023 148.4C19.8023 148.4 19.6023 148.4 19.4023 148.3C18.7023 148.1 17.5023 148.5 17.1023 148.7H23.7023C23.7023 148.5 23.5023 148.3 23.2023 148.1C23.1023 148 22.9023 148 22.6023 148C23.0023 147.5 23.3023 146.1 22.2023 146.4C21.4023 146.7 21.4023 147.6 21.5023 148.1C21.3023 148.1 21.2023 148.2 21.0023 148.2C20.7023 146.5 19.5023 141.6 17.2023 141.5C14.8023 141.4 19.2023 146.6 20.7023 148.2C20.5023 148.4 20.3023 148.4 20.1023 148.4Z" fill="#A8D29F"/>
<path d="M49.9016 98.9C46.8016 98.9 44.0016 100 41.8016 101.8C38.9016 104.2 37.1016 107.8 37.1016 111.8C37.1016 118.9 49.9016 134.6 49.9016 134.6C49.9016 134.6 55.7016 127.4 59.5016 120.6C61.3016 117.3 62.7016 114.1 62.7016 111.7C62.8016 104.6 57.0016 98.9 49.9016 98.9ZM49.9016 117.6C46.6016 117.6 43.9016 114.9 43.9016 111.6C43.9016 110.8 44.1016 110 44.4016 109.3C45.3016 107.1 47.4016 105.6 49.9016 105.6C53.2016 105.6 55.9016 108.3 55.9016 111.6C55.9016 114.5 53.9016 116.9 51.2016 117.4C50.8016 117.5 50.4016 117.6 49.9016 117.6Z" fill="#F99746"/>
<path d="M212.7 117.7C209.6 117.7 207 120.3 207 123.4C207 126.5 212.7 133.5 212.7 133.5C212.7 133.5 218.4 126.5 218.4 123.4C218.4 120.2 215.8 117.7 212.7 117.7ZM212.7 126C211.2 126 210 124.8 210 123.3C210 121.8 211.2 120.6 212.7 120.6C214.2 120.6 215.4 121.8 215.4 123.3C215.4 124.8 214.2 126 212.7 126Z" fill="#F99746"/>
<path d="M23.9008 124.2C22.2008 124.2 20.8008 125.6 20.8008 127.3C20.8008 129 23.9008 132.9 23.9008 132.9C23.9008 132.9 27.0008 129.1 27.0008 127.3C27.0008 125.6 25.6008 124.2 23.9008 124.2ZM23.9008 128.7C23.1008 128.7 22.4008 128 22.4008 127.2C22.4008 126.4 23.1008 125.7 23.9008 125.7C24.7008 125.7 25.4008 126.4 25.4008 127.2C25.3008 128 24.7008 128.7 23.9008 128.7Z" fill="#699FF0"/>
<path d="M55.6016 148.7C55.6016 148.7 57.8016 142 64.2016 140.7C70.6016 139.4 75.4016 144.4 81.1016 142.5C86.8016 140.5 95.8016 130.2 106.502 137.8C117.202 145.4 116.502 147.5 123.302 145.8C130.102 144 131.602 148.8 131.602 148.8H55.6016V148.7Z" fill="#A8D29F"/>
<path d="M62.2007 142.4C62.2007 142.4 57.5007 137.5 55.1007 138.8C52.8007 140.2 62.2007 142.4 62.2007 142.4Z" fill="#A8D29F"/>
<path d="M61.0019 143.7C61.0019 143.7 56.7019 142.3 55.6019 143C54.5019 143.7 61.0019 143.7 61.0019 143.7Z" fill="#A8D29F"/>
<path d="M74.6992 143.2C74.6992 143.2 77.6992 136.6 78.6992 137.8C79.6992 139 74.6992 143.2 74.6992 143.2Z" fill="#A8D29F"/>
<path d="M73.9999 142.8C73.9999 142.8 75.1999 137.9 73.3999 138.2C71.5999 138.5 73.9999 142.8 73.9999 142.8Z" fill="#A8D29F"/>
<path d="M211.101 115.1C211.101 115.1 211.001 114.6 210.601 113.8C210.601 113.7 210.401 113.6 210.301 113.7C210.201 113.7 210.101 113.9 210.201 114C210.501 114.8 210.601 115.3 210.601 115.3C210.601 115.4 210.701 115.5 210.801 115.5C210.801 115.5 210.801 115.5 210.901 115.5C211.101 115.3 211.201 115.2 211.101 115.1ZM210.201 112.5C210.001 112.1 209.901 111.7 209.701 111.2C209.701 111.1 209.501 111 209.401 111.1C209.301 111.1 209.201 111.3 209.301 111.4C209.501 111.8 209.701 112.3 209.801 112.7C209.801 112.8 209.901 112.8 210.001 112.8H210.101C210.201 112.7 210.201 112.6 210.201 112.5ZM32.9008 111.6C32.5008 111.4 32.1008 111.2 31.7008 111C31.6008 110.9 31.5008 111 31.4008 111.1C31.3008 111.2 31.4008 111.3 31.5008 111.4C31.9008 111.6 32.3008 111.8 32.7008 112H32.8008C32.9008 112 33.0008 112 33.0008 111.9C33.1008 111.8 33.0008 111.6 32.9008 111.6ZM30.4008 110.5C30.0008 110.3 29.6008 110.2 29.1008 110C29.0008 110 28.9008 110 28.8008 110.1C28.8008 110.2 28.8008 110.3 28.9008 110.4C29.3008 110.6 29.7008 110.7 30.2008 110.9H30.3008C30.4008 110.9 30.5008 110.8 30.5008 110.8C30.6008 110.6 30.5008 110.5 30.4008 110.5ZM209.101 110C208.901 109.6 208.701 109.2 208.501 108.8C208.401 108.7 208.301 108.6 208.201 108.7C208.101 108.8 208.001 108.9 208.101 109C208.301 109.4 208.501 109.8 208.701 110.2C208.701 110.3 208.801 110.3 208.901 110.3H209.001C209.101 110.2 209.201 110.1 209.101 110ZM27.9008 109.5C27.5008 109.4 27.0008 109.2 26.6008 109.1C26.5008 109.1 26.4008 109.1 26.3008 109.3C26.3008 109.4 26.3008 109.5 26.5008 109.6C26.9008 109.7 27.4008 109.9 27.8008 110C27.8008 110 27.8008 110 27.9008 110C28.0008 110 28.1008 109.9 28.1008 109.8C28.0008 109.7 28.0008 109.6 27.9008 109.5ZM25.2008 108.8C24.8008 108.7 24.3008 108.6 23.9008 108.5C23.8008 108.5 23.7008 108.6 23.6008 108.7C23.6008 108.8 23.7008 108.9 23.8008 109C24.2008 109.1 24.7008 109.2 25.1008 109.3C25.1008 109.3 25.1008 109.3 25.2008 109.3C25.3008 109.3 25.4008 109.2 25.4008 109.1C25.4008 108.9 25.4008 108.8 25.2008 108.8ZM22.6008 108.2C22.2008 108.1 21.7008 108 21.3008 108C21.2008 108 21.1008 108.1 21.0008 108.2C21.0008 108.3 21.1008 108.4 21.2008 108.5C21.6008 108.6 22.1008 108.6 22.5008 108.7C22.6008 108.7 22.7008 108.6 22.7008 108.5C22.8008 108.3 22.7008 108.2 22.6008 108.2ZM19.9008 107.8C19.5008 107.7 19.0008 107.7 18.5008 107.6C18.4008 107.6 18.3008 107.7 18.3008 107.8C18.3008 107.9 18.4008 108 18.5008 108.1C19.0008 108.1 19.4008 108.2 19.8008 108.3C19.9008 108.3 20.0008 108.2 20.0008 108.1C20.1008 107.9 20.0008 107.8 19.9008 107.8ZM208.001 107.5C207.801 107.1 207.601 106.7 207.401 106.3C207.301 106.2 207.201 106.1 207.101 106.2C207.001 106.3 206.901 106.4 207.001 106.5C207.201 106.9 207.401 107.3 207.601 107.7C207.601 107.8 207.701 107.8 207.801 107.8H207.901C208.001 107.7 208.001 107.6 208.001 107.5ZM206.801 105C206.601 104.6 206.401 104.2 206.201 103.8C206.101 103.7 206.001 103.7 205.901 103.7C205.801 103.8 205.701 103.9 205.801 104C206.001 104.4 206.201 104.8 206.401 105.2C206.401 105.3 206.501 105.3 206.601 105.3H206.701C206.801 105.3 206.801 105.2 206.801 105ZM205.401 102.6C205.201 102.2 204.901 101.8 204.701 101.4C204.601 101.3 204.501 101.3 204.401 101.3C204.301 101.4 204.301 101.5 204.301 101.6C204.501 102 204.801 102.4 205.001 102.8C205.001 102.9 205.101 102.9 205.201 102.9H205.301C205.501 102.9 205.501 102.8 205.401 102.6ZM65.8008 100.3C65.7008 100.2 65.6008 100.3 65.5008 100.4C65.2008 100.8 65.0008 101.1 64.7008 101.5C64.6008 101.6 64.7008 101.7 64.8008 101.8H64.9008C65.0008 101.8 65.0008 101.8 65.1008 101.7C65.4008 101.3 65.6008 101 65.9008 100.6C65.9008 100.6 65.9008 100.4 65.8008 100.3ZM204.101 100.3C203.901 99.9 203.601 99.5 203.401 99.1C203.301 99 203.201 99 203.101 99C203.001 99.1 203.001 99.2 203.001 99.3C203.201 99.7 203.501 100.1 203.701 100.5C203.701 100.6 203.801 100.6 203.901 100.6H204.001C204.101 100.5 204.101 100.4 204.101 100.3ZM67.4008 98.2C67.3008 98.1 67.2008 98.1 67.1008 98.2C66.8008 98.6 66.6008 98.9 66.3008 99.3C66.2008 99.4 66.2008 99.5 66.3008 99.6H66.4008C66.5008 99.6 66.5008 99.6 66.6008 99.5C66.9008 99.1 67.1008 98.8 67.4008 98.4C67.5008 98.4 67.5008 98.2 67.4008 98.2ZM202.601 98C202.401 97.6 202.101 97.2 201.801 96.9C201.701 96.8 201.601 96.8 201.501 96.8C201.401 96.9 201.401 97 201.401 97.1C201.701 97.5 201.901 97.9 202.201 98.2C202.201 98.3 202.301 98.3 202.401 98.3H202.501C202.601 98.2 202.701 98.1 202.601 98ZM69.1008 96C69.0008 95.9 68.9008 95.9 68.8008 96C68.5008 96.4 68.2008 96.7 68.0008 97.1C67.9008 97.2 67.9008 97.3 68.0008 97.4H68.1008C68.2008 97.4 68.2008 97.4 68.3008 97.3C68.6008 96.9 68.9008 96.6 69.1008 96.2C69.2008 96.2 69.2008 96.1 69.1008 96ZM201.101 95.7C200.801 95.3 200.601 95 200.301 94.6C200.201 94.5 200.101 94.5 200.001 94.6C199.901 94.7 199.901 94.8 200.001 94.9C200.301 95.3 200.501 95.6 200.801 96C200.801 96.1 200.901 96.1 201.001 96.1H201.101C201.101 96 201.101 95.8 201.101 95.7ZM70.8008 93.9C70.7008 93.8 70.6008 93.8 70.5008 93.9C70.2008 94.2 69.9008 94.6 69.6008 94.9C69.5008 95 69.5008 95.1 69.6008 95.2L69.7008 95.3C69.8008 95.3 69.8008 95.3 69.9008 95.2C70.2008 94.9 70.5008 94.5 70.8008 94.2C70.9008 94.1 70.9008 94 70.8008 93.9ZM199.501 93.5C199.201 93.1 198.901 92.8 198.701 92.4C198.601 92.3 198.501 92.3 198.401 92.4C198.301 92.5 198.301 92.6 198.401 92.7C198.701 93.1 199.001 93.4 199.201 93.8C199.201 93.9 199.301 93.9 199.401 93.9H199.501C199.501 93.8 199.501 93.6 199.501 93.5ZM72.6008 91.9C72.5008 91.8 72.4008 91.8 72.3008 91.9C72.0008 92.2 71.7008 92.6 71.4008 92.9C71.3008 93 71.3008 93.1 71.4008 93.2L71.5008 93.3C71.6008 93.3 71.6008 93.3 71.7008 93.2C72.0008 92.9 72.3008 92.5 72.6008 92.2C72.7008 92.1 72.7008 92 72.6008 91.9ZM197.801 91.4C197.501 91 197.201 90.7 196.901 90.3C196.801 90.2 196.701 90.2 196.601 90.3C196.501 90.4 196.501 90.5 196.601 90.6C196.901 90.9 197.201 91.3 197.501 91.6C197.501 91.7 197.601 91.7 197.701 91.7C197.701 91.7 197.801 91.7 197.801 91.6C197.901 91.6 197.901 91.5 197.801 91.4ZM74.5008 89.9C74.4008 89.8 74.3008 89.8 74.2008 89.9C73.9008 90.2 73.6008 90.6 73.3008 90.9C73.2008 91 73.2008 91.1 73.3008 91.2C73.3008 91.2 73.4008 91.3 73.5008 91.3C73.6008 91.3 73.6008 91.3 73.7008 91.2C74.0008 90.9 74.3008 90.5 74.6008 90.2C74.6008 90.1 74.6008 90 74.5008 89.9ZM196.001 89.3C195.701 89 195.401 88.6 195.101 88.3C195.001 88.2 194.901 88.2 194.801 88.3C194.701 88.4 194.701 88.5 194.801 88.6C195.101 88.9 195.401 89.3 195.701 89.6C195.701 89.7 195.801 89.7 195.901 89.7C196.001 89.7 196.001 89.7 196.001 89.6C196.101 89.5 196.101 89.4 196.001 89.3ZM76.4008 88C76.3008 87.9 76.2008 87.9 76.1008 88C75.8008 88.3 75.5008 88.6 75.1008 89C75.0008 89.1 75.0008 89.2 75.1008 89.3C75.1008 89.3 75.2008 89.4 75.3008 89.4C75.4008 89.4 75.4008 89.4 75.5008 89.3C75.8008 89 76.1008 88.7 76.5008 88.3C76.5008 88.2 76.5008 88.1 76.4008 88ZM194.201 87.3C193.901 87 193.601 86.6 193.301 86.3C193.201 86.2 193.101 86.2 193.001 86.3C192.901 86.4 192.901 86.5 193.001 86.6C193.301 86.9 193.601 87.3 193.901 87.6C193.901 87.6 194.001 87.7 194.101 87.7C194.201 87.7 194.201 87.7 194.301 87.6C194.301 87.5 194.301 87.3 194.201 87.3ZM78.4008 86.1C78.3008 86 78.2008 86 78.1008 86.1C77.8008 86.4 77.4008 86.7 77.1008 87C77.0008 87.1 77.0008 87.2 77.1008 87.3C77.1008 87.3 77.2008 87.4 77.3008 87.4C77.4008 87.4 77.4008 87.4 77.5008 87.3C77.8008 87 78.2008 86.7 78.5008 86.4C78.5008 86.3 78.5008 86.2 78.4008 86.1ZM192.301 85.3C192.001 85 191.701 84.7 191.301 84.3C191.201 84.2 191.101 84.2 191.001 84.3C190.901 84.4 190.901 84.5 191.001 84.6C191.301 84.9 191.601 85.2 192.001 85.6C192.001 85.6 192.101 85.7 192.201 85.7C192.301 85.7 192.301 85.7 192.401 85.6C192.401 85.5 192.401 85.4 192.301 85.3ZM80.4008 84.3C80.3008 84.2 80.2008 84.2 80.1008 84.3C79.8008 84.6 79.4008 84.9 79.1008 85.2C79.0008 85.3 79.0008 85.4 79.1008 85.5C79.1008 85.6 79.2008 85.6 79.3008 85.6C79.4008 85.6 79.4008 85.6 79.5008 85.5C79.8008 85.2 80.2008 84.9 80.5008 84.6C80.5008 84.5 80.5008 84.4 80.4008 84.3ZM82.5008 82.6C82.4008 82.5 82.3008 82.5 82.2008 82.6C81.8008 82.9 81.5008 83.2 81.1008 83.5C81.0008 83.6 81.0008 83.7 81.1008 83.8C81.1008 83.9 81.2008 83.9 81.3008 83.9C81.4008 83.9 81.4008 83.9 81.4008 83.8C81.7008 83.5 82.1008 83.2 82.5008 82.9C82.6008 82.8 82.6008 82.7 82.5008 82.6ZM190.401 83.4C190.101 83.1 189.701 82.8 189.401 82.5C189.301 82.4 189.201 82.4 189.101 82.5C189.001 82.6 189.001 82.7 189.101 82.8C189.401 83.1 189.801 83.4 190.101 83.7C190.101 83.7 190.201 83.8 190.301 83.8C190.401 83.8 190.401 83.8 190.501 83.7C190.501 83.6 190.501 83.5 190.401 83.4ZM84.7008 80.9C84.6008 80.8 84.5008 80.8 84.4008 80.9C84.0008 81.2 83.7008 81.4 83.3008 81.7C83.2008 81.8 83.2008 81.9 83.3008 82C83.3008 82.1 83.4008 82.1 83.5008 82.1H83.6008C84.0008 81.8 84.3008 81.5 84.7008 81.3C84.7008 81.2 84.7008 81 84.7008 80.9ZM188.301 81.6C188.001 81.3 187.601 81 187.301 80.7C187.201 80.6 187.101 80.6 187.001 80.7C186.901 80.8 186.901 80.9 187.001 81C187.301 81.3 187.701 81.6 188.001 81.9L188.101 82C188.201 82 188.201 82 188.301 81.9C188.501 81.8 188.401 81.6 188.301 81.6ZM86.9008 79.3C86.8008 79.2 86.7008 79.2 86.6008 79.2C86.2008 79.5 85.9008 79.7 85.5008 80C85.4008 80.1 85.4008 80.2 85.4008 80.3C85.4008 80.4 85.5008 80.4 85.6008 80.4H85.7008C86.1008 80.1 86.4008 79.9 86.8008 79.6C86.9008 79.6 86.9008 79.4 86.9008 79.3ZM186.301 79.8C185.901 79.5 185.601 79.2 185.201 79C185.101 78.9 185.001 78.9 184.901 79C184.801 79.1 184.801 79.2 184.901 79.3C185.301 79.6 185.601 79.9 186.001 80.1H186.101C186.201 80.1 186.201 80.1 186.301 80C186.401 80 186.401 79.9 186.301 79.8ZM89.1008 77.8C89.0008 77.7 88.9008 77.7 88.8008 77.7C88.4008 77.9 88.0008 78.2 87.7008 78.4C87.6008 78.5 87.6008 78.6 87.6008 78.7C87.6008 78.8 87.7008 78.8 87.8008 78.8H87.9008C88.3008 78.5 88.7008 78.3 89.0008 78.1C89.2008 78.1 89.2008 77.9 89.1008 77.8ZM184.101 78.1C183.701 77.8 183.401 77.6 183.001 77.3C182.901 77.2 182.801 77.3 182.701 77.4C182.601 77.5 182.701 77.6 182.801 77.7C183.201 78 183.501 78.2 183.901 78.5H184.001C184.101 78.5 184.101 78.5 184.201 78.4C184.201 78.4 184.201 78.2 184.101 78.1ZM91.5008 76.4C91.4008 76.3 91.3008 76.3 91.2008 76.3C90.8008 76.5 90.4008 76.8 90.0008 77C89.9008 77.1 89.9008 77.2 89.9008 77.3C89.9008 77.4 90.0008 77.4 90.1008 77.4H90.2008C90.6008 77.2 91.0008 76.9 91.4008 76.7C91.5008 76.7 91.5008 76.5 91.5008 76.4ZM181.901 76.6C181.501 76.3 181.101 76.1 180.801 75.8C180.701 75.7 180.601 75.8 180.501 75.9C180.401 76 180.501 76.1 180.601 76.2C181.001 76.4 181.401 76.7 181.701 77H181.801C181.901 77 181.901 77 182.001 76.9C182.001 76.8 182.001 76.6 181.901 76.6ZM93.8008 75.1C93.7008 75 93.6008 75 93.5008 75C93.1008 75.2 92.7008 75.4 92.3008 75.7C92.2008 75.8 92.2008 75.9 92.2008 76C92.2008 76.1 92.3008 76.1 92.4008 76.1H92.5008C92.9008 75.9 93.3008 75.7 93.7008 75.4C93.8008 75.3 93.9008 75.2 93.8008 75.1ZM179.601 75.1C179.201 74.9 178.801 74.6 178.401 74.4C178.301 74.3 178.201 74.4 178.101 74.5C178.001 74.6 178.101 74.7 178.201 74.8C178.601 75 179.001 75.3 179.401 75.5H179.501C179.601 75.5 179.601 75.5 179.701 75.4C179.701 75.3 179.701 75.1 179.601 75.1ZM96.2008 73.8C96.1008 73.7 96.0008 73.6 95.9008 73.7C95.5008 73.9 95.1008 74.1 94.7008 74.3C94.6008 74.4 94.5008 74.5 94.6008 74.6C94.6008 74.7 94.7008 74.7 94.8008 74.7H94.9008C95.3008 74.5 95.7008 74.3 96.1008 74.1C96.2008 74 96.3008 73.9 96.2008 73.8ZM177.301 73.7C176.901 73.5 176.501 73.2 176.101 73C176.001 72.9 175.901 73 175.801 73.1C175.701 73.2 175.801 73.3 175.901 73.4C176.301 73.6 176.701 73.8 177.101 74.1H177.201C177.301 74.1 177.401 74.1 177.401 74C177.401 73.9 177.401 73.7 177.301 73.7ZM98.7008 72.6C98.6008 72.5 98.5008 72.4 98.4008 72.5C98.0008 72.7 97.6008 72.9 97.2008 73.1C97.0008 73.2 97.0008 73.3 97.0008 73.4C97.0008 73.5 97.1008 73.5 97.2008 73.5H97.3008C97.7008 73.3 98.1008 73.1 98.5008 72.9C98.7008 72.9 98.7008 72.7 98.7008 72.6ZM174.901 72.3C174.501 72.1 174.101 71.9 173.701 71.7C173.601 71.6 173.501 71.7 173.401 71.8C173.301 71.9 173.401 72 173.501 72.1C173.901 72.3 174.301 72.5 174.701 72.7H174.801C174.901 72.7 175.001 72.7 175.001 72.6C175.001 72.5 175.001 72.4 174.901 72.3ZM101.201 71.5C101.201 71.4 101.001 71.3 100.901 71.4C100.501 71.6 100.101 71.8 99.7008 71.9C99.6008 72 99.5008 72.1 99.6008 72.2C99.6008 72.3 99.7008 72.3 99.8008 72.3H99.9008C100.301 72.1 100.701 71.9 101.101 71.8C101.201 71.8 101.201 71.6 101.201 71.5ZM172.401 71.1C172.001 70.9 171.601 70.7 171.201 70.5C171.101 70.4 171.001 70.5 170.901 70.6C170.801 70.7 170.901 70.8 171.001 70.9C171.401 71.1 171.801 71.3 172.201 71.5H172.301C172.401 71.5 172.501 71.5 172.501 71.4C172.601 71.3 172.601 71.2 172.401 71.1ZM103.701 70.5C103.701 70.4 103.501 70.3 103.401 70.4C103.001 70.6 102.601 70.7 102.101 70.9C102.001 70.9 101.901 71.1 102.001 71.2C102.001 71.3 102.101 71.3 102.201 71.3H102.301C102.701 71.1 103.101 71 103.601 70.8C103.701 70.8 103.701 70.6 103.701 70.5ZM170.001 70C169.601 69.8 169.201 69.6 168.701 69.5C168.601 69.5 168.501 69.5 168.401 69.6C168.401 69.7 168.401 69.8 168.501 69.9C168.901 70.1 169.301 70.2 169.701 70.4H169.801C169.901 70.4 170.001 70.3 170.001 70.3C170.101 70.2 170.101 70 170.001 70ZM106.201 69.6C106.201 69.5 106.001 69.4 105.901 69.5C105.501 69.6 105.001 69.8 104.601 70C104.501 70 104.401 70.2 104.501 70.3C104.501 70.4 104.601 70.4 104.701 70.4H104.801C105.201 70.2 105.701 70.1 106.101 69.9C106.201 69.8 106.301 69.7 106.201 69.6ZM108.801 68.7C108.801 68.6 108.601 68.5 108.501 68.6C108.101 68.7 107.601 68.9 107.201 69C107.101 69 107.001 69.2 107.101 69.3C107.101 69.4 107.201 69.5 107.301 69.5C107.301 69.5 107.301 69.5 107.401 69.5C107.801 69.4 108.301 69.2 108.701 69.1C108.801 69 108.901 68.9 108.801 68.7ZM167.401 69C167.001 68.8 166.501 68.7 166.101 68.5C166.001 68.5 165.901 68.5 165.801 68.6C165.801 68.7 165.801 68.8 165.901 68.9C166.301 69.1 166.801 69.2 167.201 69.4H167.301C167.401 69.4 167.501 69.3 167.501 69.3C167.601 69.1 167.501 69 167.401 69ZM111.401 68C111.401 67.9 111.201 67.8 111.101 67.8C110.701 67.9 110.201 68 109.801 68.2C109.701 68.2 109.601 68.4 109.601 68.5C109.601 68.6 109.701 68.7 109.801 68.7C109.801 68.7 109.801 68.7 109.901 68.7C110.301 68.6 110.801 68.4 111.201 68.3C111.401 68.2 111.501 68.1 111.401 68ZM164.901 68C164.501 67.9 164.001 67.7 163.601 67.6C163.501 67.6 163.401 67.6 163.301 67.7C163.301 67.8 163.301 67.9 163.401 68C163.801 68.1 164.301 68.3 164.701 68.4C164.701 68.4 164.701 68.4 164.801 68.4C164.901 68.4 165.001 68.3 165.001 68.2C165.001 68.2 165.001 68.1 164.901 68ZM114.101 67.3C114.101 67.2 113.901 67.1 113.801 67.1C113.401 67.2 112.901 67.3 112.501 67.4C112.401 67.4 112.301 67.6 112.301 67.7C112.301 67.8 112.401 67.9 112.501 67.9C112.501 67.9 112.501 67.9 112.601 67.9C113.001 67.8 113.501 67.7 113.901 67.6C114.001 67.5 114.101 67.4 114.101 67.3ZM162.301 67.2C161.901 67.1 161.401 66.9 161.001 66.8C160.901 66.8 160.801 66.8 160.701 67C160.701 67.1 160.701 67.2 160.901 67.3C161.301 67.4 161.801 67.5 162.201 67.7C162.201 67.7 162.201 67.7 162.301 67.7C162.401 67.7 162.501 67.6 162.501 67.5C162.501 67.4 162.401 67.2 162.301 67.2ZM116.701 66.7C116.701 66.6 116.601 66.5 116.401 66.5C116.201 66.5 116.001 66.6 115.801 66.6C115.601 66.7 115.301 66.7 115.101 66.8C115.001 66.8 114.901 66.9 114.901 67.1C114.901 67.2 115.001 67.3 115.101 67.3C115.101 67.3 115.101 67.3 115.201 67.3C115.401 67.2 115.701 67.2 115.901 67.1C116.101 67.1 116.301 67 116.501 67C116.701 66.9 116.701 66.8 116.701 66.7ZM159.601 66.5C159.201 66.4 158.701 66.3 158.301 66.2C158.201 66.2 158.101 66.2 158.001 66.4C158.001 66.5 158.001 66.6 158.201 66.7C158.601 66.8 159.101 66.9 159.501 67C159.501 67 159.501 67 159.601 67C159.701 67 159.801 66.9 159.801 66.8C159.801 66.6 159.801 66.5 159.601 66.5ZM119.401 66.2C119.401 66.1 119.301 66 119.101 66C118.701 66.1 118.201 66.2 117.801 66.3C117.701 66.3 117.601 66.4 117.601 66.6C117.601 66.7 117.701 66.8 117.801 66.8C118.201 66.7 118.701 66.6 119.101 66.5C119.301 66.4 119.401 66.3 119.401 66.2ZM157.001 65.8C156.601 65.7 156.101 65.6 155.701 65.5C155.601 65.5 155.501 65.6 155.401 65.7C155.401 65.8 155.501 65.9 155.601 66C156.001 66.1 156.501 66.2 156.901 66.3C157.001 66.3 157.101 66.2 157.101 66.1C157.201 66 157.101 65.9 157.001 65.8ZM122.101 65.7C122.101 65.6 122.001 65.5 121.801 65.5C121.401 65.6 120.901 65.7 120.501 65.7C120.401 65.7 120.301 65.8 120.301 66C120.301 66.1 120.401 66.2 120.501 66.2C120.901 66.1 121.401 66 121.801 66C122.001 65.9 122.101 65.8 122.101 65.7ZM154.301 65.3C153.901 65.2 153.401 65.1 153.001 65.1C152.901 65.1 152.801 65.2 152.701 65.3C152.701 65.4 152.801 65.5 152.901 65.6C153.301 65.7 153.801 65.8 154.201 65.8C154.301 65.8 154.401 65.7 154.401 65.6C154.501 65.4 154.401 65.3 154.301 65.3ZM124.701 65.3C124.701 65.2 124.601 65.1 124.401 65.1C124.001 65.2 123.501 65.2 123.101 65.3C123.001 65.3 122.901 65.4 122.901 65.6C122.901 65.7 123.001 65.8 123.101 65.8C123.501 65.7 124.001 65.7 124.401 65.6C124.701 65.5 124.801 65.4 124.701 65.3ZM127.401 64.9C127.401 64.8 127.301 64.7 127.101 64.7C126.701 64.8 126.201 64.8 125.701 64.9C125.601 64.9 125.501 65 125.501 65.2C125.501 65.3 125.601 65.4 125.701 65.4C126.101 65.3 126.601 65.3 127.001 65.2C127.401 65.2 127.401 65 127.401 64.9ZM151.601 64.9C151.201 64.8 150.701 64.8 150.201 64.7C150.101 64.7 150.001 64.8 149.901 64.9C149.901 65 150.001 65.1 150.101 65.2C150.501 65.3 151.001 65.3 151.401 65.4C151.501 65.4 151.601 65.3 151.601 65.2C151.801 65 151.801 64.9 151.601 64.9ZM129.901 64.4C129.501 64.4 129.001 64.5 128.501 64.5C128.401 64.5 128.301 64.6 128.301 64.7C128.301 64.8 128.401 64.9 128.501 64.9C128.901 64.9 129.401 64.8 129.801 64.8C129.901 64.8 130.001 64.7 130.001 64.6C130.101 64.5 130.001 64.4 129.901 64.4ZM148.901 64.5C148.401 64.4 148.001 64.4 147.501 64.4C147.401 64.4 147.301 64.5 147.301 64.6C147.301 64.7 147.401 64.8 147.501 64.8C147.901 64.8 148.401 64.9 148.801 64.9C148.901 64.9 149.001 64.8 149.001 64.7C149.101 64.6 149.101 64.5 148.901 64.5ZM132.601 64.2C132.201 64.2 131.701 64.3 131.201 64.3C131.101 64.3 131.001 64.4 131.001 64.5C131.001 64.6 131.101 64.7 131.201 64.7C131.701 64.7 132.101 64.6 132.601 64.6C132.701 64.6 132.801 64.5 132.801 64.4C132.801 64.3 132.701 64.2 132.601 64.2ZM146.201 64.3C145.801 64.3 145.301 64.2 144.801 64.2C144.701 64.2 144.601 64.3 144.601 64.4C144.601 64.5 144.701 64.6 144.801 64.6C145.301 64.6 145.701 64.7 146.201 64.7C146.301 64.7 146.401 64.6 146.401 64.5C146.401 64.4 146.301 64.3 146.201 64.3ZM135.301 64.1C134.901 64.1 134.401 64.1 133.901 64.2C133.801 64.2 133.701 64.3 133.701 64.4C133.701 64.5 133.801 64.6 133.901 64.6C134.401 64.6 134.801 64.6 135.301 64.5C135.401 64.5 135.501 64.4 135.501 64.3C135.601 64.2 135.401 64.1 135.301 64.1ZM143.501 64.1C143.001 64.1 142.601 64.1 142.101 64C142.001 64 141.901 64.1 141.901 64.2C141.901 64.3 142.001 64.4 142.101 64.4C142.601 64.4 143.001 64.4 143.501 64.5C143.601 64.5 143.701 64.4 143.701 64.3C143.701 64.2 143.601 64.1 143.501 64.1ZM138.101 64C137.601 64 137.201 64 136.701 64C136.601 64 136.501 64.1 136.501 64.2C136.501 64.3 136.601 64.4 136.701 64.4C137.201 64.4 137.601 64.4 138.101 64.4C138.201 64.4 138.301 64.3 138.301 64.2C138.301 64.1 138.201 64 138.101 64ZM140.801 64C140.301 64 139.901 64 139.401 64C139.301 64 139.201 64.1 139.201 64.2C139.201 64.3 139.301 64.4 139.401 64.4C139.901 64.4 140.301 64.4 140.801 64.4C140.901 64.4 141.001 64.3 141.001 64.2C141.001 64.1 140.901 64 140.801 64Z" fill="#FF9136"/>
<path d="M154.402 148.7C154.402 148.7 162.902 146.6 165.302 144C167.702 141.4 169.802 144.3 168.202 146C166.702 147.6 154.402 148.7 154.402 148.7Z" fill="#EDF4FF"/>
<path d="M188.201 143H176.301C176.001 143 175.801 142.8 175.801 142.5C175.801 142.2 176.001 142 176.301 142H188.201C188.501 142 188.701 142.2 188.701 142.5C188.701 142.7 188.501 143 188.201 143Z" fill="#EDF4FF"/>
<path d="M182.503 140.6H176.003C175.803 140.6 175.703 140.5 175.703 140.3C175.703 140.1 175.803 140 176.003 140H182.503C182.703 140 182.803 140.1 182.803 140.3C182.803 140.5 182.703 140.6 182.503 140.6Z" fill="#EDF4FF"/>
<path d="M59.6031 120.6C55.8031 127.4 50.0031 134.6 50.0031 134.6C50.0031 134.6 37.2031 118.8 37.2031 111.8C37.2031 107.8 39.0031 104.2 41.9031 101.8C42.4031 104.1 43.2031 106.8 44.4031 109.3C44.1031 110 43.9031 110.8 43.9031 111.6C43.9031 114.9 46.6031 117.6 49.9031 117.6C50.3031 117.6 50.8031 117.5 51.2031 117.4C53.5031 118.9 56.2031 120.1 59.6031 120.6Z" fill="#ED7D2B"/>
</g>
<defs>
<clipPath id="clip0_1_15965">
<rect width="235.2" height="145.7" fill="white"/>
</clipPath>
</defs>
</svg>
