<svg width="234" height="150" viewBox="0 0 234 150" fill="none" xmlns="http://www.w3.org/2000/svg">
<path d="M233.157 81.5338C233.157 82.3338 233.157 83.0338 233.157 83.8338C233.157 85.2338 233.057 86.6338 233.057 88.0338C231.857 117.334 222.657 144.734 222.657 144.734H168.557H163.957H155.457H141.857H130.257H106.857H101.757H89.9565H73.2565H56.5565H4.65651C-5.74349 125.034 3.55651 117.934 10.4565 107.834C14.1565 102.434 17.1565 96.2338 16.0565 86.7338C15.6565 83.4338 14.7565 79.7338 13.2565 75.6338C12.5565 73.7338 12.3565 71.8338 12.0565 69.9338C11.9565 69.1338 11.7565 68.2338 11.6565 67.4338C11.6565 67.2338 11.5565 67.0338 11.5565 66.7338C6.15651 24.1338 28.4565 3.93378 63.2565 0.533776C90.5565 -2.16622 101.857 5.93378 109.057 12.3338C132.757 33.4338 134.557 13.5338 185.357 17.9338C212.857 20.3338 225.557 36.9338 230.457 57.3338C230.757 58.7338 231.057 60.1338 231.357 61.5338C231.457 62.3338 231.657 63.0338 231.757 63.8338C231.957 65.2338 232.157 66.6338 232.357 68.0338C232.457 68.8338 232.557 69.6338 232.557 70.4338C232.657 71.8338 232.757 73.2338 232.857 74.6338C232.857 75.4338 232.957 76.3338 232.957 77.1338C233.157 78.7338 233.157 80.1338 233.157 81.5338Z" fill="#EBF3FA"/>
<path d="M90.6301 23.0377C90.329 20.1271 84.5076 14.7074 76.4781 13.1015C68.4486 11.4957 59.8169 11.4957 56.5047 14.1052C55.3003 15.1088 54.4973 17.3169 53.9955 19.6253C54.5977 18.4209 55.7018 15.9118 56.9062 14.9081C62.8279 9.99023 64.4338 12.9008 65.4375 17.2165C66.4412 21.5322 65.1364 33.2749 65.1364 33.2749C65.1364 33.2749 51.687 37.1892 53.594 30.3643C53.594 30.3643 53.1926 29.1599 52.9918 27.3534C52.9918 27.8552 52.9918 28.1563 52.9918 28.1563L52.3896 32.3716L46.9697 33.3753L28 32.7731C28 32.7731 37.6354 38.795 43.1557 38.795C48.5756 38.795 52.7911 35.0815 52.7911 35.0815L87.9201 37.7913C87.8198 37.7913 90.9312 25.9483 90.6301 23.0377Z" fill="#FFBE2E"/>
<path d="M49.6796 33.075L28 32.7739C28 32.7739 34.0221 38.4947 42.0516 38.4947C50.0811 38.4947 52.7911 35.1827 52.7911 35.1827L87.9201 37.8925C87.9201 37.8925 92.5371 29.1608 90.1283 21.4327C87.8198 13.7046 66.7423 11.1955 60.8206 12.6006C53.594 14.3068 53.0922 20.5294 53.0922 23.8414C53.0922 27.1535 52.3896 31.1681 52.3896 31.1681" stroke="#3E3B3B" stroke-width="0.8351" stroke-miterlimit="10" stroke-linecap="round" stroke-linejoin="round"/>
<path opacity="0.3" d="M69.954 36.587L55.802 36.7877C55.802 36.7877 51.7872 42.8096 52.7909 44.5159C53.7946 46.2221 55.802 47.5268 55.802 47.5268C55.802 47.5268 54.7983 55.4556 56.0027 58.2658C57.2071 60.9757 67.244 59.7713 67.244 59.7713C67.244 59.7713 64.7348 61.4775 60.0175 61.9793C55.3001 62.4812 53.7946 61.4775 53.092 58.7676C52.3894 56.0578 52.0883 48.129 52.0883 48.129L48.6758 44.5159L51.185 37.7914L53.895 35.0815L69.954 36.587Z" fill="#FFBE2E"/>
<path d="M51.3854 36.0852C51.3854 36.0852 47.6718 44.817 49.378 46.1217C51.0843 47.4264 52.088 48.129 52.088 48.129C52.088 48.129 53.0917 59.8717 54.798 61.879C56.5042 63.8863 67.1433 60.5743 67.1433 60.5743C67.1433 60.5743 88.8229 82.2531 89.5255 78.2385C90.2281 74.2239 87.5182 59.1691 87.5182 57.5633C87.5182 55.8571 82.8008 51.5414 82.8008 51.5414" stroke="#3E3B3B" stroke-width="0.8351" stroke-miterlimit="10" stroke-linecap="round" stroke-linejoin="round"/>
<path d="M70.7578 36.3862C70.7578 36.3862 71.4604 39.3972 73.4678 39.6983C75.4751 39.9994 77.1814 36.6873 77.1814 36.6873L70.7578 36.3862Z" fill="#3E3B3B"/>
<path d="M87.8191 37.7914C87.8191 37.7914 89.8265 43.8133 87.518 47.1253C85.2095 50.4374 84.2058 50.4374 84.2058 50.4374C82.1984 53.7494 76.8789 46.4228 76.8789 46.4228C76.8789 46.4228 80.8937 46.222 81.8973 43.6126C82.901 40.9027 81.4959 37.0889 81.4959 37.0889L87.8191 37.7914Z" fill="#3E3B3B"/>
<path d="M81.7992 37.7915C81.7992 37.7915 82.8029 42.5086 81.7992 44.817C80.7956 47.1254 76.7808 46.5232 76.7808 46.5232L74.7734 51.5415" stroke="#3E3B3B" stroke-width="0.8351" stroke-miterlimit="10" stroke-linecap="round" stroke-linejoin="round"/>
<path d="M54.3984 50.0359C54.3984 50.0359 58.3128 50.8388 60.7217 46.4227" stroke="#3E3B3B" stroke-width="0.6263" stroke-miterlimit="10" stroke-linecap="round" stroke-linejoin="round"/>
<path opacity="0.3" d="M91.9336 76.1308L99.1602 76.6326L98.9594 73.9228C98.859 73.9228 92.4354 73.421 91.9336 76.1308Z" fill="#FFBE2E"/>
<path opacity="0.3" d="M71.9631 133.038L86.6169 123.302L67.848 130.528C67.848 130.528 66.1417 92.189 67.4465 89.1781C68.7513 86.1672 76.7808 80.6471 76.7808 80.6471C76.7808 80.6471 76.279 77.5358 78.8885 76.4317C81.4981 75.2274 84.4088 76.4317 84.4088 76.4317L86.3158 77.1343C84.2081 75.9299 80.6952 73.5212 75.3756 68.5029H75.2753L76.5801 69.7073L75.9778 74.7256L70.3572 79.3423C69.0524 80.6471 64.2347 86.7694 64.2347 86.7694L63.9336 137.654L71.5616 132.736C71.7624 132.636 71.8627 132.736 71.9631 133.038Z" fill="#FFBE2E"/>
<path d="M76.0764 74.7256C76.0764 74.7256 64.3333 84.2603 64.3333 86.7694C64.3333 89.2785 63.5303 136.45 64.0322 137.654C64.6344 138.758 86.6151 123.403 86.6151 123.403L84.407 103.028" stroke="#3E3B3B" stroke-width="0.8351" stroke-miterlimit="10" stroke-linecap="round" stroke-linejoin="round"/>
<path d="M78.2852 97.9099L102.073 116.879" stroke="#3E3B3B" stroke-width="0.8351" stroke-miterlimit="10" stroke-linecap="round" stroke-linejoin="round"/>
<path opacity="0.3" d="M178.34 73.2341L166.218 64.4199L124.847 41.6481L109.391 49.9565C109.391 49.9565 121.176 47.2752 124.018 48.2698C126.671 49.198 165.092 76.1476 168.673 78.6768L178.34 73.2341Z" fill="#FFBE2E"/>
<path d="M93.2106 53.6515C93.2106 53.6515 122.132 40.5919 124.785 41.5202C127.437 42.4484 167.871 66.3807 170.926 67.9816C173.853 69.644 178.794 72.5426 178.794 72.5426C178.794 72.5426 165.56 80.8841 160.947 83.7356C156.428 86.6203 153.989 88.425 153.989 88.425L124.165 59.699" stroke="#3E3B3B" stroke-width="0.8351" stroke-miterlimit="10" stroke-linecap="round" stroke-linejoin="round"/>
<path d="M131.98 54.5522L141.415 79.7438" stroke="#3E3B3B" stroke-width="0.8351" stroke-miterlimit="10" stroke-linecap="round" stroke-linejoin="round"/>
<path d="M102.875 92.2895L100.667 94.4975L89.7266 80.5468" stroke="#3E3B3B" stroke-width="0.8351" stroke-miterlimit="10" stroke-linecap="round" stroke-linejoin="round"/>
<path d="M121.242 55.556L132.283 53.649L122.948 60.2731" stroke="#3E3B3B" stroke-width="0.4175" stroke-miterlimit="10" stroke-linecap="round" stroke-linejoin="round"/>
<path d="M152.659 73.0195L113.516 99.7166L122.047 135.045L151.154 144.78L189.997 117.18L185.279 81.6509L152.659 73.0195Z" fill="#FFBE2E"/>
<path d="M113.715 99.7166L116.224 110.757" stroke="#3E3B3B" stroke-width="0.8351" stroke-miterlimit="10" stroke-linecap="round" stroke-linejoin="round"/>
<path d="M118.23 118.886L122.145 134.744L151.553 145.082L147.839 118.886" stroke="#3E3B3B" stroke-width="0.8351" stroke-miterlimit="10" stroke-linecap="round" stroke-linejoin="round"/>
<path d="M147.638 116.578L146.434 109.854" stroke="#3E3B3B" stroke-width="0.8351" stroke-miterlimit="10" stroke-linecap="round" stroke-linejoin="round"/>
<path d="M182.266 123.302L190.094 117.481L186.18 84.16" stroke="#3E3B3B" stroke-width="0.8351" stroke-miterlimit="10" stroke-linecap="round" stroke-linejoin="round"/>
<path d="M150.348 107.947L171.626 91.9885" stroke="#3E3B3B" stroke-width="0.8351" stroke-miterlimit="10" stroke-linecap="round" stroke-linejoin="round"/>
<path d="M170.523 77.7367L152.858 73.0195L114.316 99.3151" stroke="#3E3B3B" stroke-width="0.8351" stroke-miterlimit="10" stroke-linecap="round" stroke-linejoin="round"/>
<path d="M114.617 100.419L120.539 102.125" stroke="#3E3B3B" stroke-width="0.8351" stroke-miterlimit="10" stroke-linecap="round" stroke-linejoin="round"/>
<path d="M130.574 104.333L146.432 108.749" stroke="#3E3B3B" stroke-width="0.8351" stroke-miterlimit="10" stroke-linecap="round" stroke-linejoin="round"/>
<path d="M167.711 77.2349L143.723 95.6016" stroke="#3E3B3B" stroke-width="0.4175" stroke-miterlimit="10" stroke-linecap="round" stroke-linejoin="round"/>
<path d="M141.718 97.3079L133.086 104.032" stroke="#3E3B3B" stroke-width="0.4175" stroke-miterlimit="10" stroke-linecap="round" stroke-linejoin="round"/>
<path d="M84.4083 102.928L70.457 100.82" stroke="#3E3B3B" stroke-width="0.4175" stroke-miterlimit="10" stroke-linecap="round" stroke-linejoin="round"/>
<path d="M76.6803 69.7074C76.6803 69.7074 74.974 73.3205 76.3792 77.5358C77.7844 81.7512 82.5017 88.9774 82.5017 88.9774L88.6242 80.346" stroke="#3E3B3B" stroke-width="0.8351" stroke-miterlimit="10" stroke-linecap="round" stroke-linejoin="round"/>
<path d="M90.6313 76.9336C90.6313 76.9336 93.7427 74.1234 96.4527 74.1234C99.1626 74.1234 101.17 74.1234 101.17 74.1234C101.17 74.1234 100.367 63.1836 96.4527 57.3625C92.5383 51.5413 87.2188 54.5523 87.2188 54.5523" stroke="#3E3B3B" stroke-width="0.8351" stroke-miterlimit="10" stroke-linecap="round" stroke-linejoin="round"/>
<path d="M85.6101 125.008L119.133 109.352L121.944 99.6162L133.386 97.1071C133.386 97.1071 135.594 94.8991 135.293 97.1071C134.992 99.3151 131.98 100.218 130.776 102.426C129.672 104.634 129.672 109.151 128.267 111.058C126.862 112.965 121.843 115.273 121.843 115.273C121.843 115.273 84.1046 146.888 81.2942 148.494C78.4839 150.2 72.8633 134.242 72.8633 134.242" fill="white"/>
<path opacity="0.3" d="M71.9609 133.038C73.2657 135.145 78.5853 143.676 78.8864 147.089C79.2879 150.903 82.7004 147.089 82.7004 147.089L113.413 121.496C113.413 121.496 83.1019 140.665 80.5927 139.863C78.0834 139.06 77.5816 132.636 77.5816 132.636L86.6148 123.302L71.9609 133.038Z" fill="#FFBE2E"/>
<path d="M85.6101 125.008L119.133 109.352L121.944 99.6162L133.386 97.1071C133.386 97.1071 135.594 94.8991 135.293 97.1071C134.992 99.3151 131.98 100.218 130.776 102.426C129.672 104.634 129.672 109.151 128.267 111.058C126.862 112.965 121.843 115.273 121.843 115.273C121.843 115.273 84.1046 146.888 81.2942 148.494C78.4839 150.2 72.8633 134.242 72.8633 134.242" stroke="#3E3B3B" stroke-width="0.8351" stroke-miterlimit="10" stroke-linecap="round" stroke-linejoin="round"/>
<path d="M133.386 97.0067C133.386 97.0067 127.866 100.218 128.468 101.423" stroke="#3E3B3B" stroke-width="0.4175" stroke-miterlimit="10" stroke-linecap="round" stroke-linejoin="round"/>
<path d="M128.971 98.1107L124.855 100.319" stroke="#3E3B3B" stroke-width="0.4175" stroke-miterlimit="10" stroke-linecap="round" stroke-linejoin="round"/>
</svg>
