<svg width="234" height="149" viewBox="0 0 234 149" fill="none" xmlns="http://www.w3.org/2000/svg">
<path d="M233.157 81.5338C233.157 82.3338 233.157 83.0338 233.157 83.8338C233.157 85.2338 233.057 86.6338 233.057 88.0338C231.857 117.334 222.657 144.734 222.657 144.734H168.557H163.957H155.457H141.857H130.257H106.857H101.757H89.9565H73.2565H56.5565H4.65651C-5.74349 125.034 3.55651 117.934 10.4565 107.834C14.1565 102.434 17.1565 96.2338 16.0565 86.7338C15.6565 83.4338 14.7565 79.7338 13.2565 75.6338C12.5565 73.7338 12.3565 71.8338 12.0565 69.9338C11.9565 69.1338 11.7565 68.2338 11.6565 67.4338C11.6565 67.2338 11.5565 67.0338 11.5565 66.7338C6.15651 24.1338 28.4565 3.93378 63.2565 0.533776C90.5565 -2.16622 101.857 5.93378 109.057 12.3338C132.757 33.4338 134.557 13.5338 185.357 17.9338C212.857 20.3338 225.557 36.9338 230.457 57.3338C230.757 58.7338 231.057 60.1338 231.357 61.5338C231.457 62.3338 231.657 63.0338 231.757 63.8338C231.957 65.2338 232.157 66.6338 232.357 68.0338C232.457 68.8338 232.557 69.6338 232.557 70.4338C232.657 71.8338 232.757 73.2338 232.857 74.6338C232.857 75.4338 232.957 76.3338 232.957 77.1338C233.157 78.7338 233.157 80.1338 233.157 81.5338Z" fill="#EBF3FA"/>
<path d="M118.417 64.6951C117.639 67.1867 119.495 69.6951 122.138 69.6483C123.737 69.6156 125.158 68.5491 125.635 67.0232C126.413 64.5316 124.557 62.0232 121.914 62.07C120.315 62.1027 118.894 63.1692 118.417 64.6951Z" fill="#00424C"/>
<path d="M120.735 65.5457L121.688 67.08L122.626 65.522C123.827 63.4811 134.19 45.5365 126.355 39.998C124.048 38.3687 121.629 38.4474 119.753 40.1972C115.4 44.2618 114.906 55.9665 120.735 65.5457ZM121.249 41.8086C122.15 40.9611 123.184 40.7829 124.31 41.3334C124.583 41.4699 124.825 41.6019 125.121 41.8067C129.88 45.1835 124.898 56.8677 121.713 62.7899C117.169 54.0116 118.284 44.5745 121.249 41.8086Z" fill="#00424C"/>
<path d="M121.974 64.6161L123.682 65.1845C125.236 65.6984 126.84 66.0892 128.371 66.307C136.218 67.4234 143.574 64.892 145.809 61.079C147.006 59.07 146.599 56.8978 144.693 55.1955C138.316 49.474 124.797 61.9277 123.29 63.3721L121.974 64.6161ZM126.206 63.6895C130.031 60.3629 136.957 55.3634 141.231 55.9715C141.997 56.0804 142.639 56.3669 143.218 56.8722C144.344 57.8781 144.586 58.9209 143.94 60.0325C142.179 63.0346 134.44 65.7392 126.206 63.6895Z" fill="#00424C"/>
<path d="M54.7292 118.704L165.087 134.406C169.679 135.059 173.942 131.86 174.595 127.269L180.76 83.9415C181.413 79.3504 178.207 75.1212 173.646 74.4722L63.289 58.7706C58.6961 58.1171 54.4656 61.3209 53.8169 65.8801L47.6522 109.208C46.9671 113.794 50.1363 118.051 54.7292 118.704Z" fill="#FBD589"/>
<path d="M63.2576 58.7662L102.935 64.4115L94.4072 124.35L54.7296 118.704C50.1367 118.051 46.9676 113.794 47.6162 109.235L53.7854 65.8756C54.4341 61.3165 58.6647 58.1127 63.2576 58.7662Z" fill="#FFBE2E"/>
<path d="M138.625 69.4896L141.751 69.9344C155.965 91.4733 140.836 123.475 137.242 130.444L134.786 130.095C137.238 125.435 154.511 90.7135 138.725 69.6991C138.703 69.6308 138.68 69.5625 138.625 69.4896Z" fill="#00424C"/>
<path d="M71.5739 120.841C71.5648 120.905 71.5831 121.005 71.574 121.069L69.2457 120.737C67.2784 85.6205 77.3731 68.6462 83.5786 61.6249L86.4491 62.0333C80.9035 67.8474 69.469 84.4033 71.5739 120.841Z" fill="#00424C"/>
</svg>
