<svg width="236" height="146" viewBox="0 0 236 146" fill="none" xmlns="http://www.w3.org/2000/svg">
<g clip-path="url(#clip0_1_15556)">
<path d="M233.199 82.4C233.199 83.2 233.199 83.9 233.199 84.7C233.199 86.1 233.099 87.5 233.099 88.9C231.899 118.2 222.699 145.6 222.699 145.6H168.599H163.999H155.499H141.899H130.299H106.899H101.799H89.9995H73.2995H56.5995H4.69948C-5.70052 125.9 3.59948 118.8 10.4995 108.7C14.1995 103.3 17.1995 97.1 16.0995 87.6C15.6995 84.3 14.7995 80.6 13.2995 76.5C12.5995 74.6 12.3995 72.7 12.0995 70.8C11.9995 70 11.7995 69.1 11.6995 68.3C11.6995 68.1 11.5995 67.9 11.5995 67.6C6.19948 25 28.4995 4.79999 63.2995 1.39999C90.5995 -1.30001 101.899 6.79999 109.099 13.2C132.799 34.3 134.599 14.4 185.399 18.8C212.899 21.2 225.599 37.8 230.499 58.2C230.799 59.6 231.099 61 231.399 62.4C231.499 63.2 231.699 63.9 231.799 64.7C231.999 66.1 232.199 67.5 232.399 68.9C232.499 69.7 232.599 70.5 232.599 71.3C232.699 72.7 232.799 74.1 232.899 75.5C232.899 76.3 232.999 77.2 232.999 78C233.199 79.6 233.199 81 233.199 82.4Z" fill="#EBF3FA"/>
<path d="M116.798 115.6L96.9984 81.2L64.3984 101.6L84.5984 136.7C84.9984 137.6 85.5984 138.4 86.1984 139.2C91.7984 145.7 102.898 145.4 110.998 138.5C118.598 132 120.998 122.2 116.798 115.6Z" fill="#FFBE2E"/>
<path d="M104.601 125.5C106.501 123.9 108.001 122.2 109.301 120.3C109.201 120.1 109.101 120 109.001 119.8L101.301 106.5C100.101 108.1 98.8008 109.6 97.2008 111C88.4008 118.5 76.3008 118.8 70.3008 111.8L79.8008 128.3C86.2008 133.2 96.7008 132.2 104.601 125.5Z" fill="white"/>
<path d="M97.8984 143C97.1984 142.1 96.4984 141.2 95.9984 140.2L72.9984 100L98.5984 84L96.9984 81.2L64.3984 101.6L84.5984 136.7C84.9984 137.6 85.5984 138.4 86.1984 139.2C89.1984 142.7 93.7984 144.2 98.5984 143.8C98.3984 143.5 98.1984 143.3 97.8984 143Z" fill="url(#paint0_linear_1_15556)"/>
<path d="M91.2083 103.989C99.3273 97.0833 101.384 86.1649 95.8018 79.6023C90.2198 73.0398 79.1128 73.3183 70.9938 80.2243C62.8747 87.1303 60.8181 98.0487 66.4002 104.611C71.9823 111.174 83.0892 110.895 91.2083 103.989Z" fill="#FFBE2E"/>
<path d="M90.199 102.8C82.799 109.1 72.799 109.3 67.699 103.4C62.699 97.5 64.499 87.6 71.899 81.3C79.299 75 89.299 74.8 94.399 80.7C99.499 86.7 97.599 96.6 90.199 102.8Z" fill="url(#paint1_linear_1_15556)"/>
<path d="M102 99.6999V96.4999H101.3C100.1 94.0999 97.6 92.4999 94.7 92.4999C91.8 92.4999 89.4 94.1999 88.2 96.6999H87.5V99.8999C87.5 103.9 90.8 107.1 94.9 107.1C98.8 107 102 103.7 102 99.6999Z" fill="#D1DDE8"/>
<path d="M94.6984 103.9C98.7301 103.9 101.998 100.632 101.998 96.5999C101.998 92.5682 98.7301 89.2999 94.6984 89.2999C90.6668 89.2999 87.3984 92.5682 87.3984 96.5999C87.3984 100.632 90.6668 103.9 94.6984 103.9Z" fill="#E7EDF4"/>
<path d="M87.5984 94.9999C87.4984 95.4999 87.3984 96.0999 87.3984 96.5999C87.3984 97.1999 87.4984 97.6999 87.5984 98.1999L101.798 97.9999C101.898 97.4999 101.998 96.8999 101.998 96.3999C101.998 95.7999 101.898 95.2999 101.798 94.7999L87.5984 94.9999Z" fill="white"/>
<path d="M90.0995 84.9L87.1995 83.6L86.8995 84.3C84.1995 84.4 81.6995 86 80.5995 88.7C79.4995 91.3 79.9995 94.3 81.7995 96.3L81.2995 97L84.1995 98.3C87.8995 99.9 92.1995 98.2 93.7995 94.5C95.3995 90.8 93.6995 86.5 90.0995 84.9Z" fill="#D1DDE8"/>
<path d="M90.9002 93.2C89.3002 96.9 85.0002 98.6 81.3002 97C77.6002 95.4 75.9002 91.1 77.5002 87.4C79.1002 83.7 83.4002 82 87.1002 83.6C90.8002 85.3 92.5002 89.5 90.9002 93.2Z" fill="#E7EDF4"/>
<path d="M79.8984 96.2C80.2984 96.5 80.7984 96.8 81.2984 97C81.7984 97.2 82.2984 97.4 82.8984 97.5L88.4984 84.5C88.0984 84.2 87.5984 83.9 87.0984 83.7C86.5984 83.5 86.0984 83.3 85.4984 83.2L79.8984 96.2Z" fill="white"/>
<path d="M84.0969 105.5L83.3969 102.4L82.6969 102.6C80.9969 100.5 78.1969 99.5001 75.3969 100.1C72.5969 100.8 70.5969 103 69.9969 105.6L69.2969 105.8L69.9969 108.9C70.8969 112.8 74.8969 115.2 78.7969 114.3C82.5969 113.4 84.9969 109.5 84.0969 105.5Z" fill="#D1DDE8"/>
<path d="M77.6647 111.265C81.6258 110.513 84.2274 106.693 83.4755 102.732C82.7236 98.7704 78.9029 96.1689 74.9418 96.9208C70.9807 97.6727 68.3791 101.493 69.131 105.454C69.8829 109.416 73.7036 112.017 77.6647 111.265Z" fill="#E7EDF4"/>
<path d="M69 104.2C69 104.7 69.1 105.3 69.2 105.8C69.3 106.3 69.5 106.9 69.8 107.4L83.6 104.1C83.6 103.6 83.5 103 83.4 102.5C83.3 102 83.1 101.4 82.8 100.9L69 104.2Z" fill="white"/>
<path d="M97.0031 69.6999L96.3031 66.5999L95.6031 66.7999C93.9031 64.6999 91.1031 63.6999 88.3031 64.2999C85.5031 64.9999 83.5031 67.1999 82.9031 69.7999L82.2031 69.9999L82.9031 73.0999C83.8031 76.9999 87.8031 79.3999 91.7031 78.4999C95.6031 77.4999 98.0031 73.5999 97.0031 69.6999Z" fill="#D1DDE8"/>
<path d="M90.903 75.2999C87.003 76.1999 83.103 73.7999 82.103 69.8999C81.203 65.9999 83.603 62.0999 87.503 61.0999C91.403 60.1999 95.303 62.5999 96.303 66.4999C97.203 70.4999 94.803 74.3999 90.903 75.2999Z" fill="#E7EDF4"/>
<path d="M81.9023 68.3C81.9023 68.8 82.0023 69.4 82.1023 69.9C82.2023 70.4 82.4023 71 82.7023 71.5L96.5023 68.2C96.5023 67.7 96.4023 67.1 96.3023 66.6C96.2023 66 96.0023 65.5 95.7023 65L81.9023 68.3Z" fill="white"/>
<path d="M79.4016 44.4999L78.7016 41.3999L78.0016 41.5999C76.3016 39.4999 73.5016 38.4999 70.7016 39.0999C67.9016 39.7999 65.9016 41.9999 65.3016 44.5999L64.6016 44.7999L65.3016 47.8999C66.2016 51.7999 70.2016 54.1999 74.1016 53.2999C77.9016 52.2999 80.4016 48.3999 79.4016 44.4999Z" fill="#D1DDE8"/>
<path d="M73.3014 50.2C69.4014 51.1 65.5014 48.7 64.5014 44.8C63.6014 40.9 66.0014 37 69.9014 36C73.8014 35.1 77.7014 37.5 78.7014 41.4C79.6014 45.3 77.2014 49.2 73.3014 50.2Z" fill="#E7EDF4"/>
<path d="M64.3008 43.1C64.3008 43.6 64.4008 44.2001 64.5008 44.7001C64.6008 45.2001 64.8008 45.8 65.1008 46.3L78.9008 43C78.9008 42.5 78.8008 41.9001 78.7008 41.4001C78.6008 40.9001 78.4008 40.3 78.1008 39.8L64.3008 43.1Z" fill="white"/>
<path d="M67.5 62.0001L64.5 58.8001L63.7 59.7001C56.3 56.9001 46.7 60.5001 40.9 68.8001C36.3 75.4001 35.3 83.1001 37.6 89.1001L36.8 90.0001L41.3 94.5001C41.7 94.9001 42.2 95.3001 42.7 95.7001C50.3 101.1 61.9 97.7001 68.6 88.2001C74.9 79.1001 74.6 69.3001 67.5 62.0001Z" fill="#D1DDE8"/>
<path d="M49.5023 98.1C48.9023 98 48.3023 98 47.7023 97.8L36.7023 85.8L34.4023 83.3L35.2023 82.5L36.4023 83.8L49.5023 98.1Z" fill="#E7EDF4"/>
<path d="M54.0016 98C53.6016 98.1 53.1016 98.1 52.7016 98.2L39.1016 83.3L39.9016 82.5L54.0016 98Z" fill="#E7EDF4"/>
<path d="M57.7031 96.9C57.3031 97.1 56.9031 97.2 56.5031 97.3L43.7031 83.3L44.5031 82.5L57.7031 96.9Z" fill="#E7EDF4"/>
<path d="M60.9023 95.4C60.6023 95.6 60.2023 95.8 59.9023 96L48.4023 83.3L49.2023 82.5L60.9023 95.4Z" fill="#E7EDF4"/>
<path d="M63.7 93.4C63.4 93.6 63.1 93.9 62.8 94.1L53 83.3L53.8 82.5L63.7 93.4Z" fill="#E7EDF4"/>
<path d="M66.2016 91C65.9016 91.3 65.7016 91.5 65.4016 91.8L57.6016 83.3L58.4016 82.5L66.2016 91Z" fill="#E7EDF4"/>
<path d="M68.5008 88.3C68.3008 88.6 68.1008 88.9 67.8008 89.2L58.3008 78.7L59.1008 77.9L68.5008 88.3Z" fill="#E7EDF4"/>
<path d="M70.4008 85.1C70.2008 85.4 70.0008 85.8 69.8008 86.1L58.3008 73.4L59.1008 72.6L70.4008 85.1Z" fill="#E7EDF4"/>
<path d="M72.0008 81.5C71.9008 81.9 71.7008 82.3 71.6008 82.7L58.3008 68.2L59.1008 67.4L72.0008 81.5Z" fill="#E7EDF4"/>
<path d="M73.0008 77.3C72.9008 77.8 72.9008 78.2 72.8008 78.7L58.3008 62.9L59.1008 62.1L73.0008 77.3Z" fill="#E7EDF4"/>
<path d="M73.0031 73.8001L59.3031 58.8L58.2031 57.6L59.0031 56.8L61.0031 59L72.7031 71.9001C72.9031 72.5001 73.0031 73.2001 73.0031 73.8001Z" fill="#E7EDF4"/>
<path d="M64.4286 84.1294C71.0951 74.6388 70.3078 62.596 62.6701 57.231C55.0324 51.8661 43.4365 55.2106 36.77 64.7012C30.1035 74.1918 30.8908 86.2347 38.5285 91.5996C46.1662 96.9646 57.762 93.6201 64.4286 84.1294Z" fill="#E7EDF4"/>
<path d="M54.0017 57.4C56.6017 57.4 59.0017 58.1 61.0017 59.5C67.5017 64.1 68.1017 74.4 62.4017 82.6C58.6017 88 52.8017 91.3 47.2017 91.3C44.6017 91.3 42.2017 90.6 40.2017 89.2C33.7017 84.6 33.1017 74.3 38.8017 66.1C42.6017 60.8 48.4017 57.4 54.0017 57.4ZM54.0017 56.4C48.3017 56.4 42.1017 59.7 38.0017 65.5C32.0017 74.2 32.7017 85.2 39.6017 90C41.8017 91.6 44.5017 92.3 47.2017 92.3C52.9017 92.3 59.1017 89 63.2017 83.2C69.3017 74.6 68.6017 63.6 61.6017 58.7C59.4017 57.2 56.7017 56.4 54.0017 56.4Z" fill="white"/>
<path d="M174.901 123.4L201.201 47C201.701 45.4 200.701 43.7 199.001 43L154.801 27.8C153.001 27.2 151.201 28 150.601 29.5L124.301 106C123.801 107.6 124.801 109.3 126.501 110L170.701 125.2C172.401 125.7 174.301 125 174.901 123.4Z" fill="#FFBE2E"/>
<path opacity="0.6" d="M167.6 41.8999L157.5 38.4999C155.7 37.8999 153.7 38.8999 153.1 40.6999C152.5 42.4999 153.5 44.4999 155.3 45.0999L165.4 48.4999C167.2 49.0999 169.2 48.0999 169.8 46.2999C170.4 44.4999 169.4 42.4999 167.6 41.8999Z" fill="#FFBE2E"/>
<path opacity="0.6" d="M190.202 49.5999L180.102 46.1999C178.302 45.5999 176.302 46.5999 175.702 48.3999C175.102 50.1999 176.102 52.1999 177.902 52.7999L188.002 56.1999C189.802 56.7999 191.802 55.7999 192.402 53.9999C193.002 52.2999 192.002 50.2999 190.202 49.5999Z" fill="#FFBE2E"/>
<path opacity="0.6" d="M163.503 53.8L153.403 50.4C151.603 49.8 149.603 50.8 149.003 52.6C148.403 54.4 149.403 56.4 151.203 57L161.303 60.4C163.103 61 165.103 60 165.703 58.2C166.303 56.4 165.303 54.4 163.503 53.8Z" fill="#FFBE2E"/>
<path opacity="0.6" d="M186.1 61.6L176 58.1C174.2 57.5 172.2 58.5 171.6 60.3C171 62.1 172 64.1 173.8 64.7L183.9 68.1C185.7 68.7 187.7 67.7 188.3 65.9C188.9 64.2 187.9 62.2 186.1 61.6Z" fill="#FFBE2E"/>
<path opacity="0.6" d="M159.401 65.6999L149.301 62.2999C147.501 61.6999 145.501 62.6999 144.901 64.4999C144.301 66.2999 145.301 68.2999 147.101 68.8999L157.201 72.2999C159.001 72.8999 161.001 71.8999 161.601 70.0999C162.201 68.2999 161.201 66.2999 159.401 65.6999Z" fill="#FFBE2E"/>
<path opacity="0.6" d="M182.003 73.5L171.903 70C170.103 69.4 168.103 70.4 167.503 72.2C166.903 74 167.903 76 169.703 76.6L179.803 80C181.603 80.6 183.603 79.6 184.203 77.8C184.803 76.1 183.803 74.1 182.003 73.5Z" fill="#FFBE2E"/>
<path opacity="0.6" d="M155.202 78L145.102 74.6C143.302 74 141.302 75 140.702 76.8C140.102 78.6 141.102 80.6 142.902 81.2L153.002 84.6C154.802 85.2 156.802 84.2 157.402 82.4C158.002 80.6 157.002 78.6 155.202 78Z" fill="#FFBE2E"/>
<path opacity="0.6" d="M177.799 85.8L167.699 82.4C165.899 81.8 163.899 82.8 163.299 84.6C162.699 86.4 163.699 88.4 165.499 89L175.599 92.4C177.399 93 179.399 92 179.999 90.2C180.599 88.4 179.599 86.4 177.799 85.8Z" fill="#FFBE2E"/>
<path opacity="0.6" d="M151.003 90.1999L140.903 86.7999C139.103 86.1999 137.103 87.1999 136.503 88.9999C135.903 90.7999 136.903 92.7999 138.703 93.3999L148.803 96.7999C150.603 97.3999 152.603 96.3999 153.203 94.5999C153.803 92.7999 152.803 90.7999 151.003 90.1999Z" fill="#FFBE2E"/>
<path opacity="0.6" d="M173.6 97.9L163.5 94.5C161.7 93.9 159.7 94.9 159.1 96.7C158.5 98.5 159.5 100.5 161.3 101.1L171.4 104.5C173.2 105.1 175.2 104.1 175.8 102.3C176.4 100.6 175.4 98.6 173.6 97.9Z" fill="#FFBE2E"/>
<path opacity="0.6" d="M146.901 102.1L136.801 98.6999C135.001 98.0999 133.001 99.1 132.401 100.9C131.801 102.7 132.801 104.7 134.601 105.3L144.701 108.7C146.501 109.3 148.501 108.3 149.101 106.5C149.701 104.7 148.701 102.7 146.901 102.1Z" fill="#FFBE2E"/>
<path opacity="0.6" d="M169.503 109.9L159.403 106.5C157.603 105.9 155.603 106.9 155.003 108.7C154.403 110.5 155.403 112.5 157.203 113.1L167.303 116.5C169.103 117.1 171.103 116.1 171.703 114.3C172.303 112.5 171.303 110.5 169.503 109.9Z" fill="#FFBE2E"/>
<path d="M168.202 39.8999L158.102 36.4999C156.302 35.8999 154.302 36.8999 153.702 38.6999C153.102 40.4999 154.102 42.4999 155.902 43.0999L166.002 46.4999C167.802 47.0999 169.802 46.0999 170.402 44.2999C171.102 42.4999 170.102 40.5999 168.202 39.8999Z" fill="white"/>
<path d="M168.303 44.4999L155.303 40.0999C154.603 39.8999 154.103 39.4999 153.703 38.8999C153.203 40.6999 154.203 42.4999 156.003 43.0999L166.103 46.4999C167.903 47.0999 169.803 46.1999 170.503 44.4999C169.703 44.7999 169.003 44.6999 168.303 44.4999Z" fill="url(#paint2_linear_1_15556)"/>
<path d="M190.803 47.6999L180.703 44.2999C178.903 43.6999 176.903 44.6999 176.303 46.4999C175.703 48.2999 176.703 50.2999 178.503 50.8999L188.603 54.2999C190.403 54.8999 192.403 53.8999 193.003 52.0999C193.603 50.2999 192.703 48.2999 190.803 47.6999Z" fill="white"/>
<path d="M190.904 52.2999L177.904 47.9C177.204 47.7 176.704 47.3 176.304 46.7C175.804 48.5 176.804 50.3 178.604 50.9L188.704 54.2999C190.504 54.9 192.404 53.9999 193.104 52.2999C192.304 52.4999 191.604 52.4999 190.904 52.2999Z" fill="url(#paint3_linear_1_15556)"/>
<path d="M164.1 51.9998L154 48.5998C152.2 47.9998 150.2 48.9998 149.6 50.7998C149 52.5998 150 54.5999 151.8 55.1999L161.9 58.5998C163.7 59.1998 165.7 58.1999 166.3 56.3999C166.9 54.5999 165.9 52.6998 164.1 51.9998Z" fill="white"/>
<path d="M164.201 56.5999L151.201 52.1999C150.501 51.9999 150.001 51.5999 149.601 50.9999C149.101 52.7999 150.101 54.5999 151.901 55.1999L162.001 58.5999C163.801 59.1999 165.701 58.2999 166.401 56.5999C165.601 56.8999 164.901 56.7999 164.201 56.5999Z" fill="url(#paint4_linear_1_15556)"/>
<path d="M186.702 59.7999L176.602 56.3999C174.802 55.7999 172.802 56.7999 172.202 58.5999C171.602 60.3999 172.602 62.3999 174.402 62.9999L184.502 66.3999C186.302 66.9999 188.302 65.9999 188.902 64.1999C189.502 62.3999 188.502 60.3999 186.702 59.7999Z" fill="white"/>
<path d="M186.803 64.3999L173.803 59.9999C173.103 59.7999 172.603 59.3999 172.203 58.7999C171.703 60.5999 172.703 62.3999 174.503 62.9999L184.603 66.3999C186.403 66.9999 188.303 66.0999 189.003 64.3999C188.103 64.5999 187.403 64.5999 186.803 64.3999Z" fill="url(#paint5_linear_1_15556)"/>
<path d="M159.901 64.0998L149.801 60.6998C148.001 60.0998 146.001 61.0998 145.401 62.8998C144.801 64.6998 145.801 66.6998 147.601 67.2998L157.701 70.6998C159.501 71.2998 161.501 70.2998 162.101 68.4998C162.701 66.6998 161.801 64.7998 159.901 64.0998Z" fill="white"/>
<path d="M160.002 68.6999L147.002 64.2999C146.302 64.0999 145.802 63.6999 145.402 63.0999C144.902 64.8999 145.902 66.6999 147.702 67.2999L157.802 70.6999C159.602 71.2999 161.502 70.3999 162.202 68.6999C161.402 68.9999 160.702 68.9999 160.002 68.6999Z" fill="url(#paint6_linear_1_15556)"/>
<path d="M182.503 71.8999L172.403 68.4999C170.603 67.8999 168.603 68.8999 168.003 70.6999C167.403 72.4999 168.403 74.4999 170.203 75.0999L180.303 78.4999C182.103 79.0999 184.103 78.0999 184.703 76.2999C185.303 74.4999 184.403 72.4999 182.503 71.8999Z" fill="white"/>
<path d="M182.603 76.4999L169.603 72.0999C168.903 71.8999 168.403 71.4999 168.003 70.8999C167.503 72.6999 168.503 74.4999 170.303 75.0999L180.403 78.4999C182.203 79.0999 184.103 78.1999 184.803 76.4999C184.003 76.6999 183.303 76.6999 182.603 76.4999Z" fill="url(#paint7_linear_1_15556)"/>
<path d="M155.803 76.1999L145.703 72.7999C143.903 72.1999 141.903 73.1999 141.303 74.9999C140.703 76.7999 141.703 78.7999 143.503 79.3999L153.603 82.7999C155.403 83.3999 157.403 82.3999 158.003 80.5999C158.603 78.7999 157.603 76.8999 155.803 76.1999Z" fill="white"/>
<path d="M155.904 80.8L142.904 76.4C142.204 76.2 141.704 75.8 141.304 75.2C140.804 77 141.804 78.8 143.604 79.4L153.704 82.8C155.504 83.4 157.404 82.5 158.104 80.8C157.204 81.1 156.504 81.1 155.904 80.8Z" fill="url(#paint8_linear_1_15556)"/>
<path d="M178.405 84L168.305 80.6C166.505 80 164.505 81 163.905 82.8C163.305 84.6 164.305 86.6 166.105 87.2L176.205 90.6C178.005 91.2 180.005 90.2 180.605 88.4C181.205 86.6 180.205 84.6 178.405 84Z" fill="white"/>
<path d="M178.404 88.6L165.404 84.2C164.704 84 164.204 83.6 163.804 83C163.304 84.8 164.304 86.6 166.104 87.2L176.204 90.6C178.004 91.2 179.904 90.3 180.604 88.6C179.804 88.8 179.104 88.8 178.404 88.6Z" fill="url(#paint9_linear_1_15556)"/>
<path d="M151.6 88.2999L141.5 84.8999C139.7 84.2999 137.7 85.2999 137.1 87.0999C136.5 88.8999 137.5 90.8999 139.3 91.4999L149.4 94.8999C151.2 95.4999 153.2 94.4999 153.8 92.6999C154.4 90.9999 153.4 88.9999 151.6 88.2999Z" fill="white"/>
<path d="M151.701 92.8999L138.701 88.4999C138.001 88.2999 137.501 87.8999 137.101 87.2999C136.601 89.0999 137.601 90.8999 139.401 91.4999L149.501 94.8999C151.301 95.4999 153.201 94.5999 153.901 92.8999C153.101 93.1999 152.401 93.1999 151.701 92.8999Z" fill="url(#paint10_linear_1_15556)"/>
<path d="M174.202 96.0999L164.102 92.6999C162.302 92.0999 160.302 93.1 159.702 94.9C159.102 96.7 160.102 98.7 161.902 99.3L172.002 102.7C173.802 103.3 175.802 102.3 176.402 100.5C177.002 98.6999 176.002 96.6999 174.202 96.0999Z" fill="white"/>
<path d="M174.303 100.7L161.303 96.3C160.603 96.1 160.103 95.7 159.703 95.1C159.203 96.9 160.203 98.7 162.003 99.3L172.103 102.7C173.903 103.3 175.803 102.4 176.503 100.7C175.703 100.9 175.003 100.9 174.303 100.7Z" fill="url(#paint11_linear_1_15556)"/>
<path d="M147.503 100.4L137.403 96.9999C135.603 96.3999 133.603 97.3999 133.003 99.1999C132.403 101 133.403 103 135.203 103.6L145.303 107C147.103 107.6 149.103 106.6 149.703 104.8C150.303 103.1 149.303 101.1 147.503 100.4Z" fill="white"/>
<path d="M147.502 105L134.502 100.6C133.802 100.4 133.302 99.9999 132.902 99.3999C132.402 101.2 133.402 103 135.202 103.6L145.302 107C147.102 107.6 149.002 106.7 149.702 105C148.902 105.3 148.202 105.3 147.502 105Z" fill="url(#paint12_linear_1_15556)"/>
<path d="M170.003 108.2L159.903 104.8C158.103 104.2 156.103 105.2 155.503 107C154.903 108.8 155.903 110.8 157.703 111.4L167.803 114.8C169.603 115.4 171.603 114.4 172.203 112.6C172.903 110.8 171.903 108.8 170.003 108.2Z" fill="white"/>
<path d="M170.103 112.8L157.103 108.4C156.403 108.2 155.903 107.8 155.503 107.2C155.003 109 156.003 110.8 157.803 111.4L167.903 114.8C169.703 115.4 171.603 114.5 172.303 112.8C171.503 113 170.803 113 170.103 112.8Z" fill="url(#paint13_linear_1_15556)"/>
</g>
<defs>
<linearGradient id="paint0_linear_1_15556" x1="122.241" y1="123.805" x2="48.0687" y2="92.5339" gradientUnits="userSpaceOnUse">
<stop offset="0.00195313" stop-color="white" stop-opacity="0"/>
<stop offset="1" stop-color="#235196"/>
</linearGradient>
<linearGradient id="paint1_linear_1_15556" x1="51.6329" y1="65.2723" x2="97.6354" y2="107.14" gradientUnits="userSpaceOnUse">
<stop offset="0.00195313" stop-color="white" stop-opacity="0"/>
<stop offset="1" stop-color="#235196"/>
</linearGradient>
<linearGradient id="paint2_linear_1_15556" x1="159.681" y1="31.946" x2="164.191" y2="52.6978" gradientUnits="userSpaceOnUse">
<stop offset="0.00195313" stop-color="white" stop-opacity="0"/>
<stop offset="1" stop-color="#235196"/>
</linearGradient>
<linearGradient id="paint3_linear_1_15556" x1="182.273" y1="39.7087" x2="186.783" y2="60.4604" gradientUnits="userSpaceOnUse">
<stop offset="0.00195313" stop-color="white" stop-opacity="0"/>
<stop offset="1" stop-color="#235196"/>
</linearGradient>
<linearGradient id="paint4_linear_1_15556" x1="155.52" y1="44.0482" x2="160.031" y2="64.8" gradientUnits="userSpaceOnUse">
<stop offset="0.00195313" stop-color="white" stop-opacity="0"/>
<stop offset="1" stop-color="#235196"/>
</linearGradient>
<linearGradient id="paint5_linear_1_15556" x1="178.112" y1="51.8108" x2="182.623" y2="72.5626" gradientUnits="userSpaceOnUse">
<stop offset="0.00195313" stop-color="white" stop-opacity="0"/>
<stop offset="1" stop-color="#235196"/>
</linearGradient>
<linearGradient id="paint6_linear_1_15556" x1="151.363" y1="56.1505" x2="155.873" y2="76.9021" gradientUnits="userSpaceOnUse">
<stop offset="0.00195313" stop-color="white" stop-opacity="0"/>
<stop offset="1" stop-color="#235196"/>
</linearGradient>
<linearGradient id="paint7_linear_1_15556" x1="173.955" y1="63.9129" x2="178.465" y2="84.6648" gradientUnits="userSpaceOnUse">
<stop offset="0.00195313" stop-color="white" stop-opacity="0"/>
<stop offset="1" stop-color="#235196"/>
</linearGradient>
<linearGradient id="paint8_linear_1_15556" x1="147.206" y1="68.2527" x2="151.717" y2="89.0044" gradientUnits="userSpaceOnUse">
<stop offset="0.00195313" stop-color="white" stop-opacity="0"/>
<stop offset="1" stop-color="#235196"/>
</linearGradient>
<linearGradient id="paint9_linear_1_15556" x1="169.797" y1="76.0152" x2="174.307" y2="96.767" gradientUnits="userSpaceOnUse">
<stop offset="0.00195313" stop-color="white" stop-opacity="0"/>
<stop offset="1" stop-color="#235196"/>
</linearGradient>
<linearGradient id="paint10_linear_1_15556" x1="143.045" y1="80.3549" x2="147.555" y2="101.107" gradientUnits="userSpaceOnUse">
<stop offset="0.00195313" stop-color="white" stop-opacity="0"/>
<stop offset="1" stop-color="#235196"/>
</linearGradient>
<linearGradient id="paint11_linear_1_15556" x1="165.637" y1="88.1174" x2="170.147" y2="108.869" gradientUnits="userSpaceOnUse">
<stop offset="0.00195313" stop-color="white" stop-opacity="0"/>
<stop offset="1" stop-color="#235196"/>
</linearGradient>
<linearGradient id="paint12_linear_1_15556" x1="138.887" y1="92.457" x2="143.397" y2="113.209" gradientUnits="userSpaceOnUse">
<stop offset="0.00195313" stop-color="white" stop-opacity="0"/>
<stop offset="1" stop-color="#235196"/>
</linearGradient>
<linearGradient id="paint13_linear_1_15556" x1="161.479" y1="100.22" x2="165.989" y2="120.971" gradientUnits="userSpaceOnUse">
<stop offset="0.00195313" stop-color="white" stop-opacity="0"/>
<stop offset="1" stop-color="#235196"/>
</linearGradient>
<clipPath id="clip0_1_15556">
<rect width="235.2" height="145.7" fill="white"/>
</clipPath>
</defs>
</svg>
