<svg width="236" height="146" viewBox="0 0 236 146" fill="none" xmlns="http://www.w3.org/2000/svg">
<g clip-path="url(#clip0_1_15667)">
<path d="M233.199 82.4C233.199 83.2 233.199 83.9 233.199 84.7C233.199 86.1 233.099 87.5 233.099 88.9C231.899 118.2 222.699 145.6 222.699 145.6H168.599H163.999H155.499H141.899H130.299H106.899H101.799H89.9995H73.2995H56.5995H4.69948C-5.70052 125.9 3.59948 118.8 10.4995 108.7C14.1995 103.3 17.1995 97.1 16.0995 87.6C15.6995 84.3 14.7995 80.6 13.2995 76.5C12.5995 74.6 12.3995 72.7 12.0995 70.8C11.9995 70 11.7995 69.1 11.6995 68.3C11.6995 68.1 11.5995 67.9 11.5995 67.6C6.19948 25 28.4995 4.79999 63.2995 1.39999C90.5995 -1.30001 101.899 6.79999 109.099 13.2C132.799 34.3 134.599 14.4 185.399 18.8C212.899 21.2 225.599 37.8 230.499 58.2C230.799 59.6 231.099 61 231.399 62.4C231.499 63.2 231.699 63.9 231.799 64.7C231.999 66.1 232.199 67.5 232.399 68.9C232.499 69.7 232.599 70.5 232.599 71.3C232.699 72.7 232.799 74.1 232.899 75.5C232.899 76.3 232.999 77.2 232.999 78C233.199 79.6 233.199 81 233.199 82.4Z" fill="#EBF3FA"/>
<g clip-path="url(#clip1_1_15667)">
<path d="M68 50.3668C68 48.668 68.6779 47.0387 69.8846 45.8374C71.0913 44.6361 72.7279 43.9612 74.4344 43.9612H129.152C130.605 43.9612 132.004 44.5171 133.057 45.5139C134.111 46.5108 134.74 47.8725 134.814 49.3177L138.853 128.295C138.881 128.853 138.797 129.41 138.605 129.934C138.413 130.458 138.117 130.938 137.734 131.346C137.352 131.754 136.891 132.081 136.379 132.308C135.867 132.535 135.314 132.658 134.754 132.668L72.0394 133.802C71.5125 133.812 70.989 133.717 70.4995 133.523C70.01 133.329 69.5642 133.039 69.1881 132.672C68.8121 132.304 68.5134 131.866 68.3094 131.382C68.1054 130.898 68.0002 130.379 68 129.855V50.3668Z" fill="url(#paint0_linear_1_15667)"/>
<path d="M72.4805 45.1752C72.4788 44.9088 72.5346 44.6451 72.6442 44.402C72.7537 44.1589 72.9144 43.9421 73.1154 43.7662C73.3163 43.5902 73.5529 43.4593 73.8091 43.3823C74.0653 43.3053 74.3351 43.2839 74.6003 43.3197C82.0727 44.3284 107.768 47.4483 129.013 45.8248C129.243 45.8069 129.474 45.8348 129.693 45.9071C129.911 45.9794 130.113 46.0946 130.287 46.2458C130.46 46.397 130.602 46.5812 130.702 46.7876C130.803 46.994 130.862 47.2184 130.874 47.4475L135.109 126.777C135.137 127.299 134.956 127.812 134.606 128.202C134.256 128.592 133.765 128.828 133.241 128.859C124.305 129.386 87.5079 131.421 74.3827 130.052C73.9971 130.012 73.64 129.831 73.3798 129.545C73.1195 129.259 72.9744 128.887 72.9722 128.501L72.4805 45.1752Z" fill="#91B3FA"/>
<path d="M73.3633 47.1649C73.3617 46.9085 73.4155 46.6547 73.5209 46.4208C73.6263 46.1868 73.781 45.9782 73.9744 45.8088C74.1678 45.6395 74.3955 45.5136 74.642 45.4394C74.8886 45.3653 75.1483 45.3447 75.4035 45.3791C82.5944 46.3496 107.322 49.3523 127.767 47.7898C127.988 47.7725 128.211 47.7994 128.421 47.869C128.632 47.9386 128.826 48.0494 128.993 48.1949C129.16 48.3405 129.296 48.5178 129.393 48.7164C129.49 48.9151 129.546 49.131 129.558 49.3516L133.634 125.695C133.661 126.198 133.487 126.691 133.15 127.066C132.813 127.442 132.34 127.669 131.835 127.699C123.237 128.205 87.8249 130.164 75.194 128.847C74.8227 128.808 74.4791 128.634 74.2287 128.358C73.9784 128.082 73.839 127.724 73.8373 127.353L73.3633 47.1649Z" fill="#BDD0FB"/>
<path opacity="0.78" d="M80.0207 53.0508L80.7846 69.4179C80.7968 69.6801 80.9081 69.928 81.0962 70.1119C81.2844 70.2958 81.5354 70.4021 81.7989 70.4094C84.8435 70.4949 94.3313 70.7255 99.6887 70.4461C99.981 70.4311 100.257 70.3074 100.462 70.0993C100.667 69.8912 100.786 69.6141 100.795 69.3228C100.897 66.2533 101.121 57.3193 100.418 53.5848C100.362 53.2923 100.208 53.0275 99.9807 52.8339C99.7535 52.6404 99.4668 52.5296 99.1678 52.5198L81.1697 51.8952C81.0163 51.8899 80.8635 51.9162 80.7209 51.9726C80.5783 52.0289 80.449 52.114 80.341 52.2226C80.2331 52.3312 80.1489 52.4608 80.0938 52.6033C80.0386 52.7459 80.0137 52.8982 80.0207 53.0508Z" fill="white"/>
<path d="M93.7723 59.8696C94.3103 58.0017 93.2255 56.0534 91.3493 55.5178C89.4731 54.9822 87.516 56.0622 86.978 57.93C86.44 59.7978 87.5249 61.7462 89.4011 62.2818C91.2773 62.8174 93.2344 61.7374 93.7723 59.8696Z" fill="url(#paint1_linear_1_15667)"/>
<path d="M85.0062 69.2321H96.2657C96.9558 69.2321 97.3697 68.4734 96.9979 67.8943C96.0414 66.4046 94.0403 64.216 90.5749 64.3148C87.2349 64.4099 85.2552 66.3869 84.26 67.8033C83.8377 68.4066 84.2685 69.2321 85.0062 69.2321Z" fill="url(#paint2_linear_1_15667)"/>
<g opacity="0.6">
<path opacity="0.6" d="M125.523 54.4752C125.544 54.4754 125.565 54.4712 125.585 54.463C125.605 54.4548 125.622 54.4427 125.637 54.4275C125.652 54.4123 125.663 54.3943 125.671 54.3746C125.679 54.3548 125.682 54.3337 125.682 54.3126L125.659 53.5414C125.657 53.4977 125.639 53.4562 125.608 53.4254C125.576 53.3947 125.534 53.3768 125.491 53.3754L104.801 53.0082C104.782 53.0054 104.763 53.0078 104.745 53.0152C104.727 53.0226 104.712 53.0347 104.7 53.0502C104.689 53.0657 104.682 53.084 104.68 53.1032C104.678 53.1223 104.682 53.1415 104.69 53.1588L105.102 54.3225C105.12 54.3661 105.15 54.4037 105.188 54.4309C105.227 54.4581 105.273 54.4737 105.32 54.476L125.523 54.4752Z" fill="white"/>
</g>
<g opacity="0.6">
<path opacity="0.6" d="M104.801 56.0588C104.782 56.0559 104.763 56.0584 104.745 56.0658C104.727 56.0732 104.712 56.0853 104.7 56.1008C104.689 56.1163 104.682 56.1346 104.68 56.1537C104.678 56.1728 104.682 56.1921 104.69 56.2093L105.102 57.373C105.12 57.4167 105.15 57.4543 105.188 57.4816C105.227 57.5088 105.273 57.5245 105.32 57.5269H125.521C125.543 57.5269 125.564 57.5227 125.583 57.5145C125.603 57.5063 125.621 57.4942 125.636 57.4789C125.65 57.4637 125.662 57.4457 125.67 57.4259C125.677 57.4061 125.681 57.385 125.68 57.3638L125.658 56.5927C125.656 56.5489 125.637 56.5075 125.606 56.4767C125.575 56.4459 125.533 56.4281 125.489 56.4267L104.801 56.0588Z" fill="white"/>
</g>
<g opacity="0.6">
<path opacity="0.6" d="M104.801 59.1539C104.782 59.1512 104.762 59.1537 104.745 59.1611C104.727 59.1686 104.711 59.1807 104.7 59.1962C104.689 59.2118 104.682 59.2301 104.68 59.2492C104.678 59.2683 104.682 59.2876 104.69 59.3048L105.102 60.4685C105.12 60.5121 105.15 60.5497 105.188 60.5769C105.227 60.6041 105.273 60.6198 105.32 60.622H125.521C125.543 60.6221 125.564 60.618 125.583 60.6098C125.603 60.6016 125.621 60.5895 125.636 60.5743C125.65 60.5591 125.662 60.5411 125.67 60.5214C125.677 60.5016 125.681 60.4805 125.68 60.4593L125.658 59.6882C125.656 59.6445 125.637 59.603 125.606 59.5722C125.575 59.5414 125.533 59.5236 125.489 59.5222L104.801 59.1539Z" fill="white"/>
</g>
<g opacity="0.6">
<path opacity="0.6" d="M127.438 75.5504C127.459 75.5507 127.48 75.5466 127.499 75.5384C127.518 75.5302 127.536 75.518 127.55 75.5028C127.565 75.4875 127.576 75.4694 127.583 75.4497C127.59 75.4299 127.593 75.409 127.591 75.3881L127.54 74.6169C127.536 74.573 127.516 74.5319 127.484 74.5016C127.452 74.4713 127.41 74.4539 127.365 74.4528L80.1768 74.0808C80.0868 74.0808 80.0588 74.137 80.1148 74.2071L81.0879 75.423C81.1216 75.4605 81.1624 75.4911 81.208 75.513C81.2535 75.5348 81.303 75.5476 81.3535 75.5504H127.438Z" fill="white"/>
</g>
<g opacity="0.6">
<path opacity="0.6" d="M80.1768 77.132C80.0868 77.132 80.0588 77.1881 80.1148 77.2583L81.0879 78.4741C81.1216 78.5117 81.1624 78.5423 81.208 78.5641C81.2535 78.586 81.303 78.5987 81.3535 78.6016H127.438C127.459 78.6018 127.48 78.5977 127.499 78.5895C127.518 78.5813 127.536 78.5692 127.55 78.5539C127.565 78.5387 127.576 78.5206 127.583 78.5008C127.59 78.4811 127.593 78.4601 127.591 78.4392L127.54 77.6681C127.536 77.6241 127.516 77.583 127.484 77.5528C127.452 77.5225 127.409 77.5053 127.365 77.5043L80.1768 77.132Z" fill="white"/>
</g>
<path d="M86.4151 97.9438H86.4044L82.5023 97.9071C81.9449 97.9015 81.4846 97.5196 81.4326 97.0188L81.0895 93.7594C81.0799 93.6638 81.0898 93.5673 81.1187 93.4757C81.1476 93.3842 81.1949 93.2994 81.2577 93.2265C81.3325 93.1404 81.4238 93.07 81.5263 93.0196C81.6288 92.9691 81.7404 92.9396 81.8545 92.9327C82.1836 92.9103 82.6465 92.8711 83.1363 92.8296C84.1691 92.7418 85.4528 92.6331 86.1758 92.6243C86.6999 92.6217 87.1447 92.9305 87.2683 93.3852C87.4716 94.1332 87.4527 95.5495 87.4159 97.0573C87.4018 97.5479 86.9559 97.9438 86.4151 97.9438ZM81.8745 93.2306C81.8005 93.2344 81.728 93.2529 81.6613 93.2852C81.5947 93.3174 81.5352 93.3627 81.4864 93.4182C81.4496 93.4604 81.4218 93.5096 81.4047 93.5628C81.3875 93.616 81.3815 93.6721 81.3868 93.7278L81.7299 96.9872C81.7668 97.3371 82.0987 97.6045 82.5045 97.6081L86.4067 97.6449H86.4144C86.7925 97.6449 87.1056 97.3797 87.1152 97.0503C87.1521 95.5646 87.1713 94.1721 86.9788 93.4623C86.8924 93.1446 86.5601 92.9232 86.1791 92.9221C85.4672 92.9309 84.1872 93.0392 83.1614 93.1263C82.6701 93.1681 82.2061 93.2074 81.8748 93.2298L81.8745 93.2306Z" fill="white"/>
<path opacity="0.6" d="M82.2923 93.5662C83.1119 93.5107 84.8935 93.3304 85.7386 93.3201C86.0968 93.3154 86.4107 93.5309 86.4948 93.8401C86.6578 94.4402 86.636 95.6369 86.608 96.7411C86.5995 97.0716 86.2941 97.336 85.9216 97.3324L82.8032 97.3026C82.42 97.2989 82.1024 97.0386 82.0655 96.6996L81.7914 94.095C81.7634 93.8254 81.9884 93.5871 82.2923 93.5662Z" fill="white"/>
<g opacity="0.6">
<path opacity="0.6" d="M89.8405 95.7773C89.8955 95.9846 90.0182 96.1677 90.1893 96.2979C90.3604 96.428 90.5702 96.4977 90.7856 96.4959L126.889 96.1896C127.081 96.185 127.263 96.1059 127.396 95.9693C127.53 95.8327 127.605 95.6494 127.604 95.4587C127.604 95.268 127.529 95.0851 127.394 94.949C127.26 94.8129 127.078 94.7346 126.886 94.7307L90.7819 94.5669C90.6332 94.5662 90.4864 94.5996 90.3528 94.6645C90.2192 94.7294 90.1024 94.824 90.0114 94.941C89.9204 95.058 89.8577 95.1943 89.828 95.3393C89.7984 95.4843 89.8027 95.6342 89.8405 95.7773Z" fill="white"/>
</g>
<path d="M82.4584 94.0774C82.5271 94.0372 82.6033 94.011 82.6824 94.0005C82.7615 93.99 82.8419 93.9954 82.9188 94.0162C82.9958 94.0371 83.0678 94.0731 83.1306 94.1221C83.1934 94.171 83.2458 94.232 83.2846 94.3014L84.054 95.6748C84.0715 95.7057 84.0971 95.7312 84.1283 95.7485C84.1594 95.7658 84.1947 95.7741 84.2303 95.7726C84.2659 95.771 84.3004 95.7597 84.3299 95.7399C84.3594 95.72 84.3828 95.6924 84.3975 95.6601L86.3067 91.429C86.3272 91.3852 86.3622 91.3496 86.4059 91.3283C86.4495 91.307 86.4992 91.3012 86.5466 91.3119C86.594 91.3226 86.6363 91.3491 86.6665 91.387C86.6967 91.425 86.7129 91.4721 86.7124 91.5205C86.6929 92.8149 86.348 95.2749 84.2709 97.3338C84.2709 97.3338 83.1275 96.891 82.2053 94.8757C82.1407 94.7351 82.1308 94.5756 82.1775 94.4281C82.2243 94.2806 82.3243 94.1556 82.4584 94.0774Z" fill="#FFEECC"/>
<path d="M86.4151 106.269H86.4044L82.5023 106.232C81.9449 106.227 81.4846 105.845 81.4326 105.344L81.0895 102.085C81.0799 101.989 81.0898 101.893 81.1187 101.801C81.1476 101.71 81.1949 101.625 81.2577 101.552C81.3325 101.466 81.4238 101.396 81.5263 101.345C81.6288 101.295 81.7404 101.265 81.8545 101.258C82.1836 101.236 82.6465 101.197 83.1363 101.155C84.1691 101.068 85.4528 100.959 86.1758 100.95H86.1912C86.7043 100.95 87.1459 101.261 87.2683 101.711C87.4716 102.459 87.4527 103.875 87.4159 105.383C87.4018 105.876 86.9559 106.269 86.4151 106.269ZM81.8745 101.556C81.8005 101.56 81.728 101.578 81.6613 101.61C81.5947 101.643 81.5352 101.688 81.4864 101.743C81.4496 101.786 81.4218 101.835 81.4046 101.888C81.3875 101.941 81.3815 101.997 81.3868 102.053L81.7299 105.312C81.7668 105.662 82.0987 105.929 82.5045 105.933L86.4067 105.97H86.4144C86.7925 105.97 87.1056 105.705 87.1152 105.376C87.1521 103.89 87.1713 102.498 86.9788 101.788C86.8921 101.47 86.5553 101.241 86.1791 101.248C85.4672 101.256 84.1872 101.365 83.1614 101.452C82.6701 101.494 82.2061 101.533 81.8748 101.555L81.8745 101.556Z" fill="white"/>
<path opacity="0.6" d="M82.2923 101.892C83.1119 101.836 84.8935 101.656 85.7386 101.646C86.0968 101.641 86.4107 101.857 86.4948 102.166C86.6578 102.766 86.636 103.963 86.608 105.067C86.5995 105.397 86.2941 105.662 85.9216 105.658L82.8032 105.628C82.42 105.624 82.1024 105.364 82.0655 105.025L81.7914 102.421C81.7634 102.151 81.9884 101.913 82.2923 101.892Z" fill="white"/>
<g opacity="0.6">
<path opacity="0.6" d="M89.8405 104.105C89.8955 104.312 90.0182 104.495 90.1893 104.625C90.3604 104.755 90.5702 104.825 90.7856 104.823L126.889 104.517C127.084 104.516 127.27 104.439 127.407 104.302C127.544 104.165 127.621 103.979 127.62 103.786C127.62 103.592 127.542 103.407 127.405 103.271C127.267 103.134 127.081 103.058 126.886 103.058L90.7819 102.894C90.6332 102.894 90.4864 102.927 90.3528 102.992C90.2192 103.057 90.1024 103.151 90.0114 103.268C89.9204 103.385 89.8577 103.522 89.828 103.667C89.7984 103.812 89.8027 103.961 89.8405 104.105Z" fill="white"/>
</g>
<path d="M82.4584 102.403C82.5271 102.363 82.6033 102.337 82.6823 102.326C82.7614 102.316 82.8418 102.321 82.9187 102.342C82.9957 102.363 83.0677 102.399 83.1305 102.448C83.1933 102.497 83.2457 102.558 83.2846 102.627L84.054 104.001C84.0714 104.032 84.0971 104.057 84.1282 104.075C84.1594 104.092 84.1948 104.1 84.2304 104.099C84.2661 104.097 84.3006 104.086 84.3301 104.066C84.3596 104.046 84.3829 104.018 84.3975 103.986L86.3067 99.7549C86.3272 99.711 86.3622 99.6754 86.4059 99.6541C86.4495 99.6328 86.4992 99.627 86.5466 99.6377C86.594 99.6484 86.6363 99.6749 86.6665 99.7128C86.6967 99.7508 86.7129 99.7979 86.7124 99.8463C86.6929 101.14 86.348 103.601 84.2709 105.66C84.2709 105.66 83.1275 105.217 82.2053 103.202C82.1407 103.061 82.1308 102.901 82.1775 102.754C82.2243 102.606 82.3243 102.481 82.4584 102.403Z" fill="url(#paint3_linear_1_15667)"/>
<path d="M86.4113 114.594H86.4006L82.4984 114.558C81.941 114.552 81.4807 114.171 81.4287 113.67L81.0857 110.41C81.076 110.315 81.0858 110.219 81.1146 110.127C81.1434 110.036 81.1905 109.951 81.2531 109.878C81.3278 109.792 81.4191 109.722 81.5216 109.671C81.6242 109.621 81.7358 109.591 81.8499 109.584C82.179 109.562 82.6419 109.523 83.1317 109.481C84.1645 109.394 85.4482 109.285 86.1711 109.276H86.1866C86.6997 109.276 87.1412 109.587 87.2637 110.037C87.4669 110.785 87.4481 112.201 87.4112 113.709C87.398 114.2 86.952 114.594 86.4113 114.594ZM81.8706 109.882C81.7966 109.885 81.7241 109.904 81.6574 109.936C81.5908 109.968 81.5313 110.014 81.4825 110.069C81.4457 110.111 81.4179 110.161 81.4008 110.214C81.3836 110.267 81.3776 110.323 81.383 110.379L81.726 113.638C81.7629 113.988 82.0949 114.255 82.5006 114.259L86.4028 114.296H86.4105C86.7886 114.296 87.1018 114.031 87.1114 113.702C87.1482 112.216 87.1674 110.823 86.9749 110.114C86.8882 109.796 86.5514 109.566 86.1752 109.573C85.4633 109.582 84.1833 109.691 83.1575 109.778C82.6662 109.819 82.2022 109.858 81.871 109.881L81.8706 109.882Z" fill="white"/>
<path opacity="0.6" d="M82.2923 110.218C83.1119 110.162 84.8935 109.982 85.7386 109.972C86.0968 109.967 86.4107 110.182 86.4948 110.491C86.6578 111.092 86.636 112.288 86.608 113.392C86.5995 113.723 86.2941 113.987 85.9216 113.984L82.8032 113.954C82.42 113.95 82.1024 113.69 82.0655 113.351L81.7914 110.746C81.7634 110.477 81.9884 110.238 82.2923 110.218Z" fill="white"/>
<g opacity="0.6">
<path opacity="0.6" d="M89.8405 112.43C89.8955 112.638 90.0182 112.821 90.1893 112.951C90.3605 113.081 90.5702 113.151 90.7856 113.149L126.889 112.842C127.084 112.842 127.27 112.765 127.407 112.628C127.544 112.491 127.621 112.305 127.62 112.112C127.62 111.918 127.542 111.733 127.405 111.596C127.267 111.46 127.081 111.383 126.886 111.384L90.7819 111.22C90.6332 111.219 90.4864 111.252 90.3528 111.317C90.2192 111.382 90.1024 111.477 90.0114 111.594C89.9204 111.711 89.8577 111.847 89.828 111.992C89.7984 112.137 89.8027 112.287 89.8405 112.43Z" fill="white"/>
</g>
<path d="M82.4578 110.729C82.5266 110.689 82.6028 110.663 82.6818 110.652C82.7609 110.642 82.8412 110.647 82.9182 110.668C82.9951 110.689 83.0671 110.725 83.13 110.774C83.1928 110.822 83.2452 110.883 83.2841 110.953L84.0535 112.326C84.071 112.357 84.0967 112.383 84.1278 112.4C84.1589 112.417 84.1943 112.426 84.2299 112.424C84.2655 112.423 84.2999 112.411 84.3294 112.391C84.3589 112.371 84.3823 112.344 84.3969 112.311L86.3061 108.079C86.3269 108.035 86.362 108 86.4056 107.979C86.4492 107.958 86.4987 107.952 86.5459 107.963C86.5932 107.974 86.6354 108 86.6655 108.038C86.6957 108.076 86.712 108.122 86.7119 108.171C86.6923 109.465 86.3475 111.925 84.2704 113.984C84.2704 113.984 83.1269 113.541 82.2048 111.526C82.1406 111.385 82.1309 111.226 82.1776 111.079C82.2243 110.932 82.3242 110.807 82.4578 110.729Z" fill="url(#paint4_linear_1_15667)"/>
<path d="M86.4113 122.92H86.4006L82.4984 122.883C81.941 122.878 81.4807 122.496 81.4287 121.995L81.0857 118.736C81.0759 118.641 81.0858 118.544 81.1147 118.453C81.1437 118.361 81.191 118.276 81.2539 118.203C81.3286 118.117 81.4199 118.047 81.5224 117.996C81.6249 117.946 81.7365 117.916 81.8507 117.91C82.1797 117.887 82.6426 117.848 83.1325 117.806C84.1653 117.719 85.4489 117.61 86.1719 117.601H86.1874C86.7005 117.601 87.142 117.912 87.2644 118.362C87.4677 119.11 87.4489 120.527 87.412 122.034C87.398 122.525 86.952 122.92 86.4113 122.92ZM81.8706 118.207C81.7966 118.211 81.7241 118.23 81.6575 118.262C81.5908 118.294 81.5313 118.339 81.4825 118.395C81.4457 118.437 81.4179 118.486 81.4007 118.539C81.3836 118.593 81.3776 118.649 81.383 118.705L81.726 121.964C81.7629 122.314 82.0949 122.581 82.5006 122.585L86.4028 122.621H86.4105C86.7886 122.621 87.1018 122.356 87.1114 122.027C87.1482 120.541 87.1674 119.149 86.9749 118.439C86.8882 118.121 86.5514 117.89 86.1752 117.899C85.4633 117.907 84.1833 118.016 83.1575 118.103C82.6662 118.145 82.2022 118.184 81.871 118.207L81.8706 118.207Z" fill="white"/>
<path opacity="0.6" d="M82.2923 118.544C83.1119 118.489 84.8935 118.308 85.7386 118.298C86.0968 118.294 86.4107 118.509 86.4948 118.818C86.6578 119.418 86.636 120.615 86.608 121.719C86.5995 122.049 86.2941 122.314 85.9216 122.31L82.8032 122.28C82.42 122.276 82.1024 122.016 82.0655 121.677L81.7914 119.072C81.7634 118.801 81.9884 118.564 82.2923 118.544Z" fill="white"/>
<g opacity="0.6">
<path opacity="0.6" d="M89.8406 120.756C89.8956 120.963 90.0183 121.147 90.1894 121.277C90.3606 121.407 90.5704 121.476 90.7857 121.474L126.889 121.168C127.084 121.168 127.27 121.091 127.407 120.953C127.544 120.816 127.621 120.631 127.62 120.437C127.62 120.244 127.543 120.059 127.405 119.922C127.267 119.786 127.081 119.709 126.886 119.71L90.782 119.545C90.6333 119.545 90.4865 119.578 90.3528 119.643C90.2192 119.708 90.1023 119.803 90.0113 119.92C89.9203 120.037 89.8576 120.173 89.828 120.318C89.7984 120.463 89.8027 120.613 89.8406 120.756Z" fill="white"/>
</g>
<path d="M85.8721 89.7956H85.8614L81.9593 89.7589C81.4019 89.7534 80.9416 89.3719 80.8896 88.871L80.5465 85.6116C80.5369 85.5161 80.5469 85.4196 80.5758 85.328C80.6047 85.2365 80.6519 85.1517 80.7147 85.0788C80.7895 84.9926 80.8808 84.9223 80.9833 84.8718C81.0858 84.8214 81.1974 84.7918 81.3115 84.785C81.6406 84.7626 82.1035 84.7233 82.5937 84.6818C83.6265 84.5944 84.9101 84.4854 85.6327 84.4766H85.6482C86.1617 84.4766 86.6029 84.7876 86.7253 85.2374C86.9286 85.9854 86.9097 87.4018 86.8729 88.9096C86.8588 89.4009 86.4114 89.7956 85.8721 89.7956ZM81.3315 85.0828C81.2575 85.0866 81.185 85.1052 81.1183 85.1375C81.0517 85.1697 80.9922 85.2149 80.9434 85.2705C80.9066 85.3126 80.8787 85.3618 80.8616 85.415C80.8445 85.4683 80.8384 85.5244 80.8438 85.58L81.1869 88.8394C81.2237 89.1894 81.5557 89.4563 81.9615 89.46L85.8637 89.4967H85.8714C86.2495 89.4967 86.5626 89.2316 86.5722 88.9022C86.6091 87.4165 86.6283 86.024 86.4358 85.3145C86.3491 84.9965 86.0123 84.7659 85.6361 84.774C84.9242 84.7828 83.6442 84.8911 82.6188 84.9785C82.1271 85.02 81.6631 85.0593 81.3318 85.0821L81.3315 85.0828Z" fill="white"/>
<path opacity="0.6" d="M81.7532 85.4192C82.5728 85.3634 84.3544 85.1834 85.1995 85.1728C85.5576 85.1684 85.8715 85.3836 85.9556 85.6928C86.1187 86.2932 86.0969 87.4896 86.0689 88.5938C86.0604 88.9243 85.755 89.1883 85.3824 89.185L82.2644 89.1549C81.8808 89.1512 81.5636 88.8912 81.5267 88.5519L81.2527 85.9476C81.2228 85.6788 81.4478 85.4398 81.7532 85.4192Z" fill="white"/>
<g opacity="0.6">
<path opacity="0.6" d="M89.3016 87.6317C89.3566 87.839 89.4794 88.0222 89.6506 88.1523C89.8218 88.2824 90.0316 88.3521 90.247 88.3504L126.35 88.0438C126.545 88.0434 126.731 87.9662 126.868 87.8291C127.005 87.6921 127.082 87.5064 127.081 87.313C127.081 87.1196 127.003 86.9342 126.866 86.7977C126.728 86.6613 126.542 86.5848 126.347 86.5852L90.2429 86.421C90.0942 86.4204 89.9474 86.4538 89.8138 86.5187C89.6801 86.5835 89.5633 86.6782 89.4723 86.7952C89.3813 86.9123 89.3185 87.0486 89.2889 87.1937C89.2593 87.3387 89.2637 87.4886 89.3016 87.6317Z" fill="white"/>
</g>
<path d="M81.9193 85.9303C81.9881 85.8901 82.0642 85.864 82.1433 85.8535C82.2223 85.843 82.3027 85.8484 82.3796 85.8692C82.4566 85.89 82.5286 85.9259 82.5914 85.9748C82.6543 86.0237 82.7067 86.0846 82.7455 86.154L83.5153 87.5273C83.5326 87.5584 83.5582 87.5841 83.5893 87.6014C83.6204 87.6188 83.6558 87.6272 83.6914 87.6257C83.7271 87.6242 83.7616 87.6128 83.7911 87.5928C83.8205 87.5728 83.8439 87.5451 83.8584 87.5126L85.7676 83.2816C85.7884 83.2381 85.8235 83.2029 85.8671 83.1818C85.9107 83.1608 85.9602 83.1551 86.0074 83.1658C86.0546 83.1765 86.0968 83.2029 86.127 83.2406C86.1571 83.2784 86.1735 83.3252 86.1733 83.3734C86.1542 84.6675 85.8089 87.1274 83.7319 89.1868C83.7319 89.1868 82.5884 88.7435 81.6663 86.7286C81.6016 86.588 81.5917 86.4285 81.6384 86.281C81.6852 86.1335 81.7853 86.0085 81.9193 85.9303Z" fill="url(#paint5_linear_1_15667)"/>
<path d="M105.189 33.193C103.213 31.8241 101.494 31.8512 100.283 32.2067C99.748 32.3653 99.2847 32.7037 98.9722 33.1643C98.6596 33.6248 98.5172 34.179 98.569 34.7324L99.0913 40.4014L105.3 40.9523C105.3 40.9523 109.065 35.8777 105.189 33.193ZM102.459 37.7667C102.153 37.7667 101.853 37.6762 101.599 37.5068C101.344 37.3373 101.145 37.0964 101.028 36.8146C100.911 36.5328 100.88 36.2227 100.94 35.9235C101 35.6243 101.147 35.3495 101.364 35.1338C101.581 34.9181 101.857 34.7712 102.157 34.7117C102.458 34.6522 102.769 34.6828 103.052 34.7995C103.335 34.9162 103.577 35.1139 103.748 35.3675C103.918 35.6212 104.009 35.9194 104.009 36.2244C104.009 36.427 103.969 36.6276 103.891 36.8148C103.813 37.0019 103.699 37.172 103.555 37.3152C103.411 37.4584 103.24 37.572 103.052 37.6495C102.864 37.727 102.662 37.7668 102.459 37.7667H102.459Z" fill="url(#paint6_linear_1_15667)"/>
<path d="M99.7114 38.0167C99.6743 38.0164 99.6387 38.0024 99.6114 37.9773C99.5841 37.9523 99.5672 37.918 99.5639 37.8812L99.4805 36.9782C99.477 36.9389 99.4894 36.8997 99.5148 36.8694C99.5402 36.839 99.5767 36.8199 99.6163 36.8163C99.6359 36.8142 99.6558 36.8161 99.6747 36.8218C99.6936 36.8275 99.7111 36.837 99.7263 36.8496C99.7415 36.8622 99.754 36.8777 99.763 36.8952C99.772 36.9127 99.7774 36.9318 99.7789 36.9514L99.8623 37.854C99.8659 37.8935 99.8536 37.9327 99.8281 37.9632C99.8027 37.9936 99.7661 38.0127 99.7265 38.0164L99.7114 38.0167ZM99.5484 36.2475C99.5113 36.247 99.4758 36.2329 99.4485 36.2079C99.4213 36.1829 99.4043 36.1487 99.4008 36.112L99.3378 35.4264C99.2892 34.8995 99.4252 34.3721 99.7226 33.9336C100.02 33.4951 100.461 33.1725 100.97 33.0204C101.706 32.8028 102.486 32.771 103.238 32.9279C103.258 32.9312 103.277 32.9385 103.294 32.9493C103.311 32.9601 103.326 32.9742 103.337 32.9907C103.348 33.0072 103.356 33.0258 103.36 33.0454C103.364 33.065 103.364 33.0852 103.36 33.1048C103.356 33.1244 103.348 33.143 103.337 33.1595C103.325 33.1759 103.311 33.1899 103.294 33.2007C103.277 33.2114 103.258 33.2186 103.238 33.2219C103.218 33.2252 103.198 33.2245 103.178 33.2198C102.474 33.0734 101.744 33.1032 101.054 33.3065C100.611 33.4387 100.228 33.7194 99.9692 34.1009C99.7105 34.4824 99.5923 34.9412 99.6347 35.3996L99.6978 36.0852C99.6996 36.1047 99.6975 36.1243 99.6917 36.143C99.6859 36.1617 99.6764 36.1791 99.6639 36.1941C99.6513 36.2092 99.6358 36.2216 99.6184 36.2307C99.601 36.2398 99.582 36.2454 99.5624 36.2471C99.5577 36.2476 99.5531 36.2477 99.5484 36.2475Z" fill="#91B3FA"/>
<path d="M90.6172 44.0656V41.2153C90.6171 40.9818 90.6643 40.7507 90.7559 40.5357C90.8475 40.3208 90.9816 40.1264 91.1503 39.9642C91.319 39.802 91.5187 39.6752 91.7377 39.5915C91.9566 39.5078 92.1902 39.4688 92.4246 39.4769L112.165 40.1503C112.588 40.1648 112.99 40.3356 113.293 40.6295C113.596 40.9235 113.778 41.3193 113.803 41.7396L113.968 44.4783L90.6172 44.0656Z" fill="url(#paint7_linear_1_15667)"/>
<path d="M97.9786 40.551H97.1302C97.0905 40.551 97.0524 40.5353 97.0243 40.5073C96.9962 40.4794 96.9805 40.4414 96.9805 40.4019C96.9805 40.3624 96.9962 40.3244 97.0243 40.2965C97.0524 40.2685 97.0905 40.2528 97.1302 40.2528H97.9786C98.0183 40.2528 98.0564 40.2685 98.0845 40.2965C98.1126 40.3244 98.1284 40.3624 98.1284 40.4019C98.1284 40.4414 98.1126 40.4794 98.0845 40.5073C98.0564 40.5353 98.0183 40.551 97.9786 40.551Z" fill="#91B3FA"/>
<path d="M91.6849 43.1706C91.6452 43.1706 91.6071 43.1549 91.579 43.1269C91.5509 43.0989 91.5352 43.061 91.5352 43.0215V41.8681C91.5352 41.4395 91.7062 41.0286 92.0105 40.7256C92.3149 40.4225 92.7277 40.2523 93.1581 40.2523H96.2791C96.3188 40.2523 96.3569 40.268 96.385 40.296C96.4131 40.3239 96.4288 40.3619 96.4288 40.4014C96.4288 40.4409 96.4131 40.4789 96.385 40.5068C96.3569 40.5348 96.3188 40.5505 96.2791 40.5505H93.1581C92.8073 40.5509 92.471 40.6898 92.2229 40.9367C91.9748 41.1836 91.8352 41.5184 91.8347 41.8677V43.0211C91.8347 43.0407 91.8309 43.0601 91.8234 43.0783C91.8159 43.0964 91.8049 43.1129 91.7909 43.1268C91.777 43.1407 91.7605 43.1517 91.7423 43.1592C91.7241 43.1667 91.7046 43.1706 91.6849 43.1706Z" fill="#91B3FA"/>
<path d="M82.5741 44.7853C82.5971 44.3102 82.8029 43.8621 83.1488 43.5339C83.4947 43.2058 83.9542 43.0227 84.4321 43.0227H118.952C119.553 43.0227 120.135 43.234 120.595 43.6194C121.055 44.0049 121.363 44.5396 121.466 45.1294L121.495 45.2972C121.549 45.6105 121.534 45.9319 121.451 46.2388C121.368 46.5457 121.218 46.8308 121.012 47.074C120.806 47.3173 120.55 47.5129 120.26 47.647C119.971 47.7812 119.655 47.8508 119.336 47.8508H83.9208C83.7279 47.8508 83.5371 47.8119 83.3598 47.7363C83.1825 47.6607 83.0225 47.55 82.8894 47.4111C82.7564 47.2721 82.653 47.1076 82.5857 46.9277C82.5184 46.7478 82.4885 46.5561 82.4977 46.3643L82.5741 44.7853Z" fill="#7D97F4"/>
<path d="M102.466 69.1773C102.697 68.9616 102.972 68.797 103.272 68.6943C103.572 68.5916 103.89 68.5531 104.206 68.5814C111.038 69.1931 123.786 65.9165 132.117 57.4298C132.696 56.8423 133.75 57.1728 134.413 57.667C143.679 64.5611 159.038 65.9888 164.37 66.2808C164.904 66.3107 165.41 66.529 165.797 66.8967C166.184 67.2643 166.426 67.7572 166.481 68.2869C171.33 114.909 140.839 131.803 134.515 134.785C134.174 134.945 133.798 135.018 133.422 134.996C133.045 134.974 132.68 134.859 132.36 134.661C100.842 115.116 102.19 89.6994 101.755 70.8665C101.747 70.551 101.807 70.2374 101.929 69.9463C102.052 69.6552 102.235 69.3932 102.466 69.1773Z" fill="url(#paint8_linear_1_15667)"/>
<path d="M133.663 131.429C133.513 131.429 133.367 131.387 133.242 131.307C121.153 123.613 113.273 114.415 109.153 103.187C105.473 93.159 105.293 82.9504 105.135 73.9441L105.113 72.7437C105.111 72.6413 105.13 72.5395 105.168 72.4443C105.206 72.3491 105.262 72.2625 105.335 72.1896C105.407 72.1156 105.494 72.0568 105.59 72.0169C105.686 71.977 105.789 71.9566 105.893 71.9572C113.37 71.9572 124.594 68.6702 132.825 61.3271C132.953 61.2127 133.116 61.144 133.288 61.1317C133.46 61.1193 133.631 61.164 133.774 61.2588C142.819 67.2337 155.725 68.9739 162.613 69.4792C162.797 69.4923 162.97 69.5705 163.102 69.6997C163.233 69.8289 163.314 70.0007 163.329 70.1839C164.932 88.3826 161.129 103.773 152.027 115.925C145.229 125.003 137.167 129.733 134.016 131.344C133.907 131.4 133.786 131.429 133.663 131.429ZM105.899 72.3236C105.843 72.3228 105.787 72.3332 105.736 72.3544C105.684 72.3755 105.637 72.4069 105.597 72.4467C105.56 72.485 105.53 72.5304 105.51 72.5802C105.49 72.6301 105.48 72.6834 105.481 72.7371L105.503 73.9375C105.661 82.9152 105.841 93.091 109.499 103.061C113.59 114.211 121.422 123.349 133.44 130.998C133.5 131.037 133.57 131.059 133.641 131.062C133.713 131.066 133.784 131.051 133.848 131.018C136.976 129.418 144.98 124.722 151.732 115.705C160.779 103.626 164.557 88.3213 162.963 70.2147C162.955 70.1182 162.913 70.0276 162.844 69.9595C162.775 69.8915 162.683 69.8504 162.586 69.8438C155.663 69.3356 142.686 67.5844 133.571 61.5628C133.495 61.5131 133.405 61.4897 133.315 61.4963C133.224 61.5029 133.139 61.5393 133.071 61.5995C124.767 69.0077 113.441 72.3222 105.9 72.3222L105.899 72.3236Z" fill="#91B3FA"/>
<path d="M143.883 76.9241L151.187 91.5462L160.576 70.7751L150.823 81.5249L143.883 76.9241Z" fill="url(#paint9_linear_1_15667)"/>
</g>
</g>
<defs>
<linearGradient id="paint0_linear_1_15667" x1="103.407" y1="128.497" x2="98.4186" y2="-19.8054" gradientUnits="userSpaceOnUse">
<stop stop-color="#FFBE2E"/>
<stop offset="1" stop-color="#1A0F91"/>
</linearGradient>
<linearGradient id="paint1_linear_1_15667" x1="89.2385" y1="61.9821" x2="102.988" y2="24.3169" gradientUnits="userSpaceOnUse">
<stop stop-color="#FF928E"/>
<stop offset="1" stop-color="#FE7062"/>
</linearGradient>
<linearGradient id="paint2_linear_1_15667" x1="16412.8" y1="6393.56" x2="17189.1" y2="781.342" gradientUnits="userSpaceOnUse">
<stop stop-color="#FF928E"/>
<stop offset="1" stop-color="#FE7062"/>
</linearGradient>
<linearGradient id="paint3_linear_1_15667" x1="6419.85" y1="10629.2" x2="2807.16" y2="15298.3" gradientUnits="userSpaceOnUse">
<stop stop-color="#E1473D"/>
<stop offset="1" stop-color="#E9605A"/>
</linearGradient>
<linearGradient id="paint4_linear_1_15667" x1="6798.54" y1="12005.5" x2="2283.18" y2="16773" gradientUnits="userSpaceOnUse">
<stop stop-color="#E1473D"/>
<stop offset="1" stop-color="#E9605A"/>
</linearGradient>
<linearGradient id="paint5_linear_1_15667" x1="7255.07" y1="5873.41" x2="3643.1" y2="10542.3" gradientUnits="userSpaceOnUse">
<stop stop-color="#E1473D"/>
<stop offset="1" stop-color="#E9605A"/>
</linearGradient>
<linearGradient id="paint6_linear_1_15667" x1="14858.7" y1="2254.61" x2="8654.36" y2="9896.73" gradientUnits="userSpaceOnUse">
<stop stop-color="#FFBE2E"/>
<stop offset="1" stop-color="#1A0F91"/>
</linearGradient>
<linearGradient id="paint7_linear_1_15667" x1="42954.6" y1="1566.09" x2="41830.6" y2="8467.98" gradientUnits="userSpaceOnUse">
<stop stop-color="#FFBE2E"/>
<stop offset="1" stop-color="#1A0F91"/>
</linearGradient>
<linearGradient id="paint8_linear_1_15667" x1="121.636" y1="100.148" x2="183.897" y2="57.1973" gradientUnits="userSpaceOnUse">
<stop stop-color="#FFBE2E"/>
<stop offset="1" stop-color="#FFBE2E"/>
</linearGradient>
<linearGradient id="paint9_linear_1_15667" x1="33392.9" y1="33751.2" x2="59173.6" y2="8678.62" gradientUnits="userSpaceOnUse">
<stop stop-color="#FF928E"/>
<stop offset="1" stop-color="#FE7062"/>
</linearGradient>
<clipPath id="clip0_1_15667">
<rect width="235.2" height="145.7" fill="white"/>
</clipPath>
<clipPath id="clip1_1_15667">
<rect width="99" height="103" fill="white" transform="translate(68 32)"/>
</clipPath>
</defs>
</svg>
