<svg width="236" height="146" viewBox="0 0 236 146" fill="none" xmlns="http://www.w3.org/2000/svg">
<g clip-path="url(#clip0_1_15858)">
<path d="M233.199 82.4C233.199 83.2 233.199 83.9 233.199 84.7C233.199 86.1 233.099 87.5 233.099 88.9C231.899 118.2 222.699 145.6 222.699 145.6H168.599H163.999H155.499H141.899H130.299H106.899H101.799H89.9995H73.2995H56.5995H4.69948C-5.70052 125.9 3.59948 118.8 10.4995 108.7C14.1995 103.3 17.1995 97.1 16.0995 87.6C15.6995 84.3 14.7995 80.6 13.2995 76.5C12.5995 74.6 12.3995 72.7 12.0995 70.8C11.9995 70 11.7995 69.1 11.6995 68.3C11.6995 68.1 11.5995 67.9 11.5995 67.6C6.19948 25 28.4995 4.79999 63.2995 1.39999C90.5995 -1.30001 101.899 6.79999 109.099 13.2C132.799 34.3 134.599 14.4 185.399 18.8C212.899 21.2 225.599 37.8 230.499 58.2C230.799 59.6 231.099 61 231.399 62.4C231.499 63.2 231.699 63.9 231.799 64.7C231.999 66.1 232.199 67.5 232.399 68.9C232.499 69.7 232.599 70.5 232.599 71.3C232.699 72.7 232.799 74.1 232.899 75.5C232.899 76.3 232.999 77.2 232.999 78C233.199 79.6 233.199 81 233.199 82.4Z" fill="#EBF3FA"/>
<path d="M218.497 144.8L217.097 58.6999C216.997 51.9999 211.397 46.5999 204.697 46.7999L101.197 48.4999C95.4969 48.5999 90.8969 53.0999 90.6969 58.7999L87.7969 144.6C131.297 144.7 174.897 144.7 218.497 144.8Z" fill="url(#paint0_linear_1_15858)"/>
<path d="M209.499 144.8L208.499 48.9999C208.499 46.8999 206.599 45.1999 204.399 45.4999C190.299 47.6999 141.799 54.3999 101.499 51.9999C99.6992 51.8999 98.0992 53.2999 97.9992 55.0999L94.6992 144.6C132.999 144.7 171.199 144.7 209.499 144.8Z" fill="#7D7A7A"/>
<path d="M206.597 144L205.597 52C205.597 49.9 203.697 48.4 201.697 48.7C188.097 50.8 141.397 57.2 102.697 54.9C100.897 54.8 99.3969 56.2 99.3969 57.9L96.2969 143.8C132.997 143.9 169.797 143.9 206.597 144Z" fill="#FFEECC"/>
<g opacity="0.6">
<path opacity="0.6" d="M105.199 68.4C104.599 68.4 104.199 68 104.199 67.4V67.3C104.199 66.7 104.699 66.3 105.299 66.3L193.199 64.1C193.799 64.1 193.899 64.4 193.599 64.9L192.699 66.1C192.399 66.5 191.599 66.9 191.099 66.9L105.199 68.4Z" fill="#DBA3A3"/>
</g>
<g opacity="0.6">
<path opacity="0.6" d="M193.298 70C193.898 70 193.998 70.3 193.698 70.8L192.798 72C192.498 72.4 191.698 72.8 191.198 72.8L105.398 74.2C104.798 74.2 104.398 73.8 104.398 73.2V73.1C104.398 72.5 104.898 72.1 105.498 72.1L193.298 70Z" fill="#DBA3A3"/>
</g>
<path d="M176.098 120.1C176.098 115.6 176.098 111.3 176.698 109.1C177.098 107.7 178.398 106.8 179.998 106.9C182.198 107 185.798 107.3 189.098 107.7C190.598 107.8 191.898 108 192.898 108.1C193.598 108.2 194.298 108.5 194.698 109C195.098 109.5 195.298 110 195.198 110.6L193.998 120.3C193.798 121.8 192.398 122.9 190.698 122.9L178.998 122.8C177.398 122.8 176.098 121.6 176.098 120.1ZM192.798 108.9C191.798 108.8 190.498 108.7 188.998 108.5C185.898 108.2 182.098 107.8 179.998 107.7C178.898 107.6 177.898 108.3 177.598 109.3C176.998 111.4 176.998 115.6 176.998 120C176.998 121 177.898 121.8 178.998 121.8L190.698 121.9C191.898 121.9 192.898 121.1 192.998 120.1L194.198 110.4C194.198 110.1 194.098 109.8 193.898 109.5C193.698 109.2 193.298 109 192.798 108.9Z" fill="white"/>
<path opacity="0.6" d="M191.498 109.9C189.098 109.7 183.698 109.1 181.198 109C180.098 109 179.198 109.6 178.898 110.5C178.398 112.3 178.398 115.9 178.398 119.2C178.398 120.2 179.298 121 180.398 121L189.698 121.1C190.798 121.1 191.798 120.3 191.898 119.3L192.798 111.5C193.098 110.7 192.398 110 191.498 109.9Z" fill="white"/>
<g opacity="0.6">
<path opacity="0.6" d="M168.898 112.5C169.498 112.5 169.798 112.9 169.598 113.5L168.498 117.3C168.298 117.8 167.798 118.3 167.198 118.3L108.598 117.4C107.998 117.4 107.598 116.9 107.598 116.4L107.698 114.1C107.698 113.5 108.198 113.1 108.698 113.1L168.898 112.5Z" fill="#DBA3A3"/>
</g>
<path d="M175.398 93.9999C175.398 89.4999 175.398 85.1999 175.998 82.9999C176.398 81.5999 177.698 80.6999 179.298 80.7999C181.498 80.8999 185.098 81.1999 188.398 81.5999C189.898 81.7999 191.198 81.8999 192.198 81.9999C192.898 82.0999 193.598 82.3999 193.998 82.8999C194.398 83.3999 194.598 83.8999 194.498 84.4999L193.298 94.1999C193.098 95.6999 191.698 96.7999 189.998 96.7999L178.298 96.6999C176.698 96.6999 175.398 95.4999 175.398 93.9999ZM192.098 82.7999C191.098 82.6999 189.798 82.5999 188.298 82.3999C185.198 82.0999 181.398 81.6999 179.298 81.5999C178.198 81.4999 177.198 82.1999 176.898 83.1999C176.298 85.2999 176.298 89.4999 176.298 93.8999C176.298 94.8999 177.198 95.6999 178.298 95.6999L189.998 95.7999C191.198 95.7999 192.198 94.9999 192.298 93.9999L193.498 84.2999C193.498 83.9999 193.398 83.6999 193.198 83.3999C192.998 83.0999 192.598 82.8999 192.098 82.7999Z" fill="white"/>
<path opacity="0.6" d="M190.897 83.7999C188.497 83.5999 183.097 82.9999 180.597 82.8999C179.497 82.8999 178.597 83.4999 178.297 84.3999C177.797 86.1999 177.797 89.7999 177.797 93.0999C177.797 94.0999 178.697 94.8999 179.797 94.8999L189.097 94.9999C190.197 94.9999 191.197 94.1999 191.297 93.1999L192.197 85.3999C192.397 84.5999 191.797 83.8999 190.897 83.7999Z" fill="white"/>
<g opacity="0.6">
<path opacity="0.6" d="M168.2 86.3999C168.8 86.3999 169.1 86.7999 168.9 87.3999L167.8 91.1999C167.6 91.6999 167.1 92.1999 166.5 92.1999L108 91.2999C107.4 91.2999 107 90.7999 107 90.2999L107.1 87.9999C107.1 87.3999 107.6 86.9999 108.1 86.9999L168.2 86.3999Z" fill="#DBA3A3"/>
</g>
<path d="M176.598 144.7C176.598 140.4 176.598 136.3 177.198 134.3C177.498 133.4 178.498 132.7 179.598 132.7C181.698 132.8 185.498 133.1 188.598 133.5C190.098 133.7 191.498 133.8 192.398 133.9C192.898 133.9 193.298 134.1 193.498 134.5C193.698 134.8 193.798 135.1 193.798 135.4L192.698 144.8C192.998 144.8 193.298 144.8 193.698 144.8L194.798 135.5C194.898 134.9 194.698 134.3 194.298 133.9C193.898 133.4 193.198 133 192.498 133C191.498 132.9 190.198 132.8 188.698 132.6C185.498 132.3 181.798 131.9 179.598 131.8C178.098 131.8 176.698 132.7 176.298 134C175.698 136.2 175.598 140.3 175.698 144.7C175.998 144.7 176.298 144.7 176.598 144.7Z" fill="white"/>
<path opacity="0.6" d="M178.298 144.7C182.698 144.7 187.098 144.7 191.598 144.7C191.698 144.5 191.698 144.3 191.798 144.1L192.698 136.3C192.798 135.5 192.098 134.8 191.198 134.7C188.798 134.5 183.398 133.9 180.898 133.8C179.798 133.8 178.898 134.4 178.598 135.3C178.098 137.1 178.098 140.7 178.098 144C178.098 144.3 178.198 144.5 178.298 144.7Z" fill="white"/>
<g opacity="0.6">
<path opacity="0.6" d="M168.499 137.5C169.099 137.5 169.399 137.9 169.199 138.5L168.099 142.3C167.899 142.8 167.399 143.3 166.799 143.3L108.199 142.4C107.599 142.4 107.199 141.9 107.199 141.4L107.299 139.1C107.299 138.5 107.799 138.1 108.299 138.1L168.499 137.5Z" fill="#DBA3A3"/>
</g>
<path d="M146.198 42.0999L157.898 40.9L158.698 30.1C158.898 27.9 157.498 25.9 155.398 25.4C153.098 24.8 149.798 24.8 146.198 27.4C138.898 32.5999 146.198 42.0999 146.198 42.0999ZM148.498 33.0999C148.498 31.4999 149.798 30.2 151.398 30.1C152.998 30 154.398 31.4 154.398 33C154.398 34.6 153.098 35.9 151.498 36C149.898 36 148.498 34.6999 148.498 33.0999Z" fill="#FFBE2E"/>
<path d="M156.597 36.5999C156.297 36.5999 155.997 36.3 156.097 36L156.197 34.3C156.197 34 156.497 33.7 156.797 33.8C157.097 33.8 157.397 34.1 157.297 34.4L157.197 36.0999C157.197 36.2999 156.997 36.4999 156.797 36.5999C156.797 36.5999 156.697 36.5999 156.597 36.5999ZM156.897 33.3C156.597 33.3 156.297 33 156.397 32.7L156.497 31.4C156.597 29.7 155.597 28.2 153.997 27.8C152.697 27.4 151.397 27.4 150.097 27.7C149.797 27.8 149.497 27.6 149.397 27.3C149.297 27 149.497 26.7 149.797 26.6C151.297 26.3 152.797 26.3 154.197 26.7C156.297 27.3 157.797 29.3 157.597 31.5L157.497 32.8C157.497 33 157.297 33.2 157.097 33.3C157.097 33.2 156.997 33.3 156.897 33.3Z" fill="#BDD0FB"/>
<path d="M174.1 47.4999L174 42.0999C174 40.1999 172.4 38.7999 170.5 38.8999L133.2 40.7999C131.5 40.8999 130.2 42.1999 130.2 43.8999L130 49.0999L174.1 47.4999Z" fill="#FFBE2E"/>
<path d="M161.599 41.1C161.799 41.1 161.899 40.9 161.899 40.8C161.899 40.6 161.699 40.5 161.599 40.5H159.999C159.799 40.5 159.699 40.7 159.699 40.8C159.699 41 159.899 41.1 159.999 41.1H161.599Z" fill="#BDD0FB"/>
<path d="M172.199 46.0999C172.399 45.9999 172.599 45.7999 172.599 45.4999V43.2999C172.599 42.3999 172.199 41.5999 171.599 40.8999C170.999 40.2999 170.099 39.8999 169.199 39.9999L163.299 40.0999C162.999 40.0999 162.699 40.3999 162.699 40.6999C162.699 40.9999 162.999 41.2999 163.299 41.2999L169.199 41.1999C170.399 41.1999 171.399 42.1999 171.399 43.3999V45.5999C171.399 45.8999 171.699 46.1999 171.999 46.1999C172.099 46.0999 172.199 46.0999 172.199 46.0999Z" fill="#BDD0FB"/>
<path d="M185.7 45.2999L120.4 46.3999C118.1 46.3999 116.1 48.1999 115.7 50.4999V50.7999C115.3 53.2999 117.3 55.5999 119.9 55.5999L186.9 54.4999C188.4 54.4999 189.6 53.1999 189.5 51.5999L189.3 48.5999C189.2 46.6999 187.6 45.2999 185.7 45.2999Z" fill="#FFBE2E"/>
<path d="M191.297 113.2C190.597 112.7 189.597 112.8 189.097 113.5L186.597 116.8C186.297 117.1 185.797 117 185.697 116.6L182.297 104.9C182.097 104.3 181.297 104.4 181.197 105C180.797 108.4 180.797 114.9 185.397 121C185.397 121 188.497 120.3 191.697 115.3C192.097 114.6 191.997 113.7 191.297 113.2Z" fill="#FFBE2E"/>
<path d="M190.398 85.3999C189.698 84.8999 188.698 84.9999 188.198 85.6999L185.698 88.9999C185.398 89.2999 184.898 89.1999 184.798 88.7999L181.398 77.0999C181.198 76.4999 180.398 76.5999 180.298 77.1999C179.898 80.5999 179.898 87.0999 184.498 93.1999C184.498 93.1999 187.598 92.4999 190.798 87.4999C191.198 86.8999 191.098 85.8999 190.398 85.3999Z" fill="#FFBE2E"/>
<path d="M184.797 144.7C185.897 144.2 188.097 142.8 190.297 139.3C190.797 138.6 190.597 137.6 189.897 137.1C189.197 136.6 188.197 136.7 187.697 137.4L185.197 140.7C184.897 141 184.397 140.9 184.297 140.5L180.897 128.8C180.697 128.2 179.897 128.3 179.797 128.9C179.397 132.2 179.397 138.6 183.797 144.7C184.197 144.7 184.497 144.7 184.797 144.7Z" fill="#FFBE2E"/>
<path d="M113.699 89.0999L109.799 91.1999C105.099 93.9999 100.899 95.4999 97.1992 96.0999C85.4992 97.8999 77.7992 90.4999 72.0992 85.9999C64.5992 80.0999 58.6992 82.9999 58.6992 82.9999L66.6992 98.2999C78.6992 109.6 90.9992 107.1 98.7992 103.4C103.699 101.1 106.799 98.2999 106.799 98.2999C115.699 92.9999 113.699 89.0999 113.699 89.0999Z" fill="url(#paint1_linear_1_15858)"/>
<path d="M125.198 94.6C124.898 93.8 124.298 93.1 123.498 92.8L115.598 89.6C115.598 89.6 115.498 88.6 117.298 87.9C119.098 87.2 118.698 85.2 118.698 85.2C118.698 85.2 116.298 86.3 112.698 88.1C110.698 89.1 109.498 90.9 108.898 92.2L110.898 94.9C115.798 96.4 120.698 96.6 125.698 96.1L125.198 94.6Z" fill="url(#paint2_linear_1_15858)"/>
<path d="M44.5996 144.7C44.3996 139.3 43.7996 122.8 44.5996 144.7V144.7Z" fill="url(#paint3_linear_1_15858)"/>
<path d="M49.5992 144.7C51.6992 144.7 53.8992 144.7 55.9992 144.7C55.5992 133.5 55.5992 125.4 55.6992 125L44.1992 127.2L44.6992 144.7C46.2992 144.7 47.8992 144.7 49.5992 144.7Z" fill="url(#paint4_linear_1_15858)"/>
<path d="M46.9977 144.7C46.9977 144.6 46.9977 144.5 47.0977 144.4C47.2977 143.6 47.7977 142.9 48.4977 142.4L55.4977 136.7L55.5977 124.5L35.1977 127.3C34.2977 132.7 33.7977 138.6 33.5977 144.8C37.9977 144.7 42.4977 144.7 46.9977 144.7Z" fill="url(#paint5_linear_1_15858)"/>
<path d="M61.1987 81.3C49.1987 81.1 35.9987 84.4 35.9987 84.4C33.0987 101.6 34.1987 120.6 34.7987 126.9C34.8987 128.2 34.1987 129.5 35.4987 129.8C41.7987 130.8 51.6987 129.8 54.6987 128.9C55.7987 128.6 55.5987 127.4 55.8987 126.2C57.9987 116.3 63.7987 94.6 63.7987 94.6C66.6987 98.3 70.6987 103.4 76.5987 104.8C73.5987 101.3 79.3987 93.9 78.7987 91.3C73.4987 85.2 64.8987 81.3 61.1987 81.3Z" fill="url(#paint6_linear_1_15858)"/>
<path d="M49.097 71.5L45.297 82.5C45.197 82.7 45.297 82.9 45.497 83C46.497 83.6 50.297 85.2 54.797 82.4C55.297 82.1 55.597 81.6 55.697 81.1L56.897 71.6H49.097V71.5Z" fill="url(#paint7_linear_1_15858)"/>
<path d="M57.3977 61.2999C57.3977 61.2999 61.5977 69.1999 61.0977 72.3999C60.5977 75.5999 55.3977 75.3999 50.7977 72.7999L47.5977 64.2999L57.3977 61.2999Z" fill="url(#paint8_linear_1_15858)"/>
<path d="M50.997 68.5999C51.197 68.4999 51.297 68.2999 51.097 68.0999C50.797 67.5999 50.097 66.4999 49.897 65.5999C49.897 65.5999 49.097 65.0999 51.797 64.4999C53.297 64.1999 55.797 63.8999 56.997 62.7999C58.297 61.5999 55.897 59.3999 54.897 58.7999C53.597 57.9999 51.997 57.5999 50.597 57.8999C49.897 58.0999 49.297 58.4999 48.597 58.7999C47.497 59.3999 46.397 60.0999 45.697 61.0999C45.297 61.7999 44.997 62.5999 44.797 63.2999C44.497 64.3999 44.197 65.5999 44.297 66.6999C44.397 69.7999 48.097 72.4999 50.997 72.8999C51.197 72.8999 51.397 72.6999 51.297 72.4999L50.097 69.0999C49.997 68.8999 50.097 68.7999 50.297 68.6999L50.997 68.5999Z" fill="url(#paint9_linear_1_15858)"/>
<path d="M51.3973 69.0999C51.3973 69.0999 48.3973 67.0999 48.1973 68.7999C47.9973 70.4999 50.8973 71.2999 52.2973 70.6999L51.3973 69.0999Z" fill="url(#paint10_linear_1_15858)"/>
<path d="M58.8996 59.3999C52.7996 47.8999 36.8996 58.2999 44.2996 68.0999C49.7996 64.3999 55.9996 58.9999 58.8996 59.3999Z" fill="#FFBE2E"/>
<path d="M49.2977 64.3L60.2977 64C60.5977 64 60.7977 63.7999 60.9977 63.5999C61.9977 61.7999 63.3977 60.6999 65.1977 60.0999C65.3977 59.9999 65.3977 59.7 65.0977 59.7L58.3977 59.2C54.9977 59.5 52.0977 61.4999 49.1977 64.0999C49.0977 64.0999 49.1977 64.3 49.2977 64.3Z" fill="url(#paint11_linear_1_15858)"/>
<path d="M37.2992 101.9C43.9992 94.3999 43.2992 88.5999 35.7992 84.3999C35.7992 84.3999 23.1992 92.8999 21.1992 103.7C23.5992 103.9 27.8992 104.5 32.0992 106.6C32.9992 101.6 37.2992 101.9 37.2992 101.9Z" fill="url(#paint12_linear_1_15858)"/>
<path d="M51.8984 109.6C51.8984 109.6 37.7984 117.6 32.9984 110.8C31.9984 109.4 31.7984 108 31.9984 106.6C27.7984 104.5 23.4984 103.9 21.0984 103.7C20.4984 107 20.7984 110.4 22.6984 113.9C30.9984 129.1 53.6984 113.1 53.6984 113.1L51.8984 109.6Z" fill="url(#paint13_linear_1_15858)"/>
<path d="M50.199 119.7L57.899 92.9C57.999 92.6 58.199 92.4 58.599 92.3C59.999 92.1 63.999 91.7 68.699 91.3C74.299 90.8 80.899 90.4 84.799 90.8C85.399 90.8 85.699 91.4 85.399 91.9C83.199 96.4 74.099 114.6 69.499 120.6C69.299 120.8 69.099 120.9 68.899 120.9L50.999 120.7C50.499 120.7 50.099 120.2 50.199 119.7Z" fill="url(#paint14_linear_1_15858)"/>
<path d="M69.4971 89L75.0971 88.1C75.3971 88.1 75.5971 88.3 75.4971 88.6L74.9971 90.2C74.9971 90.3 74.7971 90.5 74.6971 90.5L69.2971 91.2C68.9971 91.2 68.7971 91 68.8971 90.7L69.1971 89.2C69.1971 89.1 69.2971 89 69.4971 89Z" fill="url(#paint15_linear_1_15858)"/>
<path d="M65.2969 93.6999L65.7969 91.2999C65.7969 91.0999 65.9969 90.8999 66.2969 90.8999L77.5969 89.7999C77.9969 89.7999 78.2969 90.0999 78.1969 90.4999L77.4969 93.4999C77.3969 93.6999 77.1969 93.8999 76.9969 93.8999L65.9969 94.4999C65.4969 94.3999 65.2969 93.9999 65.2969 93.6999Z" fill="url(#paint16_linear_1_15858)"/>
<path d="M52.0975 113.2C52.0975 113.2 50.9975 108.8 51.4975 107.2C51.8975 105.6 52.7975 103.6 55.5975 104.1C58.3975 104.5 61.6975 105.7 61.6975 105.7C61.6975 105.7 61.4975 107.7 59.3975 107.1L60.6975 108.1C60.6975 108.1 60.4975 109.7 58.6975 108.9L59.8975 110.2C59.8975 110.2 59.0975 111.5 57.7975 110.7C56.4975 109.9 55.7975 113.8 52.0975 113.2Z" fill="url(#paint17_linear_1_15858)"/>
<path d="M47.5969 96.5C46.6969 96.6 39.2969 96.8 39.2969 96.8L39.5969 104.3L43.4969 106.5L47.6969 104.3V96.5H47.5969Z" fill="url(#paint18_linear_1_15858)"/>
<path d="M48.1984 96.5L39.2984 96.8L38.8984 99.7L43.4984 100.9L48.3984 98.7L48.1984 96.5Z" fill="url(#paint19_linear_1_15858)"/>
<path d="M150.2 144.7V126.5C150.2 122.9 147.3 119.9 143.6 119.9C132.7 119.8 110.1 119.8 91.7 121.3C89.2 121.5 87.2 123.6 87.1 126.1L86 144.7C107.4 144.7 128.8 144.7 150.2 144.7Z" fill="url(#paint20_linear_1_15858)"/>
<path d="M143.897 129.5C143.897 131.9 143.897 135.6 143.797 138C143.797 139.3 142.697 140.2 141.397 140.1L132.397 139C131.197 138.9 130.397 137.8 130.497 136.6L131.597 129.3C131.797 128.3 132.697 127.5 133.697 127.5H141.697C142.897 127.4 143.897 128.3 143.897 129.5Z" fill="white"/>
<path opacity="0.37" d="M120.4 143.4L112.9 144.2C111.9 144.3 111 143.4 111 142.4L112.6 120.1C115.7 120 118.8 119.9 121.8 119.9V141.7C121.9 142.6 121.3 143.3 120.4 143.4Z" fill="white"/>
<path d="M117.297 139.5C117.297 139.9 116.897 140.2 116.497 140.2C116.097 140.2 115.797 139.8 115.797 139.4L116.997 120C117.497 120 117.997 120 118.497 120L117.297 139.5Z" fill="white"/>
<path d="M139.7 136.5C139.8 136.5 139.9 136.4 140 136.3L140.4 130.2C140.4 130.1 140.3 129.9 140.2 129.9C140.1 129.9 139.9 130 139.9 130.1L139.5 136.2C139.5 136.4 139.6 136.5 139.7 136.5Z" fill="url(#paint21_linear_1_15858)"/>
<path d="M138.899 136.5C138.999 136.5 139.099 136.4 139.199 136.3L139.399 130.1C139.399 130 139.299 129.8 139.199 129.8C138.999 129.8 138.899 129.9 138.899 130L138.699 136.2C138.699 136.4 138.799 136.5 138.899 136.5Z" fill="url(#paint22_linear_1_15858)"/>
<path d="M137.899 136.5C137.799 136.5 137.699 136.4 137.699 136.2C137.799 134.1 137.999 130.1 137.999 130C137.999 129.9 138.099 129.8 138.299 129.8C138.399 129.8 138.599 129.9 138.599 130.1C138.599 130.2 138.399 135.3 138.299 136.3C138.099 136.4 137.999 136.5 137.899 136.5Z" fill="url(#paint23_linear_1_15858)"/>
<path d="M136.199 136.7C136.499 136.7 136.699 136.5 136.699 136.2C136.899 130.2 136.899 130 136.899 129.9C136.799 129.6 136.499 129.5 136.299 129.5C136.099 129.6 135.899 129.8 135.899 130.1C135.899 130.5 135.799 134 135.699 136.1C135.699 136.5 135.899 136.7 136.199 136.7Z" fill="url(#paint24_linear_1_15858)"/>
<path d="M135.097 136.5C135.197 136.5 135.397 136.4 135.397 136.2V130.1C135.397 130 135.297 129.8 135.097 129.8C134.997 129.8 134.797 129.9 134.797 130.1V136.2C134.897 136.4 134.997 136.5 135.097 136.5Z" fill="url(#paint25_linear_1_15858)"/>
<path d="M134.2 136.5C134.3 136.5 134.4 136.4 134.5 136.3C134.5 134.2 134.7 130.7 134.8 130.3C134.8 130.2 134.8 130.1 134.8 130C134.7 129.9 134.6 129.9 134.5 129.9C134.4 130 134.2 130.1 134.1 136.2C134 136.4 134.1 136.5 134.2 136.5Z" fill="url(#paint26_linear_1_15858)"/>
<path d="M141.098 137.1C141.398 137.1 141.598 136.9 141.598 136.6L141.898 130.2C141.898 129.9 141.698 129.7 141.398 129.7C141.098 129.7 140.898 129.9 140.898 130.2L140.598 136.6C140.598 136.8 140.798 137 141.098 137.1Z" fill="url(#paint27_linear_1_15858)"/>
</g>
<defs>
<linearGradient id="paint0_linear_1_15858" x1="85.494" y1="95.7975" x2="219.61" y2="95.7975" gradientUnits="userSpaceOnUse">
<stop stop-color="#7D7A7A"/>
<stop offset="1" stop-color="#3E3B3B"/>
</linearGradient>
<linearGradient id="paint1_linear_1_15858" x1="121.808" y1="41.8429" x2="26.1887" y2="164.43" gradientUnits="userSpaceOnUse">
<stop stop-color="#FEBBBA"/>
<stop offset="1" stop-color="#FF928E"/>
</linearGradient>
<linearGradient id="paint2_linear_1_15858" x1="132.88" y1="73.8689" x2="79.0236" y2="142.914" gradientUnits="userSpaceOnUse">
<stop stop-color="#FEBBBA"/>
<stop offset="1" stop-color="#FF928E"/>
</linearGradient>
<linearGradient id="paint3_linear_1_15858" x1="28.5662" y1="70.1184" x2="54.2416" y2="181.946" gradientUnits="userSpaceOnUse">
<stop stop-color="#3E3B3B"/>
<stop offset="1" stop-color="#3E3B3B"/>
</linearGradient>
<linearGradient id="paint4_linear_1_15858" x1="34.9831" y1="68.645" x2="60.6584" y2="180.473" gradientUnits="userSpaceOnUse">
<stop stop-color="#3E3B3B"/>
<stop offset="1" stop-color="#3E3B3B"/>
</linearGradient>
<linearGradient id="paint5_linear_1_15858" x1="29.2303" y1="67.9597" x2="55.2363" y2="181.228" gradientUnits="userSpaceOnUse">
<stop stop-color="#3E3B3B"/>
<stop offset="1" stop-color="#5B5454"/>
</linearGradient>
<linearGradient id="paint6_linear_1_15858" x1="115.86" y1="166.697" x2="174.535" y2="222.854" gradientUnits="userSpaceOnUse">
<stop stop-color="#FFBE2E"/>
<stop offset="1" stop-color="#1A0F91"/>
</linearGradient>
<linearGradient id="paint7_linear_1_15858" x1="45.2204" y1="77.7993" x2="56.8337" y2="77.7993" gradientUnits="userSpaceOnUse">
<stop stop-color="#FEBBBA"/>
<stop offset="1" stop-color="#FF928E"/>
</linearGradient>
<linearGradient id="paint8_linear_1_15858" x1="59.5908" y1="70.4353" x2="46.8358" y2="62.6397" gradientUnits="userSpaceOnUse">
<stop stop-color="#FEBBBA"/>
<stop offset="1" stop-color="#FF928E"/>
</linearGradient>
<linearGradient id="paint9_linear_1_15858" x1="41.6372" y1="57.7021" x2="55.4821" y2="68.6597" gradientUnits="userSpaceOnUse">
<stop stop-color="#09005D"/>
<stop offset="1" stop-color="#1A0F91"/>
</linearGradient>
<linearGradient id="paint10_linear_1_15858" x1="56.2352" y1="73.3353" x2="44.7593" y2="66.3216" gradientUnits="userSpaceOnUse">
<stop stop-color="#FEBBBA"/>
<stop offset="1" stop-color="#FF928E"/>
</linearGradient>
<linearGradient id="paint11_linear_1_15858" x1="63.2275" y1="56.8479" x2="41.1564" y2="75.9484" gradientUnits="userSpaceOnUse">
<stop stop-color="#FFBE2E"/>
<stop offset="1" stop-color="#1A0F91"/>
</linearGradient>
<linearGradient id="paint12_linear_1_15858" x1="110.577" y1="172.218" x2="169.251" y2="228.375" gradientUnits="userSpaceOnUse">
<stop stop-color="#FFBE2E"/>
<stop offset="1" stop-color="#1A0F91"/>
</linearGradient>
<linearGradient id="paint13_linear_1_15858" x1="20.8685" y1="112.119" x2="53.7977" y2="112.119" gradientUnits="userSpaceOnUse">
<stop stop-color="#FEBBBA"/>
<stop offset="1" stop-color="#FF928E"/>
</linearGradient>
<linearGradient id="paint14_linear_1_15858" x1="112.548" y1="63.4201" x2="88.7513" y2="84.4835" gradientUnits="userSpaceOnUse">
<stop stop-color="#FF928E"/>
<stop offset="1" stop-color="#FE7062"/>
</linearGradient>
<linearGradient id="paint15_linear_1_15858" x1="71.5285" y1="92.5426" x2="67.6873" y2="109.445" gradientUnits="userSpaceOnUse">
<stop stop-color="#FF928E"/>
<stop offset="1" stop-color="#FE7062"/>
</linearGradient>
<linearGradient id="paint16_linear_1_15858" x1="70.5489" y1="99.151" x2="68.712" y2="110.195" gradientUnits="userSpaceOnUse">
<stop stop-color="#FF928E"/>
<stop offset="1" stop-color="#FE7062"/>
</linearGradient>
<linearGradient id="paint17_linear_1_15858" x1="51.3531" y1="108.675" x2="61.6122" y2="108.675" gradientUnits="userSpaceOnUse">
<stop stop-color="#FEBBBA"/>
<stop offset="1" stop-color="#FF928E"/>
</linearGradient>
<linearGradient id="paint18_linear_1_15858" x1="42.0107" y1="75.8686" x2="44.5129" y2="114.232" gradientUnits="userSpaceOnUse">
<stop stop-color="#7D7A7A"/>
<stop offset="1" stop-color="#3E3B3B"/>
</linearGradient>
<linearGradient id="paint19_linear_1_15858" x1="26.2377" y1="73.8318" x2="42.7753" y2="96.9318" gradientUnits="userSpaceOnUse">
<stop stop-color="#7D7A7A"/>
<stop offset="1" stop-color="#3E3B3B"/>
</linearGradient>
<linearGradient id="paint20_linear_1_15858" x1="132.946" y1="108.99" x2="103.24" y2="162.967" gradientUnits="userSpaceOnUse">
<stop stop-color="#FF928E"/>
<stop offset="1" stop-color="#FE7062"/>
</linearGradient>
<linearGradient id="paint21_linear_1_15858" x1="136.909" y1="128.772" x2="152.957" y2="152.139" gradientUnits="userSpaceOnUse">
<stop stop-color="#09005D"/>
<stop offset="1" stop-color="#1A0F91"/>
</linearGradient>
<linearGradient id="paint22_linear_1_15858" x1="136.328" y1="129.171" x2="152.376" y2="152.536" gradientUnits="userSpaceOnUse">
<stop stop-color="#09005D"/>
<stop offset="1" stop-color="#1A0F91"/>
</linearGradient>
<linearGradient id="paint23_linear_1_15858" x1="135.629" y1="129.651" x2="151.677" y2="153.017" gradientUnits="userSpaceOnUse">
<stop stop-color="#09005D"/>
<stop offset="1" stop-color="#1A0F91"/>
</linearGradient>
<linearGradient id="paint24_linear_1_15858" x1="134.421" y1="130.481" x2="150.467" y2="153.847" gradientUnits="userSpaceOnUse">
<stop stop-color="#09005D"/>
<stop offset="1" stop-color="#1A0F91"/>
</linearGradient>
<linearGradient id="paint25_linear_1_15858" x1="133.621" y1="131.029" x2="149.668" y2="154.395" gradientUnits="userSpaceOnUse">
<stop stop-color="#09005D"/>
<stop offset="1" stop-color="#1A0F91"/>
</linearGradient>
<linearGradient id="paint26_linear_1_15858" x1="133.129" y1="131.369" x2="149.176" y2="154.736" gradientUnits="userSpaceOnUse">
<stop stop-color="#09005D"/>
<stop offset="1" stop-color="#1A0F91"/>
</linearGradient>
<linearGradient id="paint27_linear_1_15858" x1="137.736" y1="128.202" x2="153.784" y2="151.569" gradientUnits="userSpaceOnUse">
<stop stop-color="#09005D"/>
<stop offset="1" stop-color="#1A0F91"/>
</linearGradient>
<clipPath id="clip0_1_15858">
<rect width="235.2" height="145.7" fill="white"/>
</clipPath>
</defs>
</svg>
