<svg width="234" height="146" viewBox="0 0 234 146" fill="none" xmlns="http://www.w3.org/2000/svg">
<path d="M233.199 82.4C233.199 83.2 233.199 83.9 233.199 84.7C233.199 86.1 233.099 87.5 233.099 88.9C231.899 118.2 222.699 145.6 222.699 145.6H168.599H163.999H155.499H141.899H130.299H106.899H101.799H89.9995H73.2995H56.5995H4.69948C-5.70052 125.9 3.59948 118.8 10.4995 108.7C14.1995 103.3 17.1995 97.1 16.0995 87.6C15.6995 84.3 14.7995 80.6 13.2995 76.5C12.5995 74.6 12.3995 72.7 12.0995 70.8C11.9995 70 11.7995 69.1 11.6995 68.3C11.6995 68.1 11.5995 67.9 11.5995 67.6C6.19948 25 28.4995 4.79999 63.2995 1.39999C90.5995 -1.30001 101.899 6.79999 109.099 13.2C132.799 34.3 134.599 14.4 185.399 18.8C212.899 21.2 225.599 37.8 230.499 58.2C230.799 59.6 231.099 61 231.399 62.4C231.499 63.2 231.699 63.9 231.799 64.7C231.999 66.1 232.199 67.5 232.399 68.9C232.499 69.7 232.599 70.5 232.599 71.3C232.699 72.7 232.799 74.1 232.899 75.5C232.899 76.3 232.999 77.2 232.999 78C233.199 79.6 233.199 81 233.199 82.4Z" fill="#EBF3FA"/>
<path d="M99.4984 145.7C106.398 145.7 113.398 145.7 120.298 145.7C120.798 142.5 121.098 140.6 121.098 140.6L91.1984 138.4C90.1984 139.8 88.8984 142.4 87.3984 145.7C91.3984 145.7 95.3984 145.7 99.4984 145.7Z" fill="url(#paint0_linear_1_15795)"/>
<path d="M123.801 63.9C125.101 64 126.301 64.2 127.501 64.6C140.401 69.1 150.601 67.9 158.401 64.4C160.201 66.8 163.101 71.8 164.401 80.1C150.201 90.6 132.301 87.9 126.501 86.6C128.001 97.9 128.001 115.8 121.801 142C121.601 142.7 121.001 143.2 120.301 143.3C116.301 143.6 102.901 144.4 90.1008 141.5C89.5008 141.4 89.2008 140.8 89.4008 140.2L89.5008 139.9C90.6008 137.4 91.1008 134.7 90.9008 132C90.4008 123.7 88.2008 105.1 83.5008 92.3C83.2008 92.8 83.0008 93.2 82.7008 93.7C81.8008 85.3 78.6008 77 76.3008 68.7C94.9008 62.8 117.101 63.5 123.801 63.9Z" fill="url(#paint1_linear_1_15795)"/>
<path d="M94.7976 48.6C94.7976 48.6 93.4976 62.3 92.3976 66.4C92.1976 67 92.4976 67.7 93.0976 68C94.9976 69.1 99.6976 70.9 106.098 67.8C107.098 67.3 107.698 66.2 107.698 65.1L106.998 51.8L94.7976 48.6Z" fill="url(#paint2_linear_1_15795)"/>
<path d="M107.301 31.1C107.301 31.1 111.501 40.6 111.701 45.6C112.001 50.6 113.101 53.8 107.301 54.8C101.501 55.8 96.601 52.9 94.001 48C94.001 48 89.901 40.3 90.801 37.2C91.701 34 107.301 31.1 107.301 31.1Z" fill="url(#paint3_linear_1_15795)"/>
<path d="M95.9978 44.4L96.2978 44.3C96.6978 44.1 96.8978 43.6 96.6978 43.2C95.8978 41.6 94.2978 38 96.2978 37.2C98.1978 36.4 100.298 36 102.298 35.3C104.098 34.7 107.698 34.1 108.698 32.1C108.998 31.5 108.698 30.9 108.398 30.3C107.798 29.3 107.298 28.2 106.698 27.2C106.198 26.3 105.698 25.4 104.998 24.8C103.298 23.3 101.198 24.6 99.2978 25C92.1978 26.3 87.3978 29.2 87.2978 34.1C87.2978 34.4 86.9978 34.6 86.6978 34.4C86.1978 34.1 85.2978 33.9 84.1978 34.9C82.1978 36.5 82.9978 40.8 87.2978 44.3C87.4978 44.5 87.4978 44.8 87.2978 44.9C86.4978 45.4 85.3978 46.6 88.3978 48.2C91.4978 49.9 93.7978 49.7 94.6978 49.6C94.8978 49.6 95.0978 49.3 94.9978 49.1L93.9978 44.8C93.8978 44.6 94.0978 44.3 94.3978 44.3H95.9978V44.4Z" fill="url(#paint4_linear_1_15795)"/>
<path d="M96.1977 45.3C96.1977 45.3 94.5977 39.2 91.8977 40.9C89.1977 42.6 93.2977 47.7 95.4977 47.9L96.1977 45.3Z" fill="url(#paint5_linear_1_15795)"/>
<path d="M110.801 32.7C104.001 12.6 75.801 25.3 85.101 42.8C94.801 38.4 106.201 31.3 110.801 32.7Z" fill="url(#paint6_linear_1_15795)"/>
<path d="M94.0993 38L111.799 40.3C112.299 40.4 112.699 40.2 112.999 39.8C114.999 37.2 117.699 35.8 120.699 35.3C121.099 35.2 121.099 34.7 120.699 34.6L109.999 32.1C104.499 31.6 99.1993 34.1 93.9993 37.6C93.8993 37.7 93.8993 38 94.0993 38Z" fill="#FFBE2E"/>
<path d="M90.2984 139.5C86.1984 139.6 82.8984 136.3 82.8984 132.3V100C82.8984 95.8 86.2984 92.3 90.5984 92.3C103.298 92.2 129.598 92.2 151.098 94C153.998 94.3 156.298 96.6 156.398 99.6L158.398 130.8C158.498 134.9 155.298 138.4 151.198 138.4L90.2984 139.5Z" fill="url(#paint7_linear_1_15795)"/>
<path d="M90.2992 103.5C90.1992 106.2 90.2992 110.6 90.3992 113.4C90.3992 114.9 91.6992 116 93.1992 115.8L103.699 114.6C105.099 114.4 106.099 113.2 105.899 111.8L104.599 103.2C104.399 102 103.399 101.1 102.099 101.1H92.7992C91.3992 101.1 90.2992 102.1 90.2992 103.5Z" fill="white"/>
<path opacity="0.37" d="M117.701 119.7L126.501 120.6C127.701 120.7 128.801 119.7 128.701 118.5L126.801 92.6C123.101 92.5 119.501 92.4 116.001 92.3V117.7C115.901 118.8 116.701 119.6 117.701 119.7Z" fill="white"/>
<path d="M121.3 115.2C121.3 115.7 121.7 116 122.2 116C122.2 116 122.2 116 122.3 116C122.8 116 123.2 115.6 123.1 115.1L121.8 92.5C121.2 92.5 120.6 92.5 120 92.5L121.3 115.2Z" fill="white"/>
<path d="M95.1008 111.7C94.9008 111.7 94.8008 111.6 94.8008 111.4L94.3008 104.3C94.3008 104.1 94.4008 104 94.6008 104C94.8008 104 94.9008 104.1 94.9008 104.3L95.4008 111.4C95.4008 111.5 95.3008 111.6 95.1008 111.7Z" fill="url(#paint8_linear_1_15795)"/>
<path d="M96 111.7C95.8 111.7 95.7 111.6 95.7 111.4L95.5 104.1C95.5 103.9 95.6 103.8 95.8 103.8C96 103.8 96.1 103.9 96.1 104.1L96.3 111.4C96.4 111.5 96.2 111.7 96 111.7C96.1 111.7 96.1 111.7 96 111.7Z" fill="url(#paint9_linear_1_15795)"/>
<path d="M97.2992 111.7C97.4992 111.7 97.5992 111.6 97.5992 111.4C97.4992 109 97.2992 104.3 97.2992 104.1C97.2992 103.9 97.1992 103.8 96.9992 103.8C96.7992 103.8 96.6992 103.9 96.6992 104.1C96.6992 104.2 96.9992 110.2 96.9992 111.4C96.9992 111.5 97.1992 111.7 97.2992 111.7Z" fill="url(#paint10_linear_1_15795)"/>
<path d="M99.3004 112C99.0004 112 98.7004 111.7 98.7004 111.4C98.4004 104.4 98.5004 104.2 98.5004 104.1C98.6004 103.8 98.9004 103.6 99.2004 103.7C99.5004 103.8 99.7004 104.1 99.6004 104.3C99.6004 104.7 99.7004 108.8 99.8004 111.3C99.9004 111.7 99.6004 111.9 99.3004 112Z" fill="url(#paint11_linear_1_15795)"/>
<path d="M100.499 111.7C100.299 111.7 100.199 111.6 100.199 111.4V104.3C100.199 104.1 100.299 104 100.499 104C100.699 104 100.799 104.1 100.799 104.3V111.4C100.799 111.5 100.699 111.7 100.499 111.7Z" fill="url(#paint12_linear_1_15795)"/>
<path d="M101.601 111.7C101.401 111.7 101.301 111.6 101.301 111.4C101.201 108.9 101.101 104.9 101.001 104.4C100.901 104.3 100.901 104.2 101.001 104.1C101.101 104 101.301 103.9 101.401 104C101.601 104.1 101.701 104.2 101.901 111.4C101.901 111.5 101.701 111.7 101.601 111.7Z" fill="url(#paint13_linear_1_15795)"/>
<path d="M93.5 112.3C93.2 112.3 92.9 112.1 92.9 111.7L92.5 104.2C92.5 103.9 92.7 103.6 93.1 103.6C93.4 103.6 93.7 103.8 93.7 104.2L94.1 111.7C94.1 112 93.9 112.3 93.5 112.3C93.6 112.3 93.5 112.3 93.5 112.3Z" fill="url(#paint14_linear_1_15795)"/>
<path d="M111.898 93.5C108.898 93.6 106.398 91.1 106.398 88.1V63.9C106.398 60.7 108.998 58.2 112.098 58.1C121.598 58 141.298 58 157.398 59.3C159.598 59.5 161.298 61.3 161.398 63.5L162.898 86.8C162.998 89.9 160.598 92.5 157.498 92.5L111.898 93.5Z" fill="url(#paint15_linear_1_15795)"/>
<path d="M111.898 66.5C111.898 68.6 111.898 71.8 111.998 73.9C111.998 75 112.998 75.8 114.098 75.7L121.898 74.8C122.898 74.7 123.698 73.7 123.498 72.7L122.498 66.3C122.398 65.4 121.598 64.7 120.698 64.7H113.698C112.798 64.7 111.898 65.5 111.898 66.5Z" fill="white"/>
<path opacity="0.37" d="M132.4 78.6999L138.9 79.4C139.8 79.5 140.6 78.7 140.5 77.8L139.1 58.4C136.4 58.3 133.6 58.3 131 58.2V77.1999C131.1 77.9999 131.7 78.5999 132.4 78.6999Z" fill="white"/>
<path d="M135.098 75.3C135.098 75.6 135.398 75.9 135.798 75.9C136.198 75.9 136.398 75.5999 136.398 75.1999L135.398 58.2C134.998 58.2 134.498 58.2 134.098 58.2L135.098 75.3Z" fill="white"/>
<path d="M115.5 72.7C115.4 72.7 115.3 72.6 115.3 72.5L115 67.2C115 67.1 115.1 67 115.2 67C115.3 67 115.4 67.1 115.4 67.2L115.7 72.5C115.8 72.6 115.7 72.7 115.5 72.7Z" fill="url(#paint16_linear_1_15795)"/>
<path d="M116.201 72.7C116.101 72.7 116.001 72.6 116.001 72.5L115.801 67.1C115.801 67 115.901 66.9 116.001 66.9C116.101 66.9 116.201 67 116.201 67.1L116.401 72.5C116.501 72.6 116.401 72.7 116.201 72.7Z" fill="url(#paint17_linear_1_15795)"/>
<path d="M117.199 72.7C117.299 72.7 117.399 72.6 117.399 72.5C117.299 70.7 117.099 67.2 117.099 67.1C117.099 67 116.999 66.9 116.899 66.9C116.799 66.9 116.699 67 116.699 67.1C116.699 67.2 116.899 71.7 116.999 72.6C116.999 72.6 117.099 72.7 117.199 72.7Z" fill="url(#paint18_linear_1_15795)"/>
<path d="M118.601 72.8999C118.401 72.8999 118.201 72.6999 118.201 72.4999C118.001 67.1999 118.001 67.0999 118.101 66.9999C118.201 66.7999 118.401 66.5999 118.601 66.6999C118.801 66.7999 118.901 66.9999 118.901 67.1999C118.901 67.4999 119.001 70.5999 119.001 72.4999C119.101 72.6999 118.901 72.8999 118.601 72.8999C118.701 72.8999 118.601 72.8999 118.601 72.8999Z" fill="url(#paint19_linear_1_15795)"/>
<path d="M119.598 72.7C119.498 72.7 119.398 72.6 119.398 72.5V67.2C119.398 67.1 119.498 67 119.598 67C119.698 67 119.798 67.1 119.798 67.2V72.5C119.798 72.6 119.698 72.7 119.598 72.7Z" fill="url(#paint20_linear_1_15795)"/>
<path d="M120.4 72.7C120.3 72.7 120.2 72.6 120.2 72.5C120.2 70.6 120.1 67.6 120 67.3C120 67.2 120 67.1 120 67.1C120.1 67 120.2 67 120.3 67C120.4 67.1 120.5 67.2 120.7 72.5C120.6 72.6 120.5 72.7 120.4 72.7Z" fill="url(#paint21_linear_1_15795)"/>
<path d="M114.399 73.2C114.199 73.2 113.999 73 113.999 72.8L113.699 67.2C113.699 67 113.899 66.7 114.099 66.7C114.299 66.7 114.599 66.9 114.599 67.1L114.899 72.7C114.799 72.9 114.599 73.1 114.399 73.2Z" fill="url(#paint22_linear_1_15795)"/>
<path d="M165.101 72.1C163.801 71.8 160.801 67.7 160.401 69.2C160.101 70.7 161.001 72.6 160.901 73.2C160.801 73.8 159.801 77.4 160.601 78.8C161.201 79.9 162.301 83.2 162.901 85C163.101 85.6 163.301 86.4 163.901 86.3C164.501 86.2 165.001 85.4 165.101 84.8C165.001 84.6 166.401 72.4 165.101 72.1Z" fill="url(#paint23_linear_1_15795)"/>
<path d="M69.1985 77.1C70.7985 73.3 76.0985 68.7 76.3985 68.6C78.6985 76.9 82.6985 83.8 83.5985 92.3C77.9985 102.6 79.2985 114.8 82.7985 120.7C81.0985 123.3 79.0985 126.8 77.2985 131.1C55.4985 118.2 64.0985 88.7 69.1985 77.1Z" fill="url(#paint24_linear_1_15795)"/>
<path d="M96.9977 140.4L115.698 140C115.698 140 99.2977 135.4 98.2977 136.6C98.2977 136.6 88.1977 130 82.5977 120.6C80.8977 123.2 78.8977 126.7 77.0977 131C82.1977 134 88.6977 139.1 96.9977 140.4Z" fill="url(#paint25_linear_1_15795)"/>
<path d="M96.4984 137.2C96.4984 137.2 96.0984 144.6 105.898 143.6C111.198 143 119.798 138.1 119.798 138.1C119.798 138.1 97.3984 138 96.4984 137.2Z" fill="url(#paint26_linear_1_15795)"/>
<defs>
<linearGradient id="paint0_linear_1_15795" x1="34.8747" y1="9.71577" x2="112.342" y2="158.821" gradientUnits="userSpaceOnUse">
<stop stop-color="#3E3B3B"/>
<stop offset="1" stop-color="#3E3B3B"/>
</linearGradient>
<linearGradient id="paint1_linear_1_15795" x1="164.4" y1="103.641" x2="76.3456" y2="103.641" gradientUnits="userSpaceOnUse">
<stop stop-color="#FFBE2E"/>
<stop offset="1" stop-color="#FFBE2E"/>
</linearGradient>
<linearGradient id="paint2_linear_1_15795" x1="96.9443" y1="79.4286" x2="101.084" y2="57.6323" gradientUnits="userSpaceOnUse">
<stop stop-color="#FEBBBA"/>
<stop offset="1" stop-color="#FF928E"/>
</linearGradient>
<linearGradient id="paint3_linear_1_15795" x1="108.184" y1="39.4261" x2="84.4825" y2="57.6164" gradientUnits="userSpaceOnUse">
<stop stop-color="#FEBBBA"/>
<stop offset="1" stop-color="#FF928E"/>
</linearGradient>
<linearGradient id="paint4_linear_1_15795" x1="89.0339" y1="26.9859" x2="111.074" y2="55.4486" gradientUnits="userSpaceOnUse">
<stop stop-color="#09005D"/>
<stop offset="1" stop-color="#1A0F91"/>
</linearGradient>
<linearGradient id="paint5_linear_1_15795" x1="105.218" y1="35.5664" x2="81.5169" y2="53.7569" gradientUnits="userSpaceOnUse">
<stop stop-color="#FEBBBA"/>
<stop offset="1" stop-color="#FF928E"/>
</linearGradient>
<linearGradient id="paint6_linear_1_15795" x1="32.0772" y1="-2.04579" x2="90.3477" y2="31.004" gradientUnits="userSpaceOnUse">
<stop stop-color="#FFBE2E"/>
<stop offset="1" stop-color="#F8C75B"/>
</linearGradient>
<linearGradient id="paint7_linear_1_15795" x1="8.62434" y1="38.6596" x2="159.337" y2="144.127" gradientUnits="userSpaceOnUse">
<stop stop-color="#FFFAEF"/>
<stop offset="1" stop-color="#F9D27B"/>
</linearGradient>
<linearGradient id="paint8_linear_1_15795" x1="98.4211" y1="102.654" x2="79.7267" y2="129.901" gradientUnits="userSpaceOnUse">
<stop stop-color="#09005D"/>
<stop offset="1" stop-color="#1A0F91"/>
</linearGradient>
<linearGradient id="paint9_linear_1_15795" x1="99.0999" y1="103.119" x2="80.4059" y2="130.368" gradientUnits="userSpaceOnUse">
<stop stop-color="#09005D"/>
<stop offset="1" stop-color="#1A0F91"/>
</linearGradient>
<linearGradient id="paint10_linear_1_15795" x1="99.914" y1="103.679" x2="81.2197" y2="130.927" gradientUnits="userSpaceOnUse">
<stop stop-color="#09005D"/>
<stop offset="1" stop-color="#1A0F91"/>
</linearGradient>
<linearGradient id="paint11_linear_1_15795" x1="101.327" y1="104.647" x2="82.6324" y2="131.894" gradientUnits="userSpaceOnUse">
<stop stop-color="#09005D"/>
<stop offset="1" stop-color="#1A0F91"/>
</linearGradient>
<linearGradient id="paint12_linear_1_15795" x1="102.259" y1="105.287" x2="83.5637" y2="132.534" gradientUnits="userSpaceOnUse">
<stop stop-color="#09005D"/>
<stop offset="1" stop-color="#1A0F91"/>
</linearGradient>
<linearGradient id="paint13_linear_1_15795" x1="102.834" y1="105.681" x2="84.1389" y2="132.928" gradientUnits="userSpaceOnUse">
<stop stop-color="#09005D"/>
<stop offset="1" stop-color="#1A0F91"/>
</linearGradient>
<linearGradient id="paint14_linear_1_15795" x1="97.4539" y1="101.99" x2="78.7592" y2="129.238" gradientUnits="userSpaceOnUse">
<stop stop-color="#09005D"/>
<stop offset="1" stop-color="#1A0F91"/>
</linearGradient>
<linearGradient id="paint15_linear_1_15795" x1="40.5149" y1="10.8203" x2="153.338" y2="89.7732" gradientUnits="userSpaceOnUse">
<stop stop-color="#FADD9A"/>
<stop offset="1" stop-color="#F5C048"/>
</linearGradient>
<linearGradient id="paint16_linear_1_15795" x1="118.017" y1="65.9235" x2="104.022" y2="86.3204" gradientUnits="userSpaceOnUse">
<stop stop-color="#09005D"/>
<stop offset="1" stop-color="#1A0F91"/>
</linearGradient>
<linearGradient id="paint17_linear_1_15795" x1="118.521" y1="66.2686" x2="104.526" y2="86.6667" gradientUnits="userSpaceOnUse">
<stop stop-color="#09005D"/>
<stop offset="1" stop-color="#1A0F91"/>
</linearGradient>
<linearGradient id="paint18_linear_1_15795" x1="119.134" y1="66.6898" x2="105.139" y2="87.0883" gradientUnits="userSpaceOnUse">
<stop stop-color="#09005D"/>
<stop offset="1" stop-color="#1A0F91"/>
</linearGradient>
<linearGradient id="paint19_linear_1_15795" x1="120.187" y1="67.4111" x2="106.192" y2="87.8088" gradientUnits="userSpaceOnUse">
<stop stop-color="#09005D"/>
<stop offset="1" stop-color="#1A0F91"/>
</linearGradient>
<linearGradient id="paint20_linear_1_15795" x1="120.884" y1="67.8914" x2="106.89" y2="88.2895" gradientUnits="userSpaceOnUse">
<stop stop-color="#09005D"/>
<stop offset="1" stop-color="#1A0F91"/>
</linearGradient>
<linearGradient id="paint21_linear_1_15795" x1="121.321" y1="68.1897" x2="107.326" y2="88.5875" gradientUnits="userSpaceOnUse">
<stop stop-color="#09005D"/>
<stop offset="1" stop-color="#1A0F91"/>
</linearGradient>
<linearGradient id="paint22_linear_1_15795" x1="117.289" y1="65.4248" x2="103.295" y2="85.8225" gradientUnits="userSpaceOnUse">
<stop stop-color="#09005D"/>
<stop offset="1" stop-color="#1A0F91"/>
</linearGradient>
<linearGradient id="paint23_linear_1_15795" x1="155.639" y1="53.713" x2="190.586" y2="158.864" gradientUnits="userSpaceOnUse">
<stop stop-color="#FEBBBA"/>
<stop offset="1" stop-color="#FF928E"/>
</linearGradient>
<linearGradient id="paint24_linear_1_15795" x1="83.5067" y1="99.8736" x2="63.1463" y2="99.8736" gradientUnits="userSpaceOnUse">
<stop stop-color="#FFBE2E"/>
<stop offset="1" stop-color="#3E3B3B"/>
</linearGradient>
<linearGradient id="paint25_linear_1_15795" x1="719.058" y1="-1461.67" x2="755.333" y2="-1554.74" gradientUnits="userSpaceOnUse">
<stop stop-color="#FFFA2E"/>
<stop offset="1" stop-color="#F4C356"/>
</linearGradient>
<linearGradient id="paint26_linear_1_15795" x1="100.832" y1="119.526" x2="64.5591" y2="26.4697" gradientUnits="userSpaceOnUse">
<stop stop-color="#FCAF05"/>
<stop offset="1" stop-color="#FAC551"/>
</linearGradient>
</defs>
</svg>
